<svg width="30" height="30" viewBox="0 0 30 30" fill="none" xmlns="http://www.w3.org/2000/svg">
<path d="M29.2734 6.06338L26.8734 1.26338C26.7737 1.06406 26.6205 0.896439 26.431 0.779289C26.2414 0.662138 26.0229 0.60009 25.8001 0.600098H4.2001C3.97725 0.60009 3.75881 0.662138 3.56924 0.779289C3.37967 0.896439 3.22647 1.06406 3.12681 1.26338L0.726807 6.06338C0.643474 6.23002 0.600091 6.41378 0.600098 6.6001V27.0001C0.600825 27.6364 0.853916 28.2464 1.30385 28.6964C1.75377 29.1463 2.3638 29.3994 3.0001 29.4001H27.0001C27.6364 29.3994 28.2464 29.1463 28.6964 28.6964C29.1463 28.2464 29.3994 27.6364 29.4001 27.0001V6.6001C29.4001 6.41378 29.3567 6.23002 29.2734 6.06338V6.06338ZM20.9398 19.1575L15.8487 24.2487C15.8406 24.2568 15.8315 24.2638 15.8233 24.2717C15.8033 24.2906 15.7834 24.3095 15.762 24.3271C15.752 24.3353 15.7412 24.3424 15.731 24.3503C15.7101 24.3664 15.6895 24.3826 15.6676 24.3973C15.6591 24.4029 15.6501 24.4076 15.6416 24.413C15.617 24.4286 15.5923 24.4441 15.5666 24.4579C15.5603 24.4613 15.5536 24.464 15.5471 24.4672C15.5187 24.4819 15.4899 24.496 15.4602 24.5083C15.456 24.5102 15.4514 24.5114 15.4471 24.5132C15.4152 24.526 15.383 24.5378 15.3498 24.548C15.3454 24.5493 15.3409 24.5502 15.3365 24.5514C15.3035 24.561 15.2703 24.5698 15.2363 24.5766C15.2265 24.5786 15.2164 24.5794 15.2065 24.5811C15.1779 24.5861 15.1492 24.5912 15.1199 24.594C15.0402 24.6021 14.96 24.6021 14.8803 24.594C14.851 24.5912 14.8223 24.5861 14.7937 24.5811C14.7838 24.5794 14.7737 24.5786 14.7639 24.5766C14.7299 24.5698 14.6967 24.561 14.6637 24.5514C14.6593 24.5502 14.6548 24.5493 14.6504 24.548C14.6171 24.5378 14.5847 24.5258 14.5527 24.513C14.5486 24.5113 14.5442 24.5101 14.54 24.5083C14.5102 24.496 14.4815 24.4819 14.453 24.4672C14.4466 24.4639 14.4399 24.4613 14.4336 24.4579C14.4079 24.4441 14.3832 24.4286 14.3586 24.413C14.3501 24.4076 14.3411 24.4029 14.3326 24.3973C14.3107 24.3826 14.2901 24.3664 14.2692 24.3503C14.259 24.3424 14.2482 24.3353 14.2382 24.3271C14.2174 24.3101 14.1981 24.2915 14.1785 24.2731C14.1697 24.2648 14.1602 24.2573 14.1515 24.2487L9.06038 19.1575C8.83532 18.9324 8.70888 18.6272 8.70887 18.3089C8.70887 17.9906 8.83529 17.6854 9.06034 17.4603C9.28539 17.2353 9.59063 17.1088 9.9089 17.1088C10.2272 17.1088 10.5324 17.2353 10.7575 17.4603L13.8001 20.503V11.4001C13.8001 11.0818 13.9265 10.7766 14.1516 10.5516C14.3766 10.3265 14.6818 10.2001 15.0001 10.2001C15.3184 10.2001 15.6236 10.3265 15.8486 10.5516C16.0737 10.7766 16.2001 11.0818 16.2001 11.4001V20.503L19.2427 17.4603C19.3542 17.3489 19.4865 17.2605 19.6321 17.2002C19.7777 17.1399 19.9337 17.1088 20.0913 17.1088C20.2489 17.1088 20.4049 17.1399 20.5505 17.2002C20.6961 17.2605 20.8284 17.3489 20.9399 17.4603C21.0513 17.5718 21.1397 17.7041 21.2 17.8497C21.2603 17.9953 21.2913 18.1513 21.2913 18.3089C21.2913 18.4665 21.2603 18.6225 21.2 18.7681C21.1397 18.9137 21.0513 19.046 20.9398 19.1575L20.9398 19.1575ZM3.74175 5.4001L4.94175 3.0001H25.0584L26.2584 5.4001H3.74175Z" fill="black"/>
</svg>
