<svg width="48" height="48" viewBox="0 0 48 48" fill="none" xmlns="http://www.w3.org/2000/svg">
<path d="M42.3492 19.2779C41.6418 18.5403 40.9105 17.7779 40.6342 17.1097C40.3802 16.496 40.3649 15.4794 40.35 14.4961C40.3224 12.6663 40.2911 10.5925 38.8493 9.1507C37.4075 7.70892 35.3337 7.67761 33.5039 7.64996C32.5206 7.63513 31.504 7.61975 30.8903 7.36578C30.2223 7.08948 29.4597 6.35816 28.7221 5.65082C27.4266 4.40826 25.9579 3 24 3C22.0421 3 20.5735 4.40826 19.2779 5.65082C18.5403 6.35815 17.7779 7.08948 17.1097 7.36578C16.496 7.61975 15.4794 7.63513 14.4961 7.64996C12.6663 7.67761 10.5925 7.70892 9.1507 9.1507C7.70892 10.5925 7.67761 12.6663 7.64996 14.4961C7.63513 15.4794 7.61975 16.496 7.36578 17.1097C7.08948 17.7777 6.35816 18.5403 5.65082 19.2779C4.40826 20.5734 3 22.0421 3 24C3 25.9579 4.40826 27.4265 5.65082 28.7221C6.35815 29.4597 7.08948 30.2221 7.36578 30.8903C7.61975 31.504 7.63513 32.5206 7.64996 33.5039C7.67761 35.3337 7.70892 37.4075 9.1507 38.8493C10.5925 40.2911 12.6663 40.3224 14.4961 40.35C15.4794 40.3649 16.496 40.3802 17.1097 40.6342C17.7777 40.9105 18.5403 41.6418 19.2779 42.3492C20.5734 43.5917 22.0421 45 24 45C25.9579 45 27.4265 43.5917 28.7221 42.3492C29.4597 41.6418 30.2221 40.9105 30.8903 40.6342C31.504 40.3802 32.5206 40.3649 33.5039 40.35C35.3337 40.3224 37.4075 40.2911 38.8493 38.8493C40.2911 37.4075 40.3224 35.3337 40.35 33.5039C40.3649 32.5206 40.3802 31.504 40.6342 30.8903C40.9105 30.2223 41.6418 29.4597 42.3492 28.7221C43.5917 27.4266 45 25.9579 45 24C45 22.0421 43.5917 20.5735 42.3492 19.2779ZM33.2856 20.5851L22.2856 31.0851C22.0066 31.3514 21.6357 31.5 21.2499 31.5C20.8642 31.5 20.4933 31.3514 20.2143 31.0851L14.7144 25.8351C14.5718 25.6991 14.4574 25.5364 14.3777 25.3562C14.298 25.176 14.2547 24.9818 14.25 24.7849C14.2454 24.5879 14.2796 24.3919 14.3507 24.2082C14.4219 24.0244 14.5285 23.8565 14.6645 23.714C14.8006 23.5715 14.9633 23.4571 15.1436 23.3775C15.3238 23.2979 15.5179 23.2546 15.7149 23.25C15.9119 23.2455 16.1078 23.2798 16.2916 23.351C16.4753 23.4221 16.6432 23.5288 16.7856 23.6649L21.2499 27.9263L31.2144 18.4149C31.3568 18.2788 31.5247 18.1721 31.7084 18.101C31.8922 18.0298 32.0881 17.9955 32.2851 18C32.4821 18.0046 32.6762 18.0479 32.8564 18.1275C33.0367 18.2071 33.1994 18.3215 33.3355 18.464C33.4715 18.6065 33.5781 18.7744 33.6493 18.9582C33.7204 19.1419 33.7546 19.3379 33.75 19.5349C33.7453 19.7318 33.702 19.926 33.6223 20.1062C33.5426 20.2864 33.4282 20.4491 33.2856 20.5851V20.5851Z" fill="#0055FF"/>
</svg>
