<svg width="14" height="14" viewBox="0 0 14 14" fill="none" xmlns="http://www.w3.org/2000/svg">
<path d="M13.1164 5.42596C12.8806 5.18011 12.6368 4.92596 12.5447 4.70325C12.4601 4.49866 12.455 4.15979 12.45 3.83203C12.4408 3.22211 12.4304 2.53082 11.9498 2.05023C11.4692 1.56964 10.7779 1.5592 10.168 1.54999C9.84021 1.54504 9.50134 1.53992 9.29675 1.45526C9.0741 1.36316 8.81989 1.11939 8.57404 0.883606C8.14221 0.469421 7.65265 0 7 0C6.34735 0 5.85785 0.469421 5.42596 0.883606C5.18011 1.11938 4.92596 1.36316 4.70325 1.45526C4.49866 1.53992 4.15979 1.54504 3.83203 1.54999C3.22211 1.5592 2.53082 1.56964 2.05023 2.05023C1.56964 2.53082 1.5592 3.22211 1.54999 3.83203C1.54504 4.15979 1.53992 4.49866 1.45526 4.70325C1.36316 4.9259 1.11939 5.18011 0.883606 5.42596C0.469421 5.85779 0 6.34735 0 7C0 7.65265 0.469421 8.14215 0.883606 8.57404C1.11938 8.81989 1.36316 9.07404 1.45526 9.29675C1.53992 9.50134 1.54504 9.84021 1.54999 10.168C1.5592 10.7779 1.56964 11.4692 2.05023 11.9498C2.53082 12.4304 3.22211 12.4408 3.83203 12.45C4.15979 12.455 4.49866 12.4601 4.70325 12.5447C4.9259 12.6368 5.18011 12.8806 5.42596 13.1164C5.85779 13.5306 6.34735 14 7 14C7.65265 14 8.14215 13.5306 8.57404 13.1164C8.81989 12.8806 9.07404 12.6368 9.29675 12.5447C9.50134 12.4601 9.84021 12.455 10.168 12.45C10.7779 12.4408 11.4692 12.4304 11.9498 11.9498C12.4304 11.4692 12.4408 10.7779 12.45 10.168C12.455 9.84021 12.4601 9.50134 12.5447 9.29675C12.6368 9.0741 12.8806 8.81989 13.1164 8.57404C13.5306 8.14221 14 7.65265 14 7C14 6.34735 13.5306 5.85785 13.1164 5.42596ZM6.49994 4C6.49994 3.86739 6.55262 3.74021 6.64638 3.64645C6.74015 3.55268 6.86733 3.5 6.99994 3.5C7.13255 3.5 7.25972 3.55268 7.35349 3.64645C7.44726 3.74021 7.49994 3.86739 7.49994 4V7.5C7.49994 7.63261 7.44726 7.75979 7.35349 7.85355C7.25972 7.94732 7.13255 8 6.99994 8C6.86733 8 6.74015 7.94732 6.64638 7.85355C6.55262 7.75979 6.49994 7.63261 6.49994 7.5V4ZM6.99997 10.5C6.85163 10.5 6.70663 10.456 6.58329 10.3736C6.45995 10.2912 6.36382 10.1741 6.30706 10.037C6.25029 9.89997 6.23544 9.74917 6.26438 9.60368C6.29332 9.4582 6.36475 9.32456 6.46964 9.21967C6.57453 9.11478 6.70816 9.04335 6.85365 9.01441C6.99914 8.98547 7.14994 9.00033 7.28698 9.05709C7.42403 9.11386 7.54116 9.20999 7.62357 9.33332C7.70598 9.45666 7.74997 9.60166 7.74997 9.75C7.74997 9.94891 7.67095 10.1397 7.5303 10.2803C7.38965 10.421 7.19888 10.5 6.99997 10.5H6.99997Z" fill="#0055FF"/>
</svg>
