<svg width="19" height="16" viewBox="0 0 19 16" fill="none" xmlns="http://www.w3.org/2000/svg">
<path d="M18.1138 8.53034L11.3638 15.2803C11.2589 15.3852 11.1253 15.4566 10.9798 15.4855C10.8343 15.5145 10.6835 15.4996 10.5465 15.4429C10.4095 15.3861 10.2923 15.29 10.2099 15.1666C10.1275 15.0433 10.0835 14.8983 10.0835 14.75V8.74998H1.0835C0.884584 8.74998 0.693818 8.67096 0.553166 8.53031C0.412514 8.38965 0.333496 8.19889 0.333496 7.99998C0.333496 7.80106 0.412514 7.6103 0.553166 7.46965C0.693818 7.32899 0.884584 7.24998 1.0835 7.24998H10.0835V1.24998C10.0835 1.10165 10.1275 0.956651 10.2099 0.833322C10.2923 0.709993 10.4094 0.613868 10.5465 0.557101C10.6835 0.500334 10.8343 0.485474 10.9798 0.5144C11.1253 0.543327 11.2589 0.61474 11.3638 0.719611L18.1138 7.46961C18.1835 7.53926 18.2387 7.62194 18.2764 7.71294C18.3141 7.80394 18.3335 7.90148 18.3335 7.99998C18.3335 8.09847 18.3141 8.19601 18.2764 8.28701C18.2387 8.37801 18.1835 8.46069 18.1138 8.53034Z" fill="black"/>
</svg>
