<svg width="20" height="20" viewBox="0 0 20 20" fill="none" xmlns="http://www.w3.org/2000/svg">
<path d="M10 0.249817C8.07164 0.249817 6.18657 0.821644 4.58319 1.89299C2.97982 2.96433 1.73013 4.48707 0.992179 6.26865C0.254225 8.05023 0.061142 10.0106 0.437348 11.9019C0.813554 13.7933 1.74215 15.5305 3.10571 16.8941C4.46928 18.2577 6.20656 19.1863 8.09787 19.5625C9.98919 19.9387 11.9496 19.7456 13.7312 19.0076C15.5127 18.2697 17.0355 17.02 18.1068 15.4166C19.1782 13.8132 19.75 11.9282 19.75 9.99982C19.747 7.41487 18.7188 4.93666 16.891 3.10883C15.0632 1.28099 12.5849 0.252805 10 0.249817V0.249817ZM13.75 10.7498H10.75V13.7498C10.75 13.9487 10.671 14.1395 10.5303 14.2801C10.3897 14.4208 10.1989 14.4998 10 14.4998C9.80109 14.4998 9.61033 14.4208 9.46967 14.2801C9.32902 14.1395 9.25 13.9487 9.25 13.7498V10.7498H6.25C6.05109 10.7498 5.86033 10.6708 5.71967 10.5301C5.57902 10.3895 5.5 10.1987 5.5 9.99982C5.5 9.8009 5.57902 9.61014 5.71967 9.46949C5.86033 9.32883 6.05109 9.24982 6.25 9.24982H9.25V6.24982C9.25 6.0509 9.32902 5.86014 9.46967 5.71949C9.61033 5.57883 9.80109 5.49982 10 5.49982C10.1989 5.49982 10.3897 5.57883 10.5303 5.71949C10.671 5.86014 10.75 6.0509 10.75 6.24982V9.24982H13.75C13.9489 9.24982 14.1397 9.32883 14.2803 9.46949C14.421 9.61014 14.5 9.8009 14.5 9.99982C14.5 10.1987 14.421 10.3895 14.2803 10.5301C14.1397 10.6708 13.9489 10.7498 13.75 10.7498Z" fill="#0055FF"/>
</svg>
