<svg width="20" height="20" viewBox="0 0 20 20" fill="none" xmlns="http://www.w3.org/2000/svg">
<path d="M10 0.25C8.07164 0.25 6.18657 0.821828 4.58319 1.89317C2.97982 2.96451 1.73013 4.48726 0.992179 6.26884C0.254225 8.05042 0.061142 10.0108 0.437348 11.9021C0.813554 13.7934 1.74215 15.5307 3.10571 16.8943C4.46928 18.2579 6.20656 19.1865 8.09787 19.5627C9.98919 19.9389 11.9496 19.7458 13.7312 19.0078C15.5127 18.2699 17.0355 17.0202 18.1068 15.4168C19.1782 13.8134 19.75 11.9284 19.75 10C19.7471 7.41504 18.7189 4.93679 16.8911 3.10894C15.0632 1.28109 12.585 0.252926 10 0.25ZM11.125 14.5C11.125 14.6989 11.046 14.8897 10.9053 15.0303C10.7647 15.171 10.5739 15.25 10.375 15.25C10.1761 15.25 9.98533 15.171 9.84467 15.0303C9.70402 14.8897 9.625 14.6989 9.625 14.5V7.27603L8.54093 7.99847C8.45897 8.05324 8.36702 8.09132 8.27034 8.11052C8.17365 8.12973 8.07413 8.12968 7.97747 8.1104C7.8808 8.09111 7.78888 8.05296 7.70697 7.99812C7.62506 7.94328 7.55476 7.87284 7.5001 7.79081C7.44544 7.70878 7.40748 7.61678 7.38839 7.52008C7.36931 7.42337 7.36948 7.32385 7.38889 7.22721C7.4083 7.13056 7.44657 7.03869 7.50151 6.95685C7.55645 6.87501 7.62699 6.8048 7.70908 6.75024L9.95908 5.25089C10.072 5.17562 10.2033 5.13242 10.3389 5.12589C10.4745 5.11936 10.6093 5.14975 10.7289 5.2138C10.8486 5.27786 10.9486 5.37319 11.0184 5.48964C11.0881 5.60608 11.125 5.73927 11.125 5.875V14.5Z" fill="#0055FF"/>
</svg>
