<svg width="36" height="35" viewBox="0 0 36 35" fill="none" xmlns="http://www.w3.org/2000/svg">
<path d="M33.7271 1.60579C32.8262 0.707089 31.6056 0.202393 30.3331 0.202393C29.0605 0.202393 27.8399 0.707089 26.939 1.60579C26.9236 1.62102 26.9088 1.63684 26.8943 1.65281L18.6591 10.8289L17.2787 9.44841C16.6035 8.77329 15.6878 8.39402 14.733 8.39402C13.7783 8.39402 12.8626 8.77329 12.1874 9.44841L0.68446 20.9514C0.459427 21.1765 0.333008 21.4817 0.333008 21.8C0.333008 22.1182 0.459427 22.4235 0.68446 22.6486L12.6845 34.6486C12.9095 34.8736 13.2148 35 13.533 35C13.8513 35 14.1565 34.8736 14.3816 34.6486L25.8846 23.1456C26.5597 22.4704 26.939 21.5548 26.939 20.6C26.939 19.6452 26.5597 18.7295 25.8846 18.0544L24.5041 16.674L33.6802 8.4387C33.6962 8.42419 33.712 8.4094 33.7272 8.39402C34.626 7.49309 35.1308 6.27246 35.1307 4.99987C35.1307 3.72729 34.6259 2.50667 33.7271 1.60579V1.60579ZM13.533 32.103L11.4148 29.9847L15.245 26.1547C15.4698 25.9295 15.596 25.6244 15.5959 25.3063C15.5958 24.9881 15.4693 24.6831 15.2444 24.4581C15.0194 24.2332 14.7144 24.1067 14.3962 24.1066C14.0781 24.1065 13.773 24.2327 13.5478 24.4575L9.71765 28.2875L7.21481 25.7847L11.045 21.9547C11.2698 21.7295 11.396 21.4244 11.3959 21.1063C11.3958 20.7881 11.2693 20.4831 11.0444 20.2581C10.8194 20.0332 10.5144 19.9067 10.1962 19.9066C9.87811 19.9065 9.57296 20.0327 9.34784 20.2575L5.51765 24.0875L3.23007 21.8L9.93304 15.0971L20.2359 25.4L13.533 32.103Z" fill="black"/>
</svg>
