<svg width="24" height="24" viewBox="0 0 24 24" fill="none" xmlns="http://www.w3.org/2000/svg">
<path d="M18.8224 5.05215C17.0069 3.25457 14.5546 2.24736 11.9998 2.25C11.9665 2.25 11.9332 2.25015 11.8999 2.25046C9.60826 2.27434 7.39827 3.10458 5.65775 4.59546C3.91724 6.08633 2.75742 8.14259 2.38183 10.4033C2.00625 12.6641 2.43891 14.9849 3.60388 16.9585C4.76884 18.932 6.59168 20.4323 8.75248 21.1958C9.20496 21.3553 9.68909 21.404 10.1643 21.3377C10.6394 21.2715 11.0918 21.0922 11.4834 20.815C11.8749 20.5378 12.1943 20.1707 12.4147 19.7446C12.6351 19.3184 12.7501 18.8456 12.75 18.3658V18C12.7505 17.6023 12.9086 17.221 13.1898 16.9398C13.471 16.6586 13.8523 16.5005 14.25 16.5H18.5821C19.2626 16.5033 19.9237 16.2738 20.4558 15.8497C20.9879 15.4256 21.359 14.8323 21.5076 14.1682C21.6751 13.4295 21.7563 12.6739 21.7496 11.9164C21.7404 10.6354 21.4769 9.36905 20.9744 8.19072C20.4719 7.01239 19.7404 5.94557 18.8224 5.05215ZM8.34062 15.4118C8.14793 15.523 7.92657 15.5746 7.70454 15.5601C7.48251 15.5455 7.26978 15.4655 7.09326 15.33C6.91673 15.1946 6.78434 15.0098 6.71282 14.7991C6.64129 14.5884 6.63386 14.3612 6.69145 14.1463C6.74904 13.9314 6.86907 13.7384 7.03636 13.5917C7.20364 13.4449 7.41068 13.3511 7.63128 13.3221C7.85188 13.2931 8.07614 13.3301 8.2757 13.4285C8.47526 13.5269 8.64115 13.6823 8.7524 13.875C8.82627 14.0029 8.87421 14.1442 8.8935 14.2907C8.91278 14.4371 8.90302 14.586 8.86479 14.7287C8.82655 14.8714 8.76058 15.0051 8.67064 15.1223C8.5807 15.2395 8.46856 15.3379 8.34062 15.4118V15.4118ZM8.7524 10.125C8.64115 10.3177 8.47525 10.4731 8.27569 10.5715C8.07614 10.6699 7.85188 10.7069 7.63128 10.6779C7.41068 10.6488 7.20365 10.555 7.03636 10.4083C6.86908 10.2616 6.74905 10.0686 6.69147 9.85365C6.63388 9.63873 6.64131 9.41156 6.71284 9.20086C6.78436 8.99017 6.91675 8.80541 7.09327 8.66996C7.26979 8.53451 7.48252 8.45444 7.70454 8.43989C7.92657 8.42533 8.14792 8.47694 8.34062 8.58819C8.46857 8.66206 8.58071 8.76041 8.67065 8.87762C8.76059 8.99483 8.82656 9.1286 8.8648 9.27131C8.90304 9.41402 8.91279 9.56286 8.89351 9.70933C8.87422 9.85581 8.82627 9.99705 8.7524 10.125V10.125ZM12 8.25C11.7775 8.25 11.56 8.18402 11.375 8.0604C11.19 7.93678 11.0458 7.76108 10.9606 7.55552C10.8755 7.34995 10.8532 7.12375 10.8966 6.90552C10.94 6.68729 11.0472 6.48684 11.2045 6.3295C11.3618 6.17217 11.5623 6.06502 11.7805 6.02161C11.9987 5.97821 12.2249 6.00048 12.4305 6.08563C12.6361 6.17078 12.8118 6.31498 12.9354 6.49998C13.059 6.68499 13.125 6.90249 13.125 7.125C13.125 7.42337 13.0065 7.70951 12.7955 7.92049C12.5845 8.13147 12.2984 8.25 12 8.25ZM16.7844 10.5368C16.5917 10.648 16.3703 10.6996 16.1483 10.6851C15.9263 10.6705 15.7135 10.5905 15.537 10.455C15.3605 10.3196 15.2281 10.1348 15.1566 9.9241C15.085 9.7134 15.0776 9.48623 15.1352 9.2713C15.1928 9.05638 15.3128 8.86336 15.4801 8.71666C15.6474 8.56995 15.8544 8.47614 16.075 8.4471C16.2956 8.41806 16.5199 8.45509 16.7195 8.55351C16.919 8.65192 17.0849 8.8073 17.1962 9C17.27 9.12794 17.318 9.26918 17.3372 9.41565C17.3565 9.56212 17.3468 9.71096 17.3085 9.85366C17.2703 9.99636 17.2043 10.1301 17.1144 10.2473C17.0245 10.3645 16.9123 10.4629 16.7844 10.5368V10.5368Z" fill="black"/>
</svg>
