<svg width="20" height="20" viewBox="0 0 20 20" fill="none" xmlns="http://www.w3.org/2000/svg">
<path d="M17.8661 6.87524C17.8666 6.71103 17.8345 6.54835 17.7716 6.39663C17.7088 6.24492 17.6164 6.10717 17.5 5.99138L14.0089 2.50017C13.7742 2.26616 13.4563 2.13475 13.1249 2.13477C12.7936 2.13478 12.4757 2.26621 12.2411 2.50024L2.86606 11.8753C2.74487 11.9964 2.64997 12.1413 2.58728 12.3007C2.57921 12.3201 2.57213 12.34 2.56607 12.3601C2.52254 12.4886 2.50023 12.6234 2.5 12.7591V16.2502C2.50038 16.5816 2.6322 16.8994 2.86654 17.1337C3.10087 17.368 3.4186 17.4999 3.75 17.5002H7.24113C7.37827 17.5 7.51442 17.4772 7.64416 17.4328C7.66277 17.427 7.68118 17.4205 7.6993 17.413C7.85888 17.3503 8.0038 17.2554 8.125 17.1341L14.6614 10.5977L14.9329 11.6835L12.058 14.5583C12 14.6164 11.954 14.6853 11.9225 14.7611C11.8911 14.8369 11.875 14.9182 11.875 15.0003C11.875 15.0824 11.8912 15.1636 11.9226 15.2395C11.954 15.3153 12 15.3842 12.0581 15.4422C12.1161 15.5003 12.185 15.5463 12.2608 15.5777C12.3367 15.6091 12.4179 15.6253 12.5 15.6253C12.5821 15.6253 12.6634 15.6091 12.7392 15.5777C12.815 15.5463 12.8839 15.5002 12.942 15.4422L16.067 12.3172C16.1433 12.2409 16.1985 12.1461 16.2273 12.0421C16.2561 11.938 16.2575 11.8283 16.2313 11.7236L15.6921 9.56697L17.4999 7.75919C17.6164 7.64338 17.7087 7.50563 17.7716 7.3539C17.8344 7.20217 17.8666 7.03948 17.8661 6.87524V6.87524ZM15 8.4913L11.5089 5.00024L13.125 3.38411L16.6161 6.87524L15 8.4913Z" fill="black"/>
</svg>
