<svg width="20" height="20" viewBox="0 0 20 20" fill="none" xmlns="http://www.w3.org/2000/svg">
<path d="M9.99121 6.25C11.5445 6.25 12.8037 4.9908 12.8037 3.4375C12.8037 1.8842 11.5445 0.625 9.99121 0.625C8.43791 0.625 7.17871 1.8842 7.17871 3.4375C7.17871 4.9908 8.43791 6.25 9.99121 6.25Z" fill="black"/>
<path d="M16.537 10.8995L13.4643 6.94894C13.4484 6.92848 13.4313 6.90904 13.413 6.89072C13.2103 6.68696 12.9692 6.52541 12.7037 6.41543C12.4382 6.30545 12.1535 6.24923 11.8661 6.25001H8.11611C7.82871 6.24923 7.54402 6.30545 7.2785 6.41543C7.01298 6.52541 6.77191 6.68696 6.56925 6.89072C6.55093 6.90904 6.53378 6.92848 6.5179 6.94894L3.44516 10.8996C3.16568 11.1952 3.01251 11.5882 3.01822 11.9949C3.02393 12.4017 3.18807 12.7902 3.47574 13.0779C3.76342 13.3656 4.15194 13.5297 4.55873 13.5354C4.96552 13.5411 5.35848 13.3879 5.6541 13.1084L6.75563 12.2516L5.20626 17.1454C5.0453 17.5186 5.03614 17.9399 5.18074 18.3199C5.32534 18.6998 5.61231 19.0084 5.98073 19.1802C6.34915 19.352 6.77002 19.3734 7.154 19.24C7.53797 19.1065 7.85483 18.8287 8.0373 18.4654L9.99111 15.3905L11.9449 18.4654C12.1274 18.8287 12.4442 19.1065 12.8282 19.24C13.2122 19.3735 13.6331 19.352 14.0015 19.1802C14.3699 19.0084 14.6569 18.6998 14.8015 18.3199C14.9461 17.94 14.9369 17.5186 14.776 17.1454L13.2266 12.2516L14.3281 13.1084C14.6237 13.3879 15.0167 13.5411 15.4235 13.5354C15.8303 13.5297 16.2188 13.3656 16.5065 13.0779C16.7942 12.7902 16.9583 12.4017 16.964 11.9949C16.9697 11.5881 16.8165 11.1951 16.537 10.8995H16.537Z" fill="black"/>
</svg>
