<svg width="22" height="22" viewBox="0 0 22 22" fill="none" xmlns="http://www.w3.org/2000/svg">
<path d="M20.1746 8.63895C19.8209 8.27017 19.4553 7.88895 19.3171 7.55487C19.1901 7.24799 19.1824 6.73969 19.175 6.24805C19.1612 5.33316 19.1455 4.29623 18.4247 3.57535C17.7038 2.85446 16.6668 2.83881 15.752 2.82498C15.2603 2.81757 14.752 2.80988 14.4451 2.68289C14.1111 2.54474 13.7298 2.17908 13.3611 1.82541C12.7133 1.20413 11.979 0.5 11 0.5C10.021 0.5 9.28677 1.20413 8.63895 1.82541C8.27017 2.17908 7.88895 2.54474 7.55487 2.68289C7.24799 2.80988 6.73969 2.81757 6.24805 2.82498C5.33316 2.83881 4.29623 2.85446 3.57535 3.57535C2.85446 4.29623 2.83881 5.33316 2.82498 6.24805C2.81757 6.73969 2.80988 7.24798 2.68289 7.55487C2.54474 7.88885 2.17908 8.27017 1.82541 8.63895C1.20413 9.28668 0.5 10.021 0.5 11C0.5 11.979 1.20413 12.7132 1.82541 13.3611C2.17908 13.7298 2.54474 14.1111 2.68289 14.4451C2.80988 14.752 2.81757 15.2603 2.82498 15.752C2.83881 16.6668 2.85446 17.7038 3.57535 18.4247C4.29623 19.1455 5.33316 19.1612 6.24805 19.175C6.73969 19.1824 7.24798 19.1901 7.55487 19.3171C7.88885 19.4553 8.27017 19.8209 8.63895 20.1746C9.28668 20.7959 10.021 21.5 11 21.5C11.979 21.5 12.7132 20.7959 13.3611 20.1746C13.7298 19.8209 14.1111 19.4553 14.4451 19.3171C14.752 19.1901 15.2603 19.1824 15.752 19.175C16.6668 19.1612 17.7038 19.1455 18.4247 18.4247C19.1455 17.7038 19.1612 16.6668 19.175 15.752C19.1824 15.2603 19.1901 14.752 19.3171 14.4451C19.4553 14.1111 19.8209 13.7298 20.1746 13.3611C20.7959 12.7133 21.5 11.979 21.5 11C21.5 10.021 20.7959 9.28677 20.1746 8.63895ZM11 17C10.7775 17 10.56 16.934 10.375 16.8104C10.19 16.6868 10.0458 16.5111 9.96064 16.3055C9.87549 16.1 9.85321 15.8738 9.89662 15.6555C9.94002 15.4373 10.0472 15.2368 10.2045 15.0795C10.3618 14.9222 10.5623 14.815 10.7805 14.7716C10.9988 14.7282 11.225 14.7505 11.4305 14.8356C11.6361 14.9208 11.8118 15.065 11.9354 15.25C12.059 15.435 12.125 15.6525 12.125 15.875C12.125 16.1734 12.0065 16.4595 11.7955 16.6705C11.5845 16.8815 11.2984 17 11 17ZM11.7499 12.4165V12.5005C11.7499 12.6994 11.6709 12.8901 11.5302 13.0308C11.3896 13.1714 11.1988 13.2505 10.9999 13.2505C10.801 13.2505 10.6102 13.1714 10.4696 13.0308C10.3289 12.8901 10.2499 12.6994 10.2499 12.5005V11.7505C10.2499 11.5515 10.3289 11.3608 10.4696 11.2201C10.6102 11.0795 10.801 11.0005 10.9999 11.0005C11.3707 11.0005 11.7333 10.8905 12.0416 10.6845C12.3499 10.4784 12.5903 10.1856 12.7322 9.84299C12.8741 9.50038 12.9112 9.12338 12.8389 8.75966C12.7665 8.39595 12.588 8.06186 12.3257 7.79963C12.0635 7.53741 11.7294 7.35883 11.3657 7.28649C11.002 7.21414 10.625 7.25127 10.2824 7.39318C9.93976 7.5351 9.64693 7.77542 9.4409 8.08376C9.23487 8.39211 9.12491 8.75462 9.12491 9.12546C9.12491 9.32437 9.04589 9.51514 8.90524 9.65579C8.76458 9.79644 8.57382 9.87546 8.37491 9.87546C8.17599 9.87546 7.98523 9.79644 7.84458 9.65579C7.70392 9.51514 7.62491 9.32437 7.62491 9.12546C7.62499 8.49014 7.80439 7.86774 8.14248 7.32985C8.48057 6.79196 8.96362 6.36042 9.53607 6.08487C10.1085 5.80931 10.7471 5.70093 11.3784 5.77219C12.0098 5.84344 12.6081 6.09144 13.1048 6.48767C13.6014 6.88389 13.9761 7.41225 14.1858 8.01196C14.3955 8.61168 14.4316 9.25841 14.2901 9.87776C14.1486 10.4971 13.8351 11.0639 13.3857 11.5131C12.9363 11.9622 12.3693 12.2753 11.7499 12.4165V12.4165Z" fill="black"/>
</svg>
