<svg width="21" height="20" viewBox="0 0 21 20" fill="none" xmlns="http://www.w3.org/2000/svg">
<path d="M10.6665 0.25C8.73814 0.25 6.85308 0.821828 5.2497 1.89317C3.64632 2.96451 2.39664 4.48726 1.65868 6.26884C0.920728 8.05042 0.727646 10.0108 1.10385 11.9021C1.48006 13.7934 2.40866 15.5307 3.77222 16.8943C5.13578 18.2579 6.87306 19.1865 8.76438 19.5627C10.6557 19.9389 12.6161 19.7458 14.3977 19.0078C16.1793 18.2699 17.702 17.0202 18.7733 15.4168C19.8447 13.8134 20.4165 11.9284 20.4165 10C20.4136 7.41504 19.3854 4.93679 17.5576 3.10894C15.7297 1.28109 13.2515 0.252926 10.6665 0.25ZM12.6782 14.6365C12.0453 15.2694 11.1868 15.625 10.2917 15.625C9.39664 15.625 8.53821 15.2694 7.90528 14.6365C7.83563 14.5669 7.78038 14.4842 7.74269 14.3932C7.70499 14.3022 7.68559 14.2046 7.68559 14.1061C7.68559 14.0076 7.70499 13.9101 7.74269 13.8191C7.78038 13.7281 7.83563 13.6454 7.90528 13.5758C8.04594 13.4351 8.23672 13.3561 8.43564 13.3561C8.53414 13.3561 8.63167 13.3755 8.72267 13.4132C8.81367 13.4509 8.89636 13.5061 8.96601 13.5758C9.18404 13.7938 9.45247 13.9547 9.74754 14.0442C10.0426 14.1337 10.3552 14.149 10.6576 14.0889C10.96 14.0287 11.2429 13.8949 11.4813 13.6993C11.7196 13.5037 11.906 13.2523 12.024 12.9675C12.142 12.6826 12.1879 12.373 12.1577 12.0662C12.1275 11.7593 12.0221 11.4647 11.8508 11.2083C11.6795 10.9519 11.4476 10.7417 11.1756 10.5964C10.9037 10.451 10.6001 10.375 10.2918 10.375C10.1546 10.375 10.02 10.3374 9.90273 10.2662C9.78544 10.1951 9.68991 10.0931 9.62655 9.97141C9.56318 9.84973 9.53441 9.713 9.54335 9.5761C9.5523 9.4392 9.59862 9.30738 9.67728 9.19498L11.4761 6.62427H8.41623C8.21732 6.62427 8.02656 6.54525 7.8859 6.4046C7.74525 6.26395 7.66623 6.07318 7.66623 5.87427C7.66623 5.67536 7.74525 5.48459 7.8859 5.34394C8.02656 5.20329 8.21732 5.12427 8.41623 5.12427H12.9162C13.0534 5.12426 13.188 5.16189 13.3053 5.23305C13.4226 5.30421 13.5181 5.40618 13.5815 5.52786C13.6448 5.64954 13.6736 5.78627 13.6647 5.92317C13.6557 6.06007 13.6094 6.19189 13.5307 6.30429L11.5602 9.12045C12.0766 9.33008 12.533 9.66424 12.8888 10.0931C13.2447 10.522 13.4888 11.0323 13.5995 11.5785C13.7102 12.1246 13.684 12.6897 13.5232 13.2233C13.3625 13.7569 13.0722 14.2424 12.6782 14.6365Z" fill="#0055FF"/>
</svg>
