<svg width="21" height="20" viewBox="0 0 21 20" fill="none" xmlns="http://www.w3.org/2000/svg">
<path d="M10.3335 0.25C8.40513 0.25 6.52007 0.821828 4.91669 1.89317C3.31331 2.96451 2.06363 4.48726 1.32568 6.26884C0.587721 8.05042 0.394638 10.0108 0.770844 11.9021C1.14705 13.7934 2.07565 15.5307 3.43921 16.8943C4.80277 18.2579 6.54006 19.1865 8.43137 19.5627C10.3227 19.9389 12.2831 19.7458 14.0647 19.0078C15.8462 18.2699 17.369 17.0202 18.4403 15.4168C19.5117 13.8134 20.0835 11.9284 20.0835 10C20.0806 7.41504 19.0524 4.93679 17.2246 3.10894C15.3967 1.28109 12.9185 0.252926 10.3335 0.25ZM12.5835 13.7495C12.7824 13.7495 12.9732 13.8285 13.1138 13.9691C13.2545 14.1098 13.3335 14.3005 13.3335 14.4995C13.3335 14.6984 13.2545 14.8891 13.1138 15.0298C12.9732 15.1704 12.7824 15.2495 12.5835 15.2495H8.11326C8.10328 15.2498 8.0933 15.2501 8.08341 15.2501C7.94283 15.25 7.80511 15.2104 7.68593 15.1359C7.56675 15.0614 7.47091 14.9548 7.40933 14.8285C7.34774 14.7021 7.3229 14.561 7.33763 14.4212C7.35236 14.2814 7.40606 14.1485 7.49262 14.0378L11.5869 8.57444C11.7015 8.4002 11.7784 8.204 11.8129 7.99836C11.8473 7.79272 11.8385 7.58216 11.7871 7.38011C11.7356 7.17805 11.6426 6.98894 11.514 6.82483C11.3854 6.66073 11.224 6.52523 11.0401 6.42699C10.8562 6.32875 10.6538 6.26991 10.4459 6.25424C10.238 6.23857 10.0291 6.26641 9.8325 6.33598C9.63595 6.40554 9.45605 6.51532 9.30428 6.65829C9.15252 6.80126 9.03222 6.9743 8.95105 7.16636C8.91269 7.25707 8.85683 7.33934 8.78667 7.40846C8.71651 7.47759 8.63343 7.53222 8.54216 7.56923C8.45088 7.60625 8.35321 7.62492 8.25473 7.62419C8.15624 7.62346 8.05886 7.60334 7.96814 7.56497C7.87743 7.52661 7.79516 7.47075 7.72604 7.40059C7.65691 7.33043 7.60228 7.24735 7.56527 7.15608C7.52825 7.0648 7.50957 6.96713 7.51031 6.86865C7.51104 6.77016 7.53116 6.67278 7.56952 6.58206C7.73245 6.19665 7.9742 5.84957 8.27923 5.56314C8.58426 5.2767 8.94583 5.05723 9.34072 4.91883C9.73561 4.78043 10.1551 4.72615 10.5722 4.75949C10.9893 4.79283 11.3948 4.91305 11.7627 5.11242C12.1306 5.3118 12.4527 5.58592 12.7084 5.91717C12.964 6.24843 13.1476 6.6295 13.2472 7.0359C13.3468 7.4423 13.3604 7.86505 13.2869 8.277C13.2135 8.68894 13.0547 9.08096 12.8207 9.42789C12.8138 9.43805 12.8068 9.44803 12.7994 9.45783L9.58323 13.7495L12.5835 13.7495Z" fill="#0055FF"/>
</svg>
