<svg width="345" height="424" viewBox="0 0 345 424" fill="none" xmlns="http://www.w3.org/2000/svg">
<g clip-path="url(#clip0_240_2625)">
<path d="M308.617 123.875L223.064 74.4727C221.975 73.8411 220.739 73.5084 219.48 73.5084C218.221 73.5084 216.985 73.8411 215.896 74.4727L130.931 123.849C130.388 124.162 129.938 124.612 129.625 125.154C129.312 125.696 129.147 126.311 129.147 126.936C129.147 127.562 129.312 128.177 129.625 128.719C129.938 129.261 130.388 129.711 130.931 130.024L216.484 179.426C217.573 180.058 218.809 180.391 220.068 180.391C221.326 180.391 222.563 180.058 223.651 179.426L308.617 130.05C309.159 129.738 309.609 129.288 309.923 128.746C310.236 128.204 310.401 127.589 310.401 126.963C310.401 126.337 310.236 125.722 309.923 125.18C309.609 124.638 309.159 124.188 308.617 123.875V123.875Z" fill="#E6E6E6"/>
<path d="M180.842 196.333L95.2761 146.931C94.1873 146.299 92.951 145.967 91.6923 145.967C90.4336 145.967 89.1973 146.299 88.1086 146.931L3.15607 196.255C2.61405 196.57 2.16414 197.021 1.85139 197.564C1.53864 198.107 1.37402 198.723 1.37402 199.349C1.37402 199.976 1.53864 200.592 1.85139 201.135C2.16414 201.678 2.61405 202.129 3.15607 202.443L88.7091 251.833C89.7987 252.462 91.0347 252.793 92.2929 252.793C93.551 252.793 94.787 252.462 95.8766 251.833L180.829 202.456C181.357 202.139 181.794 201.691 182.097 201.155C182.401 200.619 182.561 200.014 182.563 199.399C182.564 198.783 182.406 198.177 182.105 197.64C181.803 197.103 181.369 196.653 180.842 196.333V196.333Z" fill="#E6E6E6"/>
<path d="M209.369 326.027L123.816 276.625C122.727 275.993 121.491 275.661 120.232 275.661C118.974 275.661 117.737 275.993 116.648 276.625L31.6829 326.001C31.1409 326.316 30.691 326.767 30.3782 327.31C30.0655 327.853 29.9009 328.469 29.9009 329.095C29.9009 329.722 30.0655 330.338 30.3782 330.881C30.691 331.424 31.1409 331.875 31.6829 332.189L117.249 381.592C118.338 382.223 119.574 382.556 120.833 382.556C122.091 382.556 123.328 382.223 124.417 381.592L209.369 332.215C209.914 331.904 210.368 331.453 210.683 330.91C210.998 330.367 211.164 329.75 211.164 329.121C211.164 328.493 210.998 327.876 210.683 327.333C210.368 326.789 209.914 326.339 209.369 326.027V326.027Z" fill="#E6E6E6"/>
<path d="M341.334 366.486L255.768 317.084C254.681 316.455 253.447 316.124 252.191 316.124C250.935 316.124 249.701 316.455 248.614 317.084L163.648 366.46C163.106 366.775 162.656 367.226 162.344 367.769C162.031 368.312 161.866 368.928 161.866 369.554C161.866 370.181 162.031 370.797 162.344 371.34C162.656 371.883 163.106 372.334 163.648 372.649L249.201 422.038C250.29 422.669 251.526 423.002 252.785 423.002C254.044 423.002 255.28 422.669 256.369 422.038L341.334 372.662C341.873 372.346 342.32 371.895 342.631 371.354C342.942 370.812 343.105 370.199 343.105 369.574C343.105 368.95 342.942 368.336 342.631 367.794C342.32 367.253 341.873 366.802 341.334 366.486Z" fill="#E6E6E6"/>
<path d="M304.622 50.2025L261.251 24.9922L253.209 20.3314L219.944 0.996094L134.73 50.2025L134.952 127.544L219.617 176.737L304.844 127.544L304.622 50.2025Z" fill="#37474F"/>
<path d="M134.73 50.2025L219.944 0.996094L304.622 50.2025L219.395 99.4089L134.73 50.2025Z" fill="#002266"/>
<path d="M219.395 99.4088L219.617 176.737L134.952 127.543L134.73 50.2024L219.395 99.4088Z" fill="#002266"/>
<path d="M304.622 50.2024L304.844 127.543L219.617 176.737L219.396 99.4088L304.622 50.2024Z" fill="#002266"/>
<path opacity="0.2" d="M134.73 50.2025L219.944 0.996094L304.622 50.2025L219.395 99.4089L134.73 50.2025Z" fill="white"/>
<path opacity="0.1" d="M304.622 50.2024L304.844 127.543L219.617 176.737L219.396 99.4088L304.622 50.2024Z" fill="black"/>
<path opacity="0.3" d="M253.209 20.3312L269.698 29.9139L184.485 79.1203L167.996 69.5376L253.209 20.3312Z" fill="white"/>
<path opacity="0.3" d="M167.996 99.4087L184.485 108.991V79.1204L167.996 69.5376V99.4087Z" fill="white"/>
<path opacity="0.3" d="M167.996 146.683L184.485 156.266V136.539L167.996 126.956V146.683Z" fill="white"/>
<path opacity="0.4" d="M237.529 82.9196L219.722 72.6449L202.044 82.9196L219.839 93.2074L237.529 82.9196Z" fill="white"/>
<path d="M91.8296 73.402L58.5641 92.7242L54.9477 94.8261L7.16433 122.595L6.94238 199.936L92.169 249.143L176.834 199.936L177.056 122.595L91.8296 73.402Z" fill="#37474F"/>
<path d="M177.056 122.595L91.8293 73.402L7.16406 122.595L92.3907 171.802L177.056 122.595Z" fill="#002266"/>
<path d="M92.3904 171.802L92.1685 249.143L176.834 199.937L177.056 122.595L92.3904 171.802Z" fill="#002266"/>
<path d="M7.16433 122.595L6.94238 199.937L92.169 249.143L92.391 171.802L7.16433 122.595Z" fill="#002266"/>
<path opacity="0.4" d="M177.056 122.595L91.8293 73.402L7.16406 122.595L92.3907 171.802L177.056 122.595Z" fill="white"/>
<path opacity="0.3" d="M7.16433 122.595L6.94238 199.937L92.169 249.143L92.391 171.802L7.16433 122.595Z" fill="white"/>
<path opacity="0.3" d="M58.5644 92.7242L42.0752 102.307L127.302 151.513L143.791 141.931L58.5644 92.7242Z" fill="white"/>
<path opacity="0.3" d="M143.79 171.802L127.301 181.385V151.513L143.79 141.931V171.802Z" fill="white"/>
<path opacity="0.3" d="M143.79 219.076L127.301 228.659V208.932L143.79 199.349V219.076Z" fill="white"/>
<path d="M125.121 72.919L99.5195 58.0356L91.6601 53.4662L70.0009 40.8806L14.5278 72.919L14.6714 123.248L69.792 155.286L125.265 123.261L125.121 72.919Z" fill="#0055FF"/>
<path d="M14.5278 72.919L70.0009 40.8806L125.121 72.919L69.6484 104.944L14.5278 72.919Z" fill="#0055FF"/>
<path d="M69.6484 104.944L69.792 155.287L14.6714 123.248L14.5278 72.9191L69.6484 104.944Z" fill="#0055FF"/>
<path d="M125.121 72.9191L125.265 123.261L69.7916 155.287L69.6479 104.944L125.121 72.9191Z" fill="#0055FF"/>
<path opacity="0.4" d="M14.5278 72.919L70.0009 40.8806L125.121 72.919L69.6484 104.944L14.5278 72.919Z" fill="white"/>
<path opacity="0.1" d="M69.6484 104.944L69.792 155.287L14.6714 123.248L14.5278 72.9191L69.6484 104.944Z" fill="white"/>
<path opacity="0.3" d="M125.121 72.9191L125.265 123.261L69.7916 155.287L69.6479 104.944L125.121 72.9191Z" fill="white"/>
<path opacity="0.3" d="M91.6596 53.4664L102.391 59.707L46.9182 91.7323L36.1865 85.4917L91.6596 53.4664Z" fill="white"/>
<path opacity="0.3" d="M36.1865 104.944L46.9182 111.185V91.7321L36.1865 85.4916V104.944Z" fill="white"/>
<path opacity="0.3" d="M36.1865 135.716L46.9182 141.957V129.11L36.1865 122.883V135.716Z" fill="white"/>
<path opacity="0.4" d="M116.792 72.5405L105.212 65.8561L93.6968 72.5405L105.29 79.238L116.792 72.5405Z" fill="white"/>
<path d="M205.374 252.354L161.076 226.609L153.974 222.483H153.961L120.709 203.148L35.4819 252.354L35.7039 329.683L120.369 378.889L205.596 329.683L205.374 252.354Z" fill="#0055FF"/>
<path d="M35.4819 252.354L120.709 203.148L205.374 252.354L120.147 301.561L35.4819 252.354Z" fill="#0055FF"/>
<path d="M120.147 301.561L120.369 378.889L35.7039 329.683L35.4819 252.355L120.147 301.561Z" fill="#0055FF"/>
<path d="M205.374 252.355L205.596 329.683L120.369 378.889L120.147 301.561L205.374 252.355Z" fill="#0055FF"/>
<path opacity="0.2" d="M35.4819 252.354L120.709 203.148L205.374 252.354L120.147 301.561L35.4819 252.354Z" fill="white"/>
<path opacity="0.1" d="M205.374 252.355L205.596 329.683L120.369 378.889L120.147 301.561L205.374 252.355Z" fill="black"/>
<path opacity="0.3" d="M153.974 222.484L170.45 232.066L85.2362 281.273L68.7471 271.69L153.974 222.484Z" fill="white"/>
<path opacity="0.3" d="M68.7471 301.561L85.2362 311.144V281.273L68.7471 271.69V301.561Z" fill="white"/>
<path opacity="0.3" d="M68.7471 348.835L85.2362 358.418V338.691L68.7471 329.108V348.835Z" fill="white"/>
<path opacity="0.4" d="M83.0304 250.905L65.2357 240.631L47.5454 250.905L65.3532 261.18L83.0304 250.905Z" fill="white"/>
<path d="M252.335 243.62L219.069 262.943L211.954 267.081L167.657 292.814L167.435 370.155L252.661 419.361L337.327 370.155L337.548 292.814L252.335 243.62Z" fill="#0055FF"/>
<path d="M337.548 292.814L252.335 243.62L167.656 292.814L252.883 342.02L337.548 292.814Z" fill="#0055FF"/>
<path d="M252.883 342.02L252.661 419.361L337.326 370.155L337.548 292.814L252.883 342.02Z" fill="#0055FF"/>
<path d="M167.657 292.814L167.435 370.155L252.661 419.361L252.883 342.02L167.657 292.814Z" fill="#0055FF"/>
<path opacity="0.2" d="M337.548 292.814L252.335 243.62L167.656 292.814L252.883 342.02L337.548 292.814Z" fill="white"/>
<path opacity="0.1" d="M167.657 292.814L167.435 370.155L252.661 419.361L252.883 342.02L167.657 292.814Z" fill="white"/>
<path opacity="0.3" d="M219.069 262.943L202.58 272.525L287.794 321.732L304.283 312.149L219.069 262.943Z" fill="white"/>
<path opacity="0.3" d="M304.283 342.02L287.793 351.603V321.732L304.283 312.149V342.02Z" fill="white"/>
<path opacity="0.3" d="M304.283 389.307L287.793 398.877V379.15L304.283 369.567V389.307Z" fill="white"/>
<path d="M252.361 191.659L225.976 207L217.92 211.674L185.177 230.696L185.007 292.057L252.635 331.106L319.806 292.057L319.989 230.696L252.361 191.659Z" fill="#37474F"/>
<path d="M319.988 230.696L252.361 191.659L185.177 230.696L252.805 269.745L319.988 230.696Z" fill="#002266"/>
<path d="M252.804 269.745L252.635 331.106L319.806 292.057L319.988 230.695L252.804 269.745Z" fill="#002266"/>
<path d="M185.177 230.695L185.007 292.057L252.635 331.106L252.805 269.745L185.177 230.695Z" fill="#002266"/>
<path opacity="0.4" d="M319.988 230.696L252.361 191.659L185.177 230.696L252.805 269.745L319.988 230.696Z" fill="white"/>
<path opacity="0.1" d="M252.804 269.745L252.635 331.106L319.806 292.057L319.988 230.695L252.804 269.745Z" fill="white"/>
<path opacity="0.3" d="M185.177 230.695L185.007 292.057L252.635 331.106L252.805 269.745L185.177 230.695Z" fill="white"/>
<path opacity="0.3" d="M225.975 207L212.88 214.598L280.508 253.634L293.59 246.036L225.975 207Z" fill="white"/>
<path opacity="0.3" d="M293.59 269.745L280.509 277.343V253.634L293.59 246.036V269.745Z" fill="white"/>
<path opacity="0.3" d="M293.59 307.253L280.509 314.852V299.198L293.59 291.6V307.253Z" fill="white"/>
<path opacity="0.4" d="M266.657 256.885L252.544 248.725L238.509 256.885L252.635 265.031L266.657 256.885Z" fill="white"/>
</g>
<defs>
<clipPath id="clip0_240_2625">
<rect width="343.361" height="423" fill="white" transform="translate(0.819336 0.5)"/>
</clipPath>
</defs>
</svg>
