<svg width="176" height="95" viewBox="0 0 176 95" fill="none" xmlns="http://www.w3.org/2000/svg">
<rect width="176" height="94.2334" rx="8" fill="#E6EEFF"/>
<path d="M15.3779 12H12V58.5116H15.3779V12Z" fill="#0055FF"/>
<path d="M18.7632 12H17.0742V58.5116H18.7632V12Z" fill="#0055FF"/>
<path d="M23.8335 12H22.1445V58.5116H23.8335V12Z" fill="#0055FF"/>
<path d="M33.9541 12H30.5762V58.5116H33.9541V12Z" fill="#0055FF"/>
<path d="M40.7173 12H35.6504V58.5116H40.7173V12Z" fill="#0055FF"/>
<path d="M47.4624 12H45.7734V58.5116H47.4624V12Z" fill="#0055FF"/>
<path d="M52.5303 12H49.1523V58.5116H52.5303V12Z" fill="#0055FF"/>
<path d="M59.2944 12H57.6055V58.5116H59.2944V12Z" fill="#0055FF"/>
<path d="M66.0474 12H60.9805V58.5116H66.0474V12Z" fill="#0055FF"/>
<path d="M69.4175 12H67.7285V58.5116H69.4175V12Z" fill="#0055FF"/>
<path d="M72.7964 12H71.1074V58.5116H72.7964V12Z" fill="#0055FF"/>
<path d="M81.2471 12H77.8691V58.5116H81.2471V12Z" fill="#0055FF"/>
<path d="M88.0073 12H86.3184V58.5116H88.0073V12Z" fill="#0055FF"/>
<path d="M94.7505 12H89.6836V58.5116H94.7505V12Z" fill="#0055FF"/>
<path d="M99.8233 12H96.4453V58.5116H99.8233V12Z" fill="#0055FF"/>
<path d="M106.587 12H104.898V58.5116H106.587V12Z" fill="#0055FF"/>
<path d="M109.966 12H108.277V58.5116H109.966V12Z" fill="#0055FF"/>
<path d="M118.396 12H115.018V58.5116H118.396V12Z" fill="#0055FF"/>
<path d="M125.169 12H123.48V58.5116H125.169V12Z" fill="#0055FF"/>
<path d="M130.234 12H128.545V58.5116H130.234V12Z" fill="#0055FF"/>
<path d="M140.367 12H133.611V58.5116H140.367V12Z" fill="#0055FF"/>
<path d="M145.431 12H142.053V58.5116H145.431V12Z" fill="#0055FF"/>
<path d="M155.567 12H150.5V58.5116H155.567V12Z" fill="#0055FF"/>
<path d="M158.943 12H157.254V58.5116H158.943V12Z" fill="#0055FF"/>
<path d="M164.001 12H160.623V58.5116H164.001V12Z" fill="#0055FF"/>
<path d="M68.2824 77.2334V68.8754H65.4264V67.4334H72.9444V68.8754H70.0744V77.2334H68.2824ZM74.2719 77.2334V67.4334H77.8699C78.6539 67.4334 79.2979 67.5687 79.8019 67.8394C80.3152 68.1007 80.6979 68.4601 80.9499 68.9174C81.2019 69.3654 81.3279 69.8647 81.3279 70.4154C81.3279 71.0127 81.1692 71.5587 80.8519 72.0534C80.5439 72.5481 80.0586 72.9074 79.3959 73.1314L81.4259 77.2334H79.3679L77.5479 73.3694H76.0639V77.2334H74.2719ZM76.0639 72.0534H77.7579C78.3552 72.0534 78.7939 71.9087 79.0739 71.6194C79.3539 71.3301 79.4939 70.9474 79.4939 70.4714C79.4939 70.0047 79.3539 69.6314 79.0739 69.3514C78.8032 69.0714 78.3599 68.9314 77.7439 68.9314H76.0639V72.0534ZM82.3645 77.2334L85.9485 67.4334H87.9645L91.5485 77.2334H89.6445L88.8605 74.9654H85.0385L84.2405 77.2334H82.3645ZM85.5285 73.5654H88.3705L86.9425 69.4914L85.5285 73.5654ZM92.811 77.2334V67.4334H94.939L98.061 73.6494L101.141 67.4334H103.269V77.2334H101.477V70.4714L98.747 75.8334H97.333L94.603 70.4714V77.2334H92.811ZM104.54 77.2334L108.124 67.4334H110.14L113.724 77.2334H111.82L111.036 74.9654H107.214L106.416 77.2334H104.54ZM107.704 73.5654H110.546L109.118 69.4914L107.704 73.5654Z" fill="#0055FF"/>
</svg>
