<?xml version="1.0" encoding="UTF-8"?>
<svg xmlns="http://www.w3.org/2000/svg" xmlns:xlink="http://www.w3.org/1999/xlink" viewBox="0 0 24 24" width="24px" height="24px">
<g id="surface53163807">
<path style="fill-rule:nonzero;fill:rgb(0%,0%,0%);fill-opacity:1;stroke-width:10;stroke-linecap:butt;stroke-linejoin:round;stroke:rgb(0%,0%,0%);stroke-opacity:1;stroke-miterlimit:10;" d="M 154.222222 109.222222 L 203.388889 109.333333 C 222.555556 109.333333 237.722222 126.111111 235.111111 145.111111 C 229.5 186.5 201.722222 234.666667 133.833333 234.666667 C 70.944444 234.666667 20.722222 180.277778 27.777778 115.944444 C 33.166667 67.055556 72.888889 27.333333 121.777778 22 C 143.777778 19.555556 164.611111 23.888889 182.5 33.055556 C 195.277778 39.611111 198 56.777778 187.833333 66.944444 C 181.388889 73.388889 171.5 75.111111 163.444444 70.888889 C 154.555556 66.277778 144.5 63.666667 133.833333 63.666667 C 96.222222 63.666667 66.111111 95.888889 69.777778 134.277778 C 73.277778 171.333333 109.833333 198 146.444444 191.222222 C 169.5 186.944444 185.444444 171 191.888889 150 L 154.166667 150 C 142.944444 150 133.833333 140.833333 133.833333 129.611111 C 133.833333 118.333333 142.944444 109.222222 154.222222 109.222222 Z M 154.222222 109.222222 " transform="matrix(0.0703125,0,0,0.0703125,3,3)"/>
<path style=" stroke:none;fill-rule:nonzero;fill:rgb(100%,100%,100%);fill-opacity:1;" d="M 12.410156 12.113281 C 12.410156 12.902344 13.050781 13.546875 13.839844 13.546875 L 16.492188 13.546875 C 16.039062 15.023438 14.917969 16.144531 13.296875 16.445312 C 10.722656 16.921875 8.152344 15.046875 7.90625 12.441406 C 7.648438 9.742188 9.765625 7.476562 12.410156 7.476562 C 13.160156 7.476562 13.867188 7.660156 14.492188 7.984375 C 15.058594 8.28125 15.753906 8.160156 16.207031 7.707031 C 16.921875 6.992188 16.730469 5.785156 15.832031 5.324219 C 14.574219 4.679688 13.109375 4.375 11.5625 4.546875 C 8.125 4.921875 5.332031 7.714844 4.953125 11.152344 C 4.457031 15.675781 7.988281 19.5 12.410156 19.5 C 17.183594 19.5 19.136719 16.113281 19.53125 13.203125 C 19.714844 11.867188 18.648438 10.6875 17.300781 10.6875 L 13.84375 10.679688 C 13.050781 10.679688 12.410156 11.320312 12.410156 12.113281 Z M 12.410156 12.113281 "/>
</g>
</svg>
