<svg width="423" height="406" viewBox="0 0 423 406" fill="none" xmlns="http://www.w3.org/2000/svg">
<g clip-path="url(#clip0_240_1754)">
<path d="M76.7683 218.55C2.55526 261.369 2.56408 330.788 76.7683 373.617C150.972 416.445 271.293 416.436 345.506 373.617C419.719 330.797 419.71 261.378 345.506 218.55C271.302 175.721 150.981 175.73 76.7683 218.55Z" fill="#FAFAFA"/>
<path d="M28.0688 78.3109L29.832 79.3594L66.0658 58.3637L64.2938 57.3064L28.0688 78.3109Z" fill="#FAFAFA"/>
<path d="M64.294 57.3066L29.8322 77.2802L29.7617 41.1743L64.2234 21.2095L64.294 57.3066Z" fill="white"/>
<path d="M69.319 14.3899L26.4204 39.2535L26.5086 85.1392L69.4072 60.2756L69.319 14.3899ZM66.0659 58.3637L29.8322 79.3594L29.7617 41.1742L65.9866 20.1785L66.0659 58.3637Z" fill="#F0F0F0"/>
<path d="M66.0657 58.3637L64.2937 57.3064L64.2231 21.2093L65.9863 20.1697L66.0657 58.3637Z" fill="#E0E0E0"/>
<path d="M69.3191 14.3988L67.5207 13.3679L24.6221 38.2315L26.4205 39.2535L69.3191 14.3988Z" fill="#FAFAFA"/>
<path d="M24.6221 38.2314L26.4205 39.2535L26.5087 85.1392L24.7102 84.1171L24.6221 38.2314Z" fill="#E0E0E0"/>
<path d="M62.9448 56.2317L31.1719 74.6547L31.1543 65.474L39.0711 47.1039L44.0345 51.6854L42.2713 59.3771L53.2031 35.8792L62.9271 47.0598L62.9448 56.2317Z" fill="#F0F0F0"/>
<path d="M43.7083 38.2317C43.0255 38.681 42.4577 39.2841 42.0504 39.9926C41.6431 40.7011 41.4078 41.4951 41.3633 42.311C41.3633 43.8088 42.4212 44.4167 43.7172 43.659C44.4068 43.2127 44.9795 42.6078 45.3875 41.8951C45.7954 41.1824 46.0268 40.3824 46.0622 39.5621C46.0622 38.0907 45.0043 37.4828 43.7083 38.2317Z" fill="#F0F0F0"/>
<path d="M28.0688 141.025L29.832 142.073L66.0658 121.078L64.2938 120.029L28.0688 141.025Z" fill="#FAFAFA"/>
<path d="M64.294 120.029L29.8322 140.003L29.7617 103.888L64.2234 83.9324L64.294 120.029Z" fill="white"/>
<path d="M69.319 77.1128L26.4204 101.976L26.5086 147.862L69.4072 122.998L69.319 77.1128ZM66.0659 121.078L29.8322 142.082L29.7617 103.879L65.9866 82.8837L66.0659 121.078Z" fill="#F0F0F0"/>
<path d="M66.0657 121.078L64.2937 120.029L64.2231 83.9322L65.9863 82.8926L66.0657 121.078Z" fill="#E0E0E0"/>
<path d="M69.3191 77.1129L67.5207 76.0908L24.6221 100.954L26.4205 101.976L69.3191 77.1129Z" fill="#FAFAFA"/>
<path d="M24.6221 100.954L26.4205 101.976L26.5087 147.853L24.7102 146.831L24.6221 100.954Z" fill="#E0E0E0"/>
<path d="M62.9448 118.955L31.1719 137.369L31.1543 128.188L39.0711 109.818L44.0345 114.399L42.2713 122.1L53.2031 98.6021L62.9271 109.774L62.9448 118.955Z" fill="#F0F0F0"/>
<path d="M43.7083 100.954C43.0252 101.401 42.457 102.003 42.0496 102.71C41.6422 103.417 41.4071 104.21 41.3633 105.025C41.3633 106.523 42.4212 107.131 43.7172 106.382C44.4024 105.935 44.9722 105.333 45.3797 104.624C45.7873 103.915 46.0212 103.119 46.0622 102.302C46.0622 100.805 45.0043 100.197 43.7083 100.954Z" fill="#F0F0F0"/>
<path d="M409.704 207.272L407.439 208.62L332.6 165.431L334.865 164.074L409.704 207.272Z" fill="#FAFAFA"/>
<path d="M334.865 164.074L407.438 205.959V54.4872L334.865 12.6279V164.074Z" fill="white"/>
<path d="M328.315 167.897L411.714 216.021V52.0201L328.315 3.8877V167.897ZM332.6 11.2974L407.438 54.4695V208.62L332.6 165.448V11.2974Z" fill="#F5F5F5"/>
<path d="M332.6 165.43L334.865 164.074V12.6278L332.6 11.2974V165.43Z" fill="#E0E0E0"/>
<path d="M407.439 152.955V155.615L332.6 112.417L334.865 111.069L407.439 152.955Z" fill="#FAFAFA"/>
<path d="M407.439 99.9147V102.576L332.6 59.3859L334.865 58.0291L407.439 99.9147Z" fill="#FAFAFA"/>
<path d="M328.315 3.89654L330.616 2.57495L414.015 50.6986L411.714 52.0201L328.315 3.89654Z" fill="#FAFAFA"/>
<path d="M414.015 50.6985L411.714 52.0201V216.021L414.015 214.708V50.6985Z" fill="#E0E0E0"/>
<path d="M374.458 35.4561L372.157 34.1345V188.267L374.458 186.955V35.4561Z" fill="#E0E0E0"/>
<path d="M367.881 31.6765L372.157 34.1347V188.268L367.881 185.792V31.6765Z" fill="#F5F5F5"/>
<path d="M328.315 56.9189V61.8441L411.714 109.976V105.043L328.315 56.9189Z" fill="#F5F5F5"/>
<path d="M328.315 109.941V114.866L411.714 162.999V158.065L328.315 109.941Z" fill="#F5F5F5"/>
<path d="M372.157 82.223L374.458 80.8926L407.438 99.9147V102.576L372.157 82.223Z" fill="#FAFAFA"/>
<path d="M372.157 135.228L374.458 133.897L407.438 152.928V155.589L372.157 135.228Z" fill="#FAFAFA"/>
<path d="M27.2397 262.902L79.8888 293.29L135.5 261.246L82.71 230.938L27.2397 262.902Z" fill="#E0E0E0"/>
<path d="M0.457031 299.405L40.3406 322.427L82.4722 298.145L42.4829 275.185L0.457031 299.405Z" fill="#E0E0E0"/>
<path d="M138.472 367.916C176.152 367.916 206.699 350.292 206.699 328.55C206.699 306.809 176.152 289.185 138.472 289.185C100.791 289.185 70.2446 306.809 70.2446 328.55C70.2446 350.292 100.791 367.916 138.472 367.916Z" fill="#E0E0E0"/>
<path d="M261.763 379.114C290.743 379.114 314.236 365.561 314.236 348.841C314.236 332.122 290.743 318.568 261.763 318.568C232.783 318.568 209.29 332.122 209.29 348.841C209.29 365.561 232.783 379.114 261.763 379.114Z" fill="#E0E0E0"/>
<path d="M389.948 299.801L340.225 328.498L287.691 298.233L337.554 269.607L389.948 299.801Z" fill="#E0E0E0"/>
<path d="M422.284 329.634L384.614 351.379L344.827 328.445L382.595 306.762L422.284 329.634Z" fill="#E0E0E0"/>
<path d="M296.542 250.797L337.581 227.114L381.123 252.303L340.093 275.977L296.542 250.797Z" fill="#F5F5F5"/>
<path d="M340.093 323.898L296.542 298.709V250.797L340.093 275.977V323.898Z" fill="#EBEBEB"/>
<path d="M340.093 323.898L381.123 300.215V252.303L340.093 275.977V323.898Z" fill="#E0E0E0"/>
<path d="M364.011 262.171L320.434 236.999L313.602 240.955L357.188 266.118L364.011 262.171Z" fill="#FAFAFA"/>
<path d="M364.011 262.171V270.065L363.068 269.51L361.789 271.352L360.996 270.673L359.603 272.612L358.713 271.898L357.188 274.013V266.118L364.011 262.171Z" fill="#E6E6E6"/>
<path d="M303.075 223.026L337.774 203.008L374.59 224.303L339.899 244.33L303.075 223.026Z" fill="#F5F5F5"/>
<path d="M339.899 271.017L303.075 249.722V223.026L339.899 244.33V271.017Z" fill="#EBEBEB"/>
<path d="M339.899 271.017L374.59 250.999V224.303L339.899 244.33V271.017Z" fill="#E0E0E0"/>
<path d="M360.123 232.647L323.273 211.369L317.498 214.708L354.358 235.986L360.123 232.647Z" fill="#FAFAFA"/>
<path d="M360.123 232.647V239.325L359.321 238.849L358.245 240.409L357.575 239.836L356.394 241.484L355.636 240.876L354.357 242.656V235.986L360.123 232.647Z" fill="#E6E6E6"/>
<path d="M353.855 284.409L383.045 267.572L414.016 285.484L384.826 302.33L353.855 284.409Z" fill="#F5F5F5"/>
<path d="M384.826 346.815L353.855 328.903V284.409L384.826 302.33V346.815Z" fill="#EBEBEB"/>
<path d="M384.826 346.815L414.016 329.978V285.484L384.826 302.33V346.815Z" fill="#E0E0E0"/>
<path d="M401.85 292.506L370.844 274.603L365.986 277.413L396.992 295.308L401.85 292.506Z" fill="#FAFAFA"/>
<path d="M401.85 292.506V298.118L401.171 297.722L400.263 299.035L399.699 298.55L398.711 299.933L398.068 299.422L396.992 300.92V295.308L401.85 292.506Z" fill="#E6E6E6"/>
<path d="M126.13 211.017L82.6843 185.95L36.5767 212.62L80.0219 237.686L126.13 211.017Z" fill="#F5F5F5"/>
<path d="M80.0308 288.418L126.13 261.748V211.017L80.0308 237.686V288.418Z" fill="#EBEBEB"/>
<path d="M80.0307 288.418L36.5767 263.352V212.62L80.0219 237.686L80.0307 288.418Z" fill="#E0E0E0"/>
<path d="M54.6938 223.061L100.837 196.417L108.075 200.603L61.923 227.237L54.6938 223.061Z" fill="#FAFAFA"/>
<path d="M54.6938 223.061V231.422L55.6989 230.832L57.0477 232.788L57.8852 232.065L59.3663 234.118L60.3184 233.369L61.923 235.598V227.237L54.6938 223.061Z" fill="#E6E6E6"/>
<path d="M119.218 181.624L82.4814 160.426L43.4971 182.972L80.2333 204.171L119.218 181.624Z" fill="#F5F5F5"/>
<path d="M80.2329 232.435L119.217 209.88V181.624L80.2329 204.171V232.435Z" fill="#EBEBEB"/>
<path d="M80.2333 232.435L43.4971 211.237V182.972L80.2333 204.171V232.435Z" fill="#E0E0E0"/>
<path d="M58.8105 191.81L97.8301 169.272L103.948 172.814L64.92 195.343L58.8105 191.81Z" fill="#FAFAFA"/>
<path d="M58.8105 191.81V198.876L59.6569 198.373L60.803 200.03L61.5082 199.422L62.7601 201.158L63.5624 200.523L64.92 202.409V195.343L58.8105 191.81Z" fill="#E6E6E6"/>
<path d="M72.907 266.603L42.0069 248.77L9.21143 267.739L40.1203 285.572L72.907 266.603Z" fill="#F5F5F5"/>
<path d="M40.1206 317.599L72.9073 298.629V266.603L40.1206 285.572V317.599Z" fill="#EBEBEB"/>
<path d="M40.1203 317.599L9.21143 299.766V267.739L40.1203 285.572V317.599Z" fill="#E0E0E0"/>
<path d="M22.1006 275.167L54.9225 256.215L60.0622 259.193L27.2403 278.136L22.1006 275.167Z" fill="#FAFAFA"/>
<path d="M22.1006 275.167V281.114L22.8147 280.691L23.7756 282.083L24.3751 281.572L25.4242 283.035L26.0942 282.497L27.2403 284.083V278.136L22.1006 275.167Z" fill="#E6E6E6"/>
<path opacity="0.2" d="M312.781 164.232C321.289 164.083 329.796 163.977 338.295 163.783L351.06 163.483C355.31 163.351 359.559 163.254 363.817 163.096V162.911C359.559 162.752 355.31 162.655 351.06 162.523L338.295 162.223C329.796 162.03 321.289 161.924 312.781 161.774C304.274 161.624 295.775 161.519 287.268 161.475C284.623 161.475 281.917 161.475 279.245 161.475L287.18 160.082C295.555 158.558 303.93 156.955 312.261 155.36C320.592 153.765 328.967 152.153 337.307 150.488L349.817 147.977C353.987 147.096 358.157 146.276 362.318 145.334V145.149C358.104 145.73 353.899 146.373 349.685 146.981L337.069 148.902C328.659 150.188 320.266 151.545 311.864 152.884C303.463 154.223 295.07 155.589 286.686 157.016C284.041 157.483 281.396 157.897 278.752 158.426L286.333 155.668C294.312 152.726 302.255 149.695 310.207 146.673C318.159 143.651 326.076 140.62 334.01 137.527L345.833 132.955C349.791 131.378 353.767 129.836 357.69 128.232L357.628 128.056C353.573 129.36 349.544 130.699 345.506 132.047L333.411 136.126C325.353 138.849 317.33 141.66 309.281 144.426C301.232 147.193 293.21 149.994 285.205 152.867L277.588 155.651C279.939 154.306 282.29 152.955 284.641 151.598C291.984 147.316 299.284 142.955 306.593 138.593C313.901 134.232 321.192 129.871 328.465 125.457L339.362 118.822C342.976 116.584 346.608 114.373 350.214 112.109L350.117 111.941C346.361 113.932 342.624 115.968 338.877 117.985L327.68 124.1C320.213 128.179 312.799 132.338 305.358 136.435C297.918 140.532 290.495 144.708 283.116 148.928C280.765 150.279 278.414 151.63 276.063 152.981C278.143 151.254 280.218 149.522 282.287 147.783C288.775 142.285 295.202 136.717 301.638 131.166C308.074 125.615 314.5 120.038 320.892 114.426L330.475 106.003C333.649 103.175 336.84 100.364 339.996 97.5095L339.873 97.3685C336.514 100.012 333.19 102.655 329.849 105.298L319.887 113.228C313.249 118.514 306.663 123.924 300.051 129.272C293.439 134.62 286.827 140.003 280.312 145.439C278.243 147.201 276.186 148.94 274.141 150.655C275.904 148.593 277.644 146.538 279.36 144.488C284.799 137.95 290.16 131.351 295.537 124.761C300.915 118.17 306.275 111.545 311.591 104.937L319.526 94.9808C322.17 91.6416 324.815 88.32 327.46 84.9632L327.31 84.8398C324.454 87.994 321.641 91.1835 318.811 94.3553L310.357 103.88C304.741 110.267 299.196 116.708 293.607 123.122C288.017 129.536 282.481 135.977 276.98 142.461C275.216 144.529 273.483 146.602 271.778 148.682C273.136 146.332 274.491 143.983 275.842 141.633C280.056 134.259 284.191 126.831 288.335 119.404C292.478 111.977 296.622 104.558 300.677 97.0954L306.795 85.9059C308.814 82.1614 310.851 78.4345 312.843 74.6724L312.676 74.5755C310.41 78.179 308.197 81.809 305.958 85.4213L299.319 96.3113C294.911 103.58 290.556 110.884 286.175 118.17C281.793 125.457 277.447 132.77 273.162 140.109C271.805 142.458 270.453 144.808 269.107 147.157C270.041 144.62 270.97 142.082 271.893 139.545C274.767 131.545 277.544 123.51 280.339 115.483C283.133 107.457 285.919 99.4214 288.643 91.3685L292.725 79.2803C294.056 75.2451 295.414 71.2186 296.727 67.1657L296.542 67.104C294.947 71.0424 293.395 75.0336 291.817 78.9543L287.171 90.831C284.076 98.7606 281.07 106.69 278.02 114.62C274.97 122.549 271.963 130.479 269.019 138.479C268.093 141.008 267.176 143.527 266.268 146.056C266.744 143.413 267.203 140.77 267.67 138.126C269.098 129.748 270.447 121.386 271.805 112.963C273.162 104.54 274.502 96.1791 275.789 87.7738L277.711 75.1658C278.32 70.9543 278.963 66.7516 279.545 62.5401H279.36C278.478 66.6988 277.597 70.8662 276.715 75.0336L274.203 87.5359C272.536 95.8707 270.958 104.223 269.327 112.567C267.696 120.91 266.127 129.307 264.611 137.633C264.144 140.276 263.667 142.919 263.218 145.563C263.218 142.919 263.218 140.206 263.218 137.536C263.218 129.034 263.042 120.532 262.918 112.038C262.795 103.545 262.662 95.0337 262.468 86.5403L262.275 73.7561C262.142 69.5005 262.045 65.2538 261.887 60.9983H261.693C261.534 65.2538 261.437 69.5005 261.305 73.7561L261.005 86.505C260.811 94.9985 260.705 103.501 260.555 112.003C260.406 120.505 260.3 128.999 260.256 137.501C260.256 140.144 260.256 142.849 260.256 145.527C259.806 142.884 259.33 140.241 258.872 137.598C257.346 129.228 255.742 120.858 254.146 112.532C252.551 104.206 250.937 95.8355 249.271 87.5006L246.758 74.9984C245.877 70.8309 245.057 66.6635 244.158 62.5049H243.973C244.554 66.7164 245.198 70.919 245.806 75.1305L247.728 87.7385C249.015 96.1438 250.373 104.532 251.713 112.928C253.053 121.325 254.419 129.668 255.848 138.091C256.315 140.734 256.773 143.378 257.249 146.021C256.368 143.492 255.425 140.972 254.499 138.444C251.554 130.47 248.522 122.532 245.498 114.584C242.474 106.637 239.441 98.7254 236.347 90.7958L231.701 78.9191C230.123 74.9631 228.58 70.9895 226.975 67.0688L226.799 67.1305C228.104 71.1834 229.444 75.2098 230.793 79.2451L234.874 91.3332C237.599 99.3862 240.411 107.404 243.179 115.448C245.947 123.492 248.751 131.51 251.625 139.51C252.553 142.047 253.482 144.585 254.411 147.122C253.059 144.773 251.707 142.423 250.355 140.074C246.071 132.734 241.698 125.439 237.343 118.135C232.988 110.831 228.615 103.545 224.198 96.276L217.56 85.3861C215.321 81.7737 213.108 78.1438 210.842 74.5402L210.675 74.6371C212.667 78.3993 214.703 82.1262 216.722 85.8707L222.841 97.0601C226.922 104.523 231.084 111.932 235.183 119.369C239.282 126.805 243.461 134.223 247.684 141.598C249.036 143.947 250.388 146.297 251.739 148.646C250.011 146.567 248.278 144.494 246.538 142.426C241.037 135.941 235.465 129.518 229.911 123.087C224.357 116.655 218.776 110.232 213.161 103.844L204.733 94.2672C201.903 91.0954 199.09 87.9059 196.234 84.7517L196.093 84.8751C198.738 88.2319 201.382 91.5535 204.027 94.8927L211.962 104.849C217.251 111.483 222.664 118.065 228.016 124.673C233.367 131.281 238.753 137.889 244.193 144.4C245.956 146.467 247.696 148.523 249.412 150.567C247.349 148.805 245.292 147.066 243.241 145.351C236.699 139.915 230.096 134.558 223.502 129.184C216.907 123.809 210.278 118.452 203.666 113.14L193.704 105.21C190.363 102.567 187.039 99.9236 183.68 97.2804L183.557 97.4214C186.713 100.276 189.904 103.087 193.078 105.915L202.617 114.452C209.008 120.065 215.453 125.607 221.871 131.192C228.289 136.778 234.733 142.311 241.222 147.809C243.297 149.571 245.371 151.304 247.446 153.008C245.095 151.651 242.744 150.3 240.393 148.955C233.014 144.734 225.582 140.602 218.151 136.461C210.719 132.32 203.296 128.179 195.828 124.126L184.694 117.977C180.947 115.959 177.209 113.924 173.453 111.932L173.356 112.1C176.962 114.364 180.594 116.576 184.209 118.814L195.106 125.448C202.379 129.853 209.687 134.206 216.978 138.585C224.269 142.963 231.586 147.307 238.93 151.589C241.281 152.946 243.632 154.297 245.983 155.642L238.366 152.858C230.361 149.986 222.32 147.21 214.289 144.417C206.258 141.624 198.218 138.84 190.16 136.118L178.064 132.038C174.026 130.708 169.998 129.351 165.942 128.047L165.881 128.223C169.821 129.827 173.815 131.369 177.738 132.946L189.622 137.589C197.556 140.682 205.491 143.686 213.425 146.734C221.36 149.783 229.294 152.787 237.299 155.73L244.881 158.488C242.236 158.003 239.591 157.545 236.946 157.078C228.562 155.651 220.196 154.303 211.768 152.946C203.34 151.589 194.973 150.25 186.563 148.964L173.894 147.052C169.68 146.444 165.475 145.8 161.261 145.219V145.404C165.422 146.285 169.592 147.166 173.762 148.047L186.272 150.558C194.612 152.223 202.969 153.801 211.318 155.43C219.667 157.06 228.068 158.629 236.4 160.153L244.334 161.545C241.689 161.545 238.983 161.545 236.311 161.545C227.804 161.545 219.297 161.721 210.798 161.845C202.299 161.968 193.783 162.1 185.284 162.294L172.528 162.594C168.27 162.726 164.02 162.823 159.762 162.981V163.175C164.02 163.334 168.27 163.431 172.528 163.563L185.284 163.862C193.783 164.056 202.291 164.162 210.798 164.312C219.305 164.461 227.804 164.567 236.311 164.611H244.334C241.689 165.061 239.044 165.492 236.4 166.003C228.024 167.519 219.649 169.122 211.318 170.717C202.987 172.312 194.612 173.924 186.272 175.589L173.762 178.1C169.592 178.981 165.422 179.801 161.261 180.699V180.884C165.475 180.303 169.68 179.66 173.894 179.052L186.51 177.131C194.92 175.845 203.313 174.488 211.715 173.149C220.116 171.809 228.465 170.453 236.893 169.016C239.538 168.549 242.183 168.091 244.828 167.616C242.298 168.497 239.776 169.439 237.246 170.365C229.267 173.307 221.324 176.338 213.372 179.36C205.42 182.382 197.503 185.413 189.569 188.506L177.641 193.069C173.683 194.647 169.707 196.197 165.784 197.792L165.845 197.977C169.901 196.664 173.929 195.334 177.967 193.977L190.063 189.898C198.121 187.175 206.143 184.365 214.192 181.598C222.241 178.832 230.264 176.03 238.269 173.157L245.886 170.382C243.535 171.721 241.184 173.069 238.833 174.426C231.489 178.708 224.189 183.078 216.881 187.431C209.573 191.783 202.282 196.153 195.009 200.567L184.112 207.202C180.497 209.44 176.865 211.651 173.259 213.915L173.356 214.083C177.112 212.092 180.85 210.056 184.597 208.048L195.793 201.88C203.26 197.801 210.675 193.642 218.115 189.545C225.556 185.448 232.979 181.272 240.358 177.061L247.411 172.999C245.33 174.726 243.256 176.459 241.187 178.197C234.698 183.695 228.271 189.263 221.836 194.814C215.4 200.365 208.973 205.942 202.581 211.554L192.998 219.977C189.825 222.805 186.633 225.616 183.477 228.471L183.601 228.62C186.96 225.977 190.283 223.334 193.624 220.691L203.586 212.761C210.225 207.475 216.81 202.065 223.422 196.717C230.034 191.369 236.646 185.986 243.161 180.55C245.23 178.787 247.287 177.049 249.333 175.334C247.569 177.395 245.85 179.475 244.114 181.501C238.674 188.047 233.314 194.638 227.936 201.228C222.558 207.818 217.198 214.444 211.882 221.052L203.948 231.008C201.303 234.347 198.658 237.669 196.014 241.026L196.155 241.149C199.011 237.995 201.823 234.805 204.653 231.634L213.081 222.056C218.697 215.669 224.242 209.228 229.832 202.814C235.421 196.4 240.957 189.959 246.459 183.475C248.222 181.407 249.956 179.334 251.66 177.254C250.302 179.604 248.951 181.953 247.605 184.303C243.382 191.677 239.247 199.105 235.104 206.532C230.96 213.959 226.817 221.378 222.761 228.841L216.643 240.03C214.624 243.775 212.588 247.51 210.595 251.264L210.763 251.361C213.028 247.757 215.241 244.127 217.48 240.515L224.119 229.625C228.527 222.356 232.882 215.052 237.264 207.766C241.645 200.479 245.991 193.166 250.276 185.827C251.634 183.478 252.985 181.128 254.331 178.779C253.397 181.316 252.468 183.854 251.545 186.391C248.671 194.391 245.894 202.426 243.1 210.453C240.305 218.479 237.519 226.515 234.795 234.567L230.713 246.656C229.382 250.691 228.024 254.717 226.72 258.77L226.896 258.832C228.5 254.894 230.043 250.902 231.621 246.99L236.311 235.158C239.406 227.228 242.412 219.299 245.462 211.369C248.513 203.44 251.519 195.51 254.464 187.51C255.389 184.981 256.306 182.461 257.214 179.933C256.738 182.576 256.28 185.219 255.812 187.862C254.384 196.241 253.035 204.603 251.678 213.026C250.32 221.448 248.98 229.81 247.693 238.215L245.771 250.823C245.163 255.035 244.519 259.237 243.937 263.449H244.122C245.004 259.29 245.886 255.123 246.723 250.955L249.236 238.453C250.902 230.118 252.48 221.766 254.111 213.422C255.742 205.078 257.311 196.682 258.836 188.356C259.295 185.713 259.771 183.069 260.22 180.426C260.22 183.069 260.22 185.774 260.22 188.444C260.265 196.946 260.397 205.448 260.52 213.942C260.644 222.435 260.776 230.946 260.97 239.449L261.27 252.198C261.402 256.444 261.499 260.691 261.657 264.946H261.851C262.01 260.691 262.107 256.444 262.239 252.198L262.539 239.449C262.733 230.946 262.839 222.444 262.989 213.942C263.139 205.44 263.244 196.946 263.288 188.444C263.288 185.801 263.288 183.096 263.288 180.426C263.738 183.069 264.214 185.713 264.681 188.356C266.198 196.726 267.802 205.096 269.398 213.422C270.994 221.748 272.607 230.118 274.273 238.453L276.786 251.017C277.667 255.184 278.487 259.352 279.43 263.51H279.616C279.034 259.299 278.39 255.096 277.782 250.885L275.86 238.277C274.573 229.871 273.215 221.484 271.875 213.087C270.535 204.691 269.169 196.303 267.74 187.924C267.273 185.281 266.859 182.638 266.339 179.994C267.22 182.523 268.164 185.043 269.089 187.572C271.972 195.457 275.022 203.44 278.046 211.369C281.07 219.299 284.103 227.228 287.197 235.158L291.843 247.043C293.421 250.99 294.973 254.973 296.569 258.885L296.754 258.823C295.44 254.77 294.109 250.744 292.751 246.708L288.67 234.62C285.945 226.567 283.133 218.55 280.365 210.506C277.597 202.462 274.793 194.444 271.919 186.444C270.996 183.906 270.068 181.369 269.133 178.832C270.485 181.181 271.837 183.531 273.189 185.88C277.473 193.219 281.846 200.514 286.201 207.818C290.556 215.122 294.929 222.409 299.346 229.678L305.984 240.568C308.223 244.18 310.436 247.81 312.702 251.413L312.87 251.316C310.877 247.563 308.841 243.827 306.822 240.083L300.703 228.893C296.622 221.431 292.46 214.021 288.361 206.585C284.262 199.149 280.083 191.73 275.869 184.356C274.511 182.006 273.156 179.657 271.805 177.307C273.533 179.387 275.266 181.46 277.006 183.528C282.507 190.012 288.079 196.435 293.633 202.867C299.187 209.299 304.768 215.722 310.383 222.109L318.811 231.686C321.641 234.858 324.454 238.048 327.31 241.202L327.46 241.079C324.815 237.722 322.17 234.4 319.526 231.061L311.591 221.105C306.302 214.47 300.889 207.889 295.537 201.281C290.186 194.673 284.799 188.065 279.36 181.554C277.597 179.492 275.886 177.413 274.141 175.387C276.204 177.149 278.261 178.887 280.312 180.602C286.854 186.039 293.457 191.395 300.051 196.77C306.645 202.144 313.425 207.501 320.063 212.814L329.849 220.744C333.19 223.387 336.514 226.03 339.873 228.673L339.996 228.523C336.84 225.669 333.649 222.858 330.475 220.03L320.892 211.607C314.5 205.995 308.056 200.453 301.638 194.867C295.22 189.281 288.775 183.748 282.287 178.25C280.218 176.488 278.143 174.755 276.063 173.052L283.116 177.113C290.495 181.325 297.926 185.457 305.358 189.598C312.79 193.739 320.213 197.88 327.68 201.933L338.877 208.1C342.624 210.109 346.361 212.144 350.117 214.136L350.214 213.968C346.608 211.704 342.976 209.492 339.362 207.255L328.465 200.62C321.192 196.215 313.883 191.862 306.593 187.484C299.302 183.105 291.984 178.761 284.641 174.479C282.29 173.122 279.939 171.774 277.588 170.435L285.205 173.21C293.21 176.083 301.25 178.858 309.281 181.651C317.313 184.444 325.353 187.228 333.411 189.951L345.506 194.03C349.544 195.36 353.573 196.717 357.628 198.03L357.69 197.845C353.749 196.25 349.756 194.699 345.833 193.122L333.949 188.462C326.014 185.369 318.08 182.373 310.145 179.316C302.211 176.259 294.277 173.263 286.272 170.32C283.741 169.395 281.22 168.479 278.69 167.572C281.335 168.047 283.98 168.505 286.624 168.972C295.008 170.409 303.375 171.748 311.803 173.105C320.231 174.461 328.597 175.801 337.008 177.087L349.623 179.008C353.837 179.616 358.043 180.259 362.257 180.84V180.655C358.096 179.774 353.926 178.893 349.756 178.056L337.246 175.545C328.906 173.88 320.548 172.303 312.2 170.673C303.851 169.043 295.449 167.475 287.118 165.959C284.473 165.492 281.828 165.016 279.184 164.567H287.206C295.775 164.488 304.283 164.356 312.781 164.232Z" fill="#0055FF"/>
<path d="M282.031 331.097C270.835 324.638 252.692 324.638 241.478 331.097C235.88 334.321 233.085 338.55 233.094 342.788C233.094 343.22 233.094 345.854 233.094 346.312C233.182 350.48 235.968 354.621 241.478 357.766C252.674 364.224 270.817 364.224 282.031 357.766C287.559 354.577 290.354 350.401 290.415 346.216C290.415 345.731 290.415 343.097 290.415 342.638C290.389 338.506 287.594 334.304 282.031 331.097Z" fill="#37474F"/>
<path d="M241.495 354.48C230.299 348.022 230.299 337.555 241.495 331.097C252.691 324.638 270.835 324.638 282.048 331.097C293.262 337.555 293.236 348.022 282.048 354.48C270.861 360.938 252.691 360.938 241.495 354.48Z" fill="#455A64"/>
<path d="M264.196 343.317V193.677H259.303V343.317C259.287 343.553 259.346 343.788 259.471 343.989C259.596 344.189 259.781 344.346 260 344.436C260.536 344.71 261.13 344.852 261.732 344.852C262.334 344.852 262.928 344.71 263.464 344.436C263.689 344.35 263.881 344.196 264.012 343.995C264.144 343.794 264.208 343.557 264.196 343.317Z" fill="#37474F"/>
<path d="M217.313 175.73C241.901 161.536 281.767 161.536 306.355 175.73C318.644 182.779 324.789 195.58 324.78 204.876V206.682C324.78 215.977 318.609 225.281 306.355 232.374C281.767 246.559 241.901 246.559 217.313 232.374C205.015 225.325 198.879 215.977 198.888 206.682V204.876C198.799 195.58 204.971 182.823 217.313 175.73Z" fill="#0055FF"/>
<path opacity="0.2" d="M217.313 175.73C241.901 161.536 281.767 161.536 306.355 175.73C318.644 182.779 324.789 195.58 324.78 204.876V206.682C324.78 215.977 318.609 225.281 306.355 232.374C281.767 246.559 241.901 246.559 217.313 232.374C205.015 225.325 198.879 215.977 198.888 206.682V204.876C198.799 195.58 204.971 182.823 217.313 175.73Z" fill="black"/>
<path d="M217.216 171.008C241.804 156.823 281.67 156.823 306.257 171.008C318.547 178.1 324.683 187.404 324.683 196.699V199.792C324.683 209.096 318.512 221.819 306.257 228.946C281.67 243.131 241.804 243.131 217.216 228.946C204.918 221.854 198.799 207.845 198.799 198.506V196.699C198.799 187.404 204.918 178.1 217.216 171.008Z" fill="#37474F"/>
<path d="M306.257 222.382C330.845 208.197 330.845 185.202 306.257 171.008C281.669 156.814 241.804 156.823 217.216 171.008C192.628 185.193 192.628 208.197 217.216 222.382C241.804 236.567 281.669 236.576 306.257 222.382Z" fill="#455A64"/>
<path d="M261.763 158.408L201.532 193.166L261.772 227.915L321.994 193.166L261.763 158.408Z" fill="#37474F"/>
<path d="M210.454 133.95L210.445 193.166L261.763 222.752V163.554L210.454 133.95Z" fill="#0055FF"/>
<path d="M261.763 163.554V222.752L313.072 193.166V133.95L261.763 163.554Z" fill="#0055FF"/>
<path opacity="0.25" d="M261.763 163.554V222.752L313.072 193.166V133.95L261.763 163.554Z" fill="white"/>
<path opacity="0.4" d="M261.763 163.554L262.565 221.29L292.187 205.211L261.763 222.753V163.554Z" fill="white"/>
<path d="M261.763 104.346L210.454 133.95L261.763 163.554L313.072 133.95L261.763 104.346Z" fill="#0055FF"/>
<path opacity="0.4" d="M261.763 104.346L210.454 133.95L261.763 163.554L313.072 133.95L261.763 104.346Z" fill="white"/>
<path opacity="0.1" d="M210.454 133.95L261.596 162.038L313.072 133.95L261.763 163.554L210.454 133.95Z" fill="white"/>
<path d="M232.441 121.263L283.75 150.866L291.085 146.637L239.776 117.034L232.441 121.263Z" fill="#0055FF"/>
<path d="M291.085 146.637V155.95L290.195 155.439L289.278 157.034L288.352 156.488L287.435 158.091L286.518 157.554L285.593 159.14L284.676 158.62L283.75 160.206V150.875L291.085 146.637Z" fill="#0055FF"/>
<path opacity="0.25" d="M291.085 146.637V155.95L290.195 155.439L289.278 157.034L288.352 156.488L287.435 158.091L286.518 157.554L285.593 159.14L284.676 158.62L283.75 160.206V150.875L291.085 146.637Z" fill="black"/>
<path d="M279.095 171.827C279.607 170.946 280.144 170.065 280.726 169.263C281.308 168.42 281.941 167.614 282.622 166.849C283.306 166.077 284.046 165.355 284.834 164.69C285.631 164.026 286.487 163.437 287.391 162.928C288.439 162.279 289.604 161.839 290.82 161.633C291.728 161.475 292.661 161.634 293.465 162.082C294.245 162.572 294.841 163.306 295.158 164.17C295.592 165.342 295.796 166.587 295.757 167.836C295.768 169.165 295.617 170.49 295.308 171.783C295.021 172.934 294.64 174.059 294.171 175.149C293.734 176.133 293.23 177.087 292.663 178.003L291.111 180.47C290.618 181.237 290.23 181.968 289.833 182.646C289.504 183.26 289.281 183.924 289.172 184.611L288.643 188.928L284.667 191.219L284.27 186.911C284.17 186.074 284.258 185.225 284.526 184.426C284.801 183.58 285.159 182.763 285.593 181.986C286.042 181.175 286.545 180.356 287.1 179.519C287.656 178.682 288.176 177.836 288.661 176.964C289.141 176.1 289.548 175.199 289.877 174.267C290.206 173.336 290.373 172.356 290.371 171.369C290.371 170.135 290.054 169.334 289.419 168.972C288.784 168.611 287.929 168.734 286.88 169.342C286.169 169.743 285.514 170.235 284.931 170.805C284.449 171.285 283.995 171.794 283.574 172.329C283.195 172.814 282.877 173.21 282.613 173.633C282.417 173.939 282.158 174.2 281.855 174.4C281.317 174.708 280.92 174.629 280.656 174.171L279.095 171.827ZM283.036 199.616C283.041 198.973 283.127 198.334 283.292 197.713C283.466 197.07 283.711 196.45 284.023 195.862C284.323 195.297 284.687 194.767 285.108 194.285C285.493 193.833 285.952 193.449 286.465 193.149C286.87 192.898 287.33 192.753 287.805 192.726C288.196 192.706 288.582 192.821 288.899 193.052C289.235 193.308 289.49 193.657 289.63 194.056C289.817 194.57 289.907 195.113 289.895 195.66C289.893 196.309 289.804 196.955 289.63 197.58C289.455 198.216 289.209 198.831 288.899 199.413C288.601 199.979 288.234 200.506 287.805 200.981C287.422 201.422 286.969 201.797 286.465 202.091C286.057 202.351 285.59 202.505 285.108 202.541C284.72 202.566 284.336 202.454 284.023 202.224C283.689 201.969 283.435 201.623 283.292 201.228C283.11 200.71 283.023 200.164 283.036 199.616Z" fill="white"/>
<path d="M227.787 162.232C228.3 161.937 228.848 161.707 229.418 161.545C230.034 161.372 230.673 161.295 231.313 161.316C232.063 161.345 232.804 161.479 233.517 161.712C234.41 161.997 235.267 162.381 236.074 162.858C237.333 163.577 238.487 164.466 239.503 165.501C240.527 166.546 241.415 167.715 242.148 168.981C242.873 170.256 243.442 171.614 243.841 173.025C244.237 174.442 244.439 175.906 244.44 177.378C244.479 178.538 244.324 179.696 243.982 180.805C243.744 181.559 243.358 182.257 242.844 182.858C242.429 183.332 241.918 183.713 241.346 183.977C240.799 184.224 240.279 184.453 239.785 184.646C239.333 184.828 238.906 185.068 238.516 185.36C238.331 185.506 238.177 185.687 238.064 185.892C237.95 186.098 237.879 186.325 237.854 186.558L237.326 190.268L233.35 187.968L232.953 183.201C232.826 182.462 232.912 181.701 233.2 181.008C233.448 180.519 233.819 180.104 234.275 179.801C234.747 179.498 235.253 179.252 235.783 179.069C236.327 178.879 236.847 178.628 237.334 178.32C237.834 177.989 238.253 177.549 238.56 177.034C238.927 176.309 239.097 175.501 239.053 174.69C239.063 173.45 238.73 172.23 238.093 171.166C237.492 170.104 236.619 169.222 235.562 168.611C234.966 168.231 234.306 167.963 233.614 167.818C233.164 167.754 232.707 167.754 232.256 167.818C231.93 167.861 231.606 167.922 231.287 168.003C231.16 168.039 231.027 168.048 230.896 168.03C230.766 168.012 230.641 167.967 230.528 167.897C229.948 167.521 229.523 166.949 229.329 166.285L227.787 162.232ZM231.719 194.558C231.706 194.012 231.796 193.468 231.983 192.955C232.124 192.556 232.378 192.207 232.715 191.95C233.025 191.721 233.405 191.606 233.79 191.624C234.272 191.644 234.741 191.789 235.148 192.047C235.656 192.351 236.111 192.735 236.497 193.184C236.921 193.665 237.288 194.195 237.59 194.761C237.903 195.347 238.146 195.968 238.313 196.611C238.485 197.231 238.574 197.871 238.577 198.514C238.592 199.064 238.502 199.611 238.313 200.127C238.176 200.525 237.925 200.875 237.59 201.131C237.272 201.357 236.885 201.463 236.497 201.431C236.019 201.398 235.556 201.249 235.148 200.999C234.643 200.695 234.185 200.318 233.79 199.88C233.37 199.402 233.009 198.876 232.715 198.312C232.404 197.73 232.159 197.115 231.983 196.479C231.809 195.854 231.72 195.208 231.719 194.558Z" fill="white"/>
<path d="M270.059 78.4698C269.796 77.7177 269.321 77.0571 268.693 76.5667L268.419 76.3905C267.899 76.0909 260.961 72.0821 260.846 71.9852C260.308 71.6875 259.697 71.5471 259.083 71.5799C258.183 71.6237 257.309 71.8967 256.544 72.3728C255.584 72.9437 254.724 73.6668 253.996 74.5138C253.201 75.4202 252.514 76.4167 251.951 77.483C251.361 78.6009 250.902 79.7836 250.585 81.0072C250.261 82.1782 250.095 83.3871 250.091 84.602C250.06 85.6373 250.228 86.669 250.585 87.6416C250.85 88.3855 251.324 89.0371 251.951 89.5183L252.233 89.7033L259.736 94.0293C260.27 94.3382 260.882 94.4851 261.499 94.4522C262.41 94.3714 263.288 94.0689 264.055 93.5712C265.007 93.0099 265.864 92.3023 266.594 91.4742C267.4 90.5753 268.093 89.5811 268.657 88.5139C269.238 87.416 269.696 86.2578 270.024 85.0601C270.347 83.8799 270.513 82.6624 270.518 81.439C270.544 80.4297 270.389 79.424 270.059 78.4698Z" fill="#455A64"/>
<path d="M250.602 87.6416C250.868 88.3854 251.342 89.037 251.969 89.5182L252.251 89.7032L259.753 94.0293C260.287 94.3381 260.9 94.4851 261.516 94.4522V85.2098L258.113 85.3508L250.602 80.9719C250.279 82.1429 250.113 83.3518 250.109 84.5667C250.074 85.6138 250.241 86.6579 250.602 87.6416Z" fill="#37474F"/>
<path d="M257.628 88.9455C257.636 87.7303 257.805 86.5214 258.131 85.3507C258.448 84.1271 258.907 82.9444 259.497 81.8265C260.061 80.7624 260.744 79.7662 261.534 78.8573C262.265 78.0101 263.128 77.287 264.091 76.7163C264.857 76.243 265.73 75.9675 266.63 75.9146C267.366 75.8797 268.093 76.0939 268.693 76.5225C269.321 77.0129 269.795 77.6735 270.059 78.4256C270.406 79.3915 270.574 80.4127 270.553 81.4388C270.548 82.6623 270.382 83.8798 270.059 85.06C269.731 86.2577 269.273 87.4159 268.693 88.5137C268.128 89.5809 267.435 90.5751 266.63 91.4741C265.899 92.3021 265.042 93.0098 264.091 93.571C263.323 94.0688 262.445 94.3713 261.534 94.4521C260.807 94.4945 260.088 94.2861 259.497 93.8618C258.871 93.3806 258.396 92.729 258.131 91.9851C257.771 91.0132 257.6 89.9814 257.628 88.9455Z" fill="#FAFAFA"/>
<path d="M266.735 76.3992C267.342 76.3865 267.937 76.5721 268.428 76.9279C268.991 77.3643 269.413 77.9553 269.645 78.6283C269.973 79.5434 270.132 80.5109 270.112 81.483C270.11 82.6736 269.95 83.8587 269.636 85.0072C269.315 86.1724 268.866 87.2983 268.296 88.3641C267.755 89.4015 267.086 90.3665 266.303 91.2363C265.606 92.0329 264.784 92.7113 263.87 93.2451C263.166 93.698 262.36 93.9676 261.525 94.0293H261.393C260.805 94.046 260.228 93.8662 259.753 93.5183C259.196 93.0845 258.773 92.5007 258.537 91.8355C258.201 90.9159 258.043 89.9415 258.069 88.9632C258.075 87.7723 258.238 86.5873 258.554 85.4389C258.869 84.2645 259.315 83.1295 259.885 82.0557C260.432 81.0186 261.098 80.0488 261.869 79.1658C262.561 78.351 263.387 77.6598 264.311 77.1217C265.011 76.68 265.812 76.4223 266.638 76.3728H266.735M266.735 75.9323H266.63C265.73 75.9852 264.857 76.2607 264.091 76.7341C263.128 77.3047 262.265 78.0278 261.534 78.875C260.744 79.7839 260.061 80.7801 259.497 81.8442C258.907 82.9622 258.448 84.1448 258.131 85.3685C257.805 86.5391 257.636 87.748 257.628 88.9632C257.6 89.9992 257.771 91.0309 258.131 92.0029C258.396 92.7467 258.871 93.3983 259.497 93.8795C260.048 94.2766 260.714 94.4839 261.393 94.4698H261.534C262.445 94.389 263.323 94.0865 264.091 93.5888C265.042 93.0275 265.899 92.3198 266.63 91.4918C267.435 90.5929 268.128 89.5987 268.693 88.5315C269.273 87.4336 269.731 86.2754 270.059 85.0777C270.382 83.8975 270.548 82.68 270.553 81.4565C270.574 80.4304 270.406 79.4092 270.059 78.4433C269.795 77.6912 269.321 77.0306 268.693 76.5402C268.122 76.1344 267.436 75.9214 266.735 75.9323Z" fill="#455A64"/>
<path d="M280.444 23.7029C279.851 22.071 278.731 20.6825 277.262 19.7557C275.992 19.0068 270.985 16.1522 269.742 15.4209C268.237 14.5687 266.485 14.2577 264.778 14.5398C262.487 14.913 260.293 15.7397 258.325 16.9716C256.601 17.9621 254.972 19.1094 253.459 20.3989C251.977 21.6562 250.587 23.0164 249.298 24.4694C248.03 25.9044 246.85 27.4137 245.762 28.9893C244.669 30.5664 243.655 32.1787 242.694 33.8263L245.586 38.1699C245.72 38.4294 245.921 38.6484 246.168 38.8043L253.626 43.0862C253.655 43.0927 253.685 43.0927 253.714 43.0862C253.884 43.1899 254.079 43.2447 254.279 43.2448C254.667 43.2236 255.044 43.1021 255.372 42.8924C255.943 42.5118 256.43 42.0168 256.8 41.4387C257.294 40.725 257.92 39.9056 258.616 38.9805C259.413 37.9756 260.267 37.0167 261.173 36.1082C261.455 35.8351 261.754 35.5532 262.054 35.2888C262.354 35.0245 262.46 34.9629 262.663 34.7866C263.024 34.5135 263.412 34.2316 263.826 33.9761C264.241 33.7206 264.479 33.5532 264.822 33.3593C266.797 32.2228 268.393 31.9761 269.601 32.6545C270.809 33.3329 271.364 34.8395 271.364 37.1655C271.371 39.0288 271.058 40.8794 270.438 42.6369C269.808 44.3943 269.036 46.0975 268.128 47.7294C267.247 49.3594 266.242 50.9629 265.202 52.5224C264.161 54.0819 263.209 55.6502 262.363 57.1744C261.548 58.6403 260.875 60.1803 260.353 61.7736C259.847 63.278 259.681 64.8759 259.868 66.452L260.617 74.5754L268.12 70.2582L269.098 62.126C269.3 60.8326 269.723 59.5837 270.35 58.4343C271.029 57.1392 271.831 55.7912 272.748 54.3286C273.665 52.866 274.652 51.3242 275.684 49.6766C276.755 47.9492 277.701 46.1472 278.514 44.2845C279.411 42.2445 280.131 40.1309 280.665 37.9673C281.253 35.5324 281.549 33.0361 281.546 30.5311C281.618 28.2056 281.244 25.8878 280.444 23.7029Z" fill="#455A64"/>
<path d="M271.426 37.2448C271.433 39.1081 271.12 40.9587 270.5 42.7162C269.87 44.4736 269.098 46.1768 268.19 47.8087C267.309 49.4387 266.304 51.0422 265.264 52.6017C264.223 54.1612 263.271 55.7295 262.425 57.2537C261.61 58.7196 260.937 60.2596 260.415 61.8529C259.909 63.3573 259.743 64.9552 259.93 66.5313L260.679 74.6547L253.15 70.3111L252.401 62.1965C252.215 60.6181 252.377 59.018 252.877 57.5092C253.403 55.9128 254.079 54.3699 254.896 52.9013C255.778 51.377 256.659 49.844 257.735 48.2669C258.81 46.6898 259.762 45.0951 260.67 43.4563C261.571 41.8284 262.341 40.1314 262.971 38.3814C263.455 36.9846 263.752 35.5299 263.853 34.0554C264.17 33.8439 264.505 33.6325 264.849 33.4386C266.824 32.3021 268.42 32.0554 269.627 32.7338C270.835 33.4122 271.426 34.9188 271.426 37.2448Z" fill="#37474F"/>
<path d="M246.168 38.8132L253.705 43.1656L250.223 38.1788L242.694 33.8352L245.586 38.1877C245.72 38.4447 245.921 38.6608 246.168 38.8132Z" fill="#37474F"/>
<path d="M250.223 38.1788C251.205 36.54 252.227 34.9453 253.291 33.3947C254.389 31.8088 255.581 30.2906 256.862 28.8484C258.149 27.3961 259.54 26.0386 261.023 24.7867C262.506 23.4996 264.106 22.3523 265.801 21.3593C267.776 20.1349 269.971 19.306 272.263 18.9188C273.967 18.6466 275.713 18.957 277.218 19.7999C278.694 20.7101 279.828 22.0822 280.444 23.703C281.263 25.9081 281.646 28.2509 281.573 30.6017C281.586 33.1072 281.29 35.6048 280.691 38.0378C280.164 40.208 279.447 42.3278 278.549 44.3727C277.734 46.2317 276.788 48.0306 275.719 49.756C274.69 51.4065 273.712 52.9572 272.783 54.408C271.884 55.8529 271.091 57.1833 270.412 58.5049C269.785 59.6597 269.364 60.9149 269.169 62.2142L268.173 70.3376L260.688 74.6548L259.93 66.5402C259.744 64.9618 259.906 63.3619 260.406 61.853C260.929 60.2571 261.608 58.7167 262.433 57.2538C263.271 55.7296 264.197 54.1789 265.263 52.6106C266.33 51.0423 267.282 49.4388 268.199 47.8C269.102 46.1747 269.869 44.4773 270.491 42.7251C271.117 40.969 271.433 39.1178 271.426 37.2537C271.426 34.9042 270.838 33.4005 269.662 32.7427C268.487 32.0848 266.894 32.3168 264.884 33.4387C263.545 34.1878 262.311 35.1123 261.217 36.1876C260.306 37.0915 259.452 38.0508 258.66 39.0599C257.943 39.9821 257.335 40.8014 256.835 41.518C256.467 42.0981 255.981 42.5936 255.407 42.9718C254.402 43.5533 253.644 43.4035 253.15 42.5313L250.223 38.1788Z" fill="#FAFAFA"/>
<path d="M273.612 19.2976C274.808 19.2743 275.988 19.579 277.024 20.1786C278.413 21.0538 279.473 22.3644 280.039 23.9055C280.83 26.0589 281.201 28.3439 281.132 30.6368C281.15 33.1051 280.869 35.5666 280.295 37.9673C279.764 40.1103 279.056 42.2056 278.179 44.2316C277.363 46.0539 276.426 47.8199 275.375 49.518C274.344 51.1656 273.365 52.725 272.439 54.17C271.514 55.6149 270.676 56.9982 270.024 58.3022C269.372 59.5038 268.933 60.8096 268.728 62.1612L267.767 70.0908L261.058 73.9234L260.37 66.4784C260.192 64.9622 260.349 63.4254 260.829 61.9762C261.342 60.4091 262.007 58.8955 262.812 57.4563C263.641 55.9673 264.576 54.4167 265.634 52.8396C266.691 51.2625 267.67 49.6413 268.578 48.0025C269.495 46.3577 270.273 44.6396 270.905 42.866C271.544 41.0607 271.869 39.1596 271.866 37.2448C271.866 34.7602 271.188 33.1126 269.839 32.3461C269.312 32.0582 268.72 31.9096 268.12 31.9144C266.865 31.9778 265.649 32.3697 264.593 33.0509C263.223 33.8213 261.96 34.7693 260.838 35.8703C259.896 36.7866 259.013 37.7606 258.193 38.7866C257.488 39.6677 256.87 40.5488 256.359 41.2536C256.024 41.7789 255.586 42.2314 255.072 42.584C254.807 42.7522 254.504 42.8493 254.19 42.866C253.988 42.866 253.679 42.8131 253.379 42.2756L250.637 38.1611C251.519 36.5928 252.533 35.0597 253.547 33.5884C254.633 32.0203 255.811 30.5169 257.073 29.0861C258.35 27.6528 259.726 26.3103 261.19 25.0685C262.67 23.8145 264.261 22.6969 265.942 21.7293C267.867 20.537 270.004 19.7291 272.237 19.3504C272.655 19.296 273.076 19.2665 273.497 19.2623M273.497 18.8218C273.058 18.8257 272.62 18.8551 272.184 18.9099C269.919 19.3097 267.752 20.1412 265.801 21.3592C264.096 22.3364 262.484 23.469 260.987 24.7425C259.504 25.9944 258.114 27.3519 256.826 28.8042C255.556 30.2617 254.376 31.7946 253.291 33.3945C252.198 34.9687 251.175 36.5781 250.223 38.2228L253.115 42.5752C253.218 42.8039 253.383 42.9988 253.592 43.1376C253.801 43.2763 254.045 43.3532 254.296 43.3593C254.678 43.3401 255.049 43.2217 255.372 43.0157C255.945 42.6376 256.432 42.1421 256.8 41.562C257.299 40.8454 257.908 40.026 258.625 39.1038C259.417 38.0947 260.271 37.1355 261.181 36.2316C262.276 35.1562 263.509 34.2317 264.849 33.4826C265.829 32.8494 266.955 32.4792 268.12 32.4077C268.647 32.3989 269.167 32.5296 269.627 32.7866C270.803 33.4621 271.39 34.9658 271.39 37.2976C271.398 39.1617 271.081 41.0129 270.456 42.769C269.834 44.5212 269.067 46.2187 268.164 47.844C267.247 49.4827 266.268 51.0863 265.228 52.6546C264.188 54.2228 263.236 55.7735 262.398 57.2977C261.573 58.7606 260.894 60.3011 260.37 61.8969C259.871 63.4058 259.709 65.0057 259.894 66.5841L260.652 74.6987L268.137 70.3815L269.133 62.2581C269.329 60.9589 269.749 59.7036 270.377 58.5489C271.055 57.2625 271.849 55.9057 272.774 54.4519C273.7 52.9982 274.679 51.4475 275.71 49.7999C276.78 48.0745 277.725 46.2756 278.54 44.4166C279.438 42.3717 280.155 40.252 280.682 38.0818C281.281 35.6487 281.577 33.1511 281.564 30.6456C281.646 28.2807 281.265 25.9224 280.444 23.7029C279.848 22.0723 278.729 20.6845 277.262 19.7557C276.154 19.124 274.896 18.8043 273.621 18.8306L273.497 18.8218Z" fill="#455A64"/>
<path d="M93.1218 259.14C92.1344 277.501 93.3422 289.704 92.0551 302.215C91.7818 304.858 89.1811 324.118 89.5954 329.652C90.2213 337.96 102.405 338.03 103.701 333.229C104.997 328.427 109.511 306.55 109.431 303.519C112.958 289.484 121.5 259.616 121.5 259.616L93.1218 259.14Z" fill="#B16668"/>
<path d="M174.114 302.497C172.034 300.074 170.2 297.035 170.341 290.991C170.491 284.762 171.073 274.092 171.619 264.691L146.282 264.277C148.848 277.951 150.611 287.977 151.492 292.374C151.492 292.471 151.492 293.731 151.448 294.374C151.157 299.528 158.933 301.687 163.535 305.387C167.457 308.644 171.647 311.562 176.063 314.11C179.457 315.96 186.545 316.497 187.523 314.427C181.925 309.889 178.443 307.572 174.114 302.497Z" fill="#B16668"/>
<path d="M197.036 320.744C197.335 320.744 197.6 323.907 195.881 325.15C193.906 326.577 188.228 328.797 180.982 327.502C173.735 326.207 169.909 323.872 167.132 321.405C164.355 318.938 160.458 315.458 157.196 314.586C154.163 313.784 150.214 312.048 149.262 311.061C148.31 310.075 148.715 306.145 148.715 306.145L197.036 320.744Z" fill="#263238"/>
<path d="M151.263 291.246C151.263 291.246 150.725 291.114 150.479 292.03C150.188 293.114 151.166 295.616 150.02 298.312C148.997 300.709 148.257 304.973 148.786 307.546C149.235 309.581 154.675 311.537 157.805 312.832C161.446 314.57 164.809 316.838 167.784 319.563C171.046 322.418 178.099 325.493 182.86 325.819C190.115 326.312 194.929 324.709 196.533 322.295C197.82 320.383 197.415 318.427 195.881 316.762C194.583 315.463 193.097 314.368 191.473 313.511C189.339 312.268 187.197 311.096 185.117 309.775C182.389 308.013 179.718 306.204 177.103 304.348C176.067 303.666 175.124 302.851 174.299 301.925C172.589 299.828 172.28 297.026 171.655 294.436C171.595 294.053 171.444 293.69 171.214 293.378C170.748 292.959 170.148 292.718 169.521 292.7C167.385 292.485 165.229 292.58 163.121 292.982C161.481 293.273 159.656 293.863 158.995 295.308C158.334 296.753 158.995 298.277 158.422 299.634C158.325 299.863 158.157 300.11 157.902 300.145C157.091 300.268 156.703 297.951 156.359 297.361C155.662 296.18 155.169 294.876 153.943 294.057C153.2 293.713 152.494 293.294 151.836 292.806C151.505 292.349 151.306 291.809 151.263 291.246Z" fill="#37474F"/>
<path d="M189.322 312.074C178.743 312.383 176.098 319.608 175.331 324.03C177.717 325.068 180.264 325.685 182.86 325.854C190.115 326.312 195.273 324.374 196.965 321.555C198.852 318.26 196.569 315.563 189.322 312.074Z" fill="#FAFAFA"/>
<path d="M175.781 312.524C175.664 312.519 175.552 312.475 175.463 312.4C175.417 312.356 175.38 312.303 175.355 312.244C175.329 312.185 175.316 312.121 175.316 312.057C175.316 311.993 175.329 311.929 175.355 311.87C175.38 311.811 175.417 311.758 175.463 311.713C176.79 310.578 178.334 309.724 180.001 309.205C181.668 308.685 183.424 308.51 185.161 308.691C185.225 308.7 185.287 308.721 185.343 308.754C185.399 308.786 185.448 308.829 185.487 308.881C185.527 308.933 185.555 308.991 185.572 309.054C185.589 309.117 185.593 309.182 185.584 309.246C185.556 309.376 185.479 309.491 185.37 309.567C185.26 309.642 185.125 309.672 184.993 309.651C183.417 309.494 181.825 309.653 180.311 310.119C178.797 310.585 177.392 311.349 176.177 312.365C176.127 312.419 176.065 312.46 175.996 312.488C175.928 312.515 175.854 312.527 175.781 312.524Z" fill="#F0F0F0"/>
<path d="M171.399 309.784C171.282 309.782 171.169 309.738 171.081 309.66C171.035 309.616 170.998 309.563 170.973 309.504C170.948 309.445 170.935 309.381 170.935 309.317C170.935 309.253 170.948 309.189 170.973 309.13C170.998 309.071 171.035 309.018 171.081 308.973C172.406 307.836 173.95 306.981 175.618 306.461C177.285 305.941 179.042 305.768 180.779 305.951C180.845 305.959 180.908 305.979 180.965 306.012C181.023 306.045 181.073 306.089 181.112 306.142C181.152 306.195 181.18 306.255 181.196 306.319C181.211 306.383 181.213 306.45 181.202 306.515C181.189 306.58 181.164 306.642 181.128 306.697C181.091 306.752 181.044 306.799 180.989 306.836C180.934 306.873 180.873 306.898 180.808 306.911C180.743 306.924 180.676 306.924 180.611 306.911C179.034 306.753 177.442 306.912 175.927 307.38C174.413 307.847 173.008 308.614 171.795 309.634C171.743 309.684 171.68 309.723 171.612 309.749C171.544 309.775 171.472 309.786 171.399 309.784Z" fill="#F0F0F0"/>
<path d="M167.379 306.718C167.261 306.709 167.15 306.663 167.061 306.585C167.014 306.542 166.976 306.489 166.95 306.429C166.924 306.37 166.911 306.306 166.911 306.242C166.911 306.177 166.924 306.113 166.95 306.054C166.976 305.995 167.014 305.942 167.061 305.898C168.387 304.762 169.931 303.909 171.599 303.391C173.267 302.873 175.023 302.701 176.759 302.885C176.824 302.892 176.886 302.913 176.943 302.945C177 302.977 177.049 303.021 177.089 303.073C177.128 303.124 177.157 303.184 177.173 303.247C177.189 303.31 177.192 303.376 177.182 303.44C177.17 303.505 177.144 303.567 177.108 303.622C177.071 303.677 177.024 303.724 176.969 303.761C176.914 303.798 176.853 303.823 176.788 303.836C176.723 303.849 176.656 303.849 176.592 303.837C175.015 303.68 173.422 303.84 171.908 304.308C170.394 304.775 168.989 305.541 167.776 306.559C167.667 306.658 167.526 306.714 167.379 306.718Z" fill="#F0F0F0"/>
<path d="M163.447 303.643C163.33 303.642 163.216 303.598 163.13 303.519C163.083 303.476 163.047 303.423 163.021 303.365C162.996 303.306 162.983 303.243 162.983 303.18C162.983 303.116 162.996 303.054 163.021 302.995C163.047 302.937 163.083 302.884 163.13 302.841C165.298 300.55 169.944 299.211 173.709 299.819C173.773 299.826 173.836 299.847 173.893 299.879C173.949 299.911 173.999 299.955 174.038 300.006C174.078 300.058 174.106 300.117 174.123 300.181C174.139 300.244 174.142 300.309 174.132 300.374C174.119 300.439 174.094 300.5 174.057 300.555C174.021 300.61 173.974 300.658 173.919 300.695C173.864 300.731 173.802 300.757 173.738 300.77C173.673 300.783 173.606 300.783 173.541 300.77C170.129 300.233 165.792 301.449 163.844 303.484C163.793 303.537 163.731 303.579 163.663 303.607C163.594 303.634 163.521 303.646 163.447 303.643Z" fill="#F0F0F0"/>
<path d="M107.272 337.29C106.857 342.083 105.932 345.264 103.904 348.048C101.876 350.832 98.1294 351.652 94.3738 350.771C90.6182 349.89 85.8135 347.59 84.8084 343.423C83.8034 339.255 83.2304 336.374 84.1737 331.969L107.272 337.29Z" fill="#263238"/>
<path d="M92.0549 302.215C90.4945 302.295 89.9126 308.744 88.8988 315.185C87.8056 322.101 85.3724 324.92 84.3938 330.586C83.283 337.061 84.4731 339.978 87.0386 343.942C89.6041 347.907 98.852 351.872 103.551 346.374C107.386 341.854 107.633 336.779 107.412 330.295C107.183 323.59 108.55 319.185 108.964 314.101C109.361 309.255 110.727 304.083 109.387 303.528C109.273 304.233 109.158 305.14 109.034 305.837C108.968 306.805 108.665 307.743 108.153 308.568C107.915 308.885 107.192 309.229 107.06 308.638C106.985 308.239 106.985 307.83 107.06 307.431C107.324 305.669 106.284 305.484 105.72 305.334C104.503 305.008 99.6807 304.453 98.517 304.33C97.6354 304.259 96.7538 304.224 95.8105 304.215C95.2815 304.215 94.7526 304.215 94.2236 304.215C93.6947 304.215 93.2451 304.215 93.0158 304.647C92.931 304.836 92.8802 305.039 92.866 305.246L92.6103 307.193C92.6085 307.298 92.5839 307.401 92.5382 307.496C92.4926 307.59 92.4269 307.673 92.3458 307.74C92.2639 307.781 92.1718 307.796 92.0809 307.786C91.99 307.775 91.9043 307.737 91.8345 307.678C91.473 307.378 91.667 306.612 91.6846 306.215L91.764 304.973C91.808 304.577 92.0108 302.629 92.0549 302.215Z" fill="#37474F"/>
<path d="M83.8917 334.339C83.5479 338.365 84.6058 341.141 86.6159 344.251C89.1725 348.216 99.1787 352.242 103.878 346.7C106.223 343.943 106.893 340.647 107.272 337.282C104.6 332.903 88.2997 330.727 83.8917 334.339Z" fill="#FAFAFA"/>
<path d="M104.01 330.171C103.943 330.162 103.878 330.144 103.816 330.119C103.754 330.119 96.6041 327.405 89.569 328.691C89.4277 328.724 89.2791 328.703 89.1531 328.631C89.0271 328.559 88.9332 328.442 88.8901 328.304C88.8776 328.236 88.8793 328.166 88.895 328.098C88.9107 328.031 88.9402 327.968 88.9816 327.912C89.023 327.857 89.0754 327.811 89.1355 327.776C89.1956 327.742 89.2621 327.721 89.3309 327.713C96.7716 326.365 104.062 329.114 104.318 329.229C104.382 329.252 104.44 329.289 104.488 329.337C104.536 329.384 104.574 329.442 104.598 329.505C104.622 329.569 104.633 329.637 104.629 329.704C104.624 329.772 104.606 329.838 104.574 329.898C104.516 329.993 104.432 330.069 104.332 330.117C104.232 330.166 104.12 330.184 104.01 330.171Z" fill="#F0F0F0"/>
<path d="M90.0095 323.863C89.9058 323.853 89.8065 323.816 89.7215 323.755C89.6364 323.695 89.5686 323.614 89.5247 323.519C89.5035 323.453 89.4967 323.384 89.5048 323.315C89.5129 323.246 89.5357 323.18 89.5716 323.12C89.6075 323.061 89.6558 323.01 89.7131 322.971C89.7704 322.932 89.8354 322.906 89.9037 322.894C96.9565 320.964 104.6 324.154 104.891 324.295C104.956 324.318 105.014 324.356 105.062 324.405C105.11 324.454 105.147 324.514 105.169 324.579C105.191 324.644 105.198 324.713 105.189 324.781C105.181 324.85 105.157 324.915 105.12 324.973C105.033 325.089 104.908 325.172 104.767 325.207C104.625 325.243 104.476 325.228 104.344 325.167C104.274 325.167 96.789 322.048 90.2387 323.837C90.1648 323.86 90.0869 323.869 90.0095 323.863Z" fill="#F0F0F0"/>
<path d="M90.3626 319.308C90.2583 319.299 90.1583 319.263 90.0729 319.203C89.9876 319.142 89.9202 319.06 89.8777 318.964C89.8564 318.9 89.8491 318.831 89.8561 318.763C89.8631 318.695 89.8844 318.63 89.9185 318.571C89.9526 318.512 89.9988 318.461 90.0541 318.421C90.1093 318.381 90.1724 318.353 90.2392 318.339C97.9532 316.092 105.226 319.563 105.508 319.704C105.571 319.732 105.626 319.773 105.671 319.825C105.715 319.877 105.747 319.938 105.765 320.004C105.783 320.07 105.785 320.139 105.773 320.206C105.761 320.273 105.734 320.336 105.694 320.392C105.6 320.508 105.468 320.588 105.321 320.617C105.175 320.646 105.022 320.623 104.891 320.55C104.838 320.55 97.7945 317.193 90.6095 319.281C90.5291 319.303 90.4458 319.312 90.3626 319.308Z" fill="#F0F0F0"/>
<path d="M90.8034 314.823C90.7047 314.804 90.6127 314.759 90.5356 314.695C90.4586 314.63 90.3991 314.547 90.3626 314.453C90.3397 314.389 90.3309 314.32 90.3367 314.251C90.3424 314.183 90.3626 314.117 90.396 314.057C90.4293 313.997 90.475 313.945 90.53 313.904C90.5851 313.863 90.6482 313.834 90.7152 313.819C97.9443 311.616 105.791 315.176 106.09 315.334C106.152 315.361 106.207 315.402 106.251 315.453C106.296 315.503 106.328 315.563 106.347 315.628C106.365 315.693 106.369 315.761 106.359 315.827C106.348 315.894 106.322 315.957 106.284 316.013C106.195 316.132 106.065 316.215 105.92 316.247C105.775 316.279 105.622 316.259 105.491 316.189C105.429 316.189 97.8209 312.718 91.1031 314.762C91.0092 314.805 90.9067 314.826 90.8034 314.823Z" fill="#EBEBEB"/>
<path d="M111.997 118.708C106.425 127.8 98.2794 134.355 97.8915 165.801C97.4595 197.73 97.6535 215.572 97.4507 219.413C97.2479 223.255 95.617 229.845 93.175 248.77C90.7329 267.695 92.2405 289.925 92.2405 289.925C92.2405 289.925 94.1271 293.396 101.823 294.189C108.876 294.903 113.39 292.638 113.39 292.638C113.39 292.638 123.511 255.88 126.411 244.506C129.312 233.131 138.225 189.21 138.225 189.21L142.289 219.748C142.289 219.748 139.644 230.964 142.289 247.642C144.934 264.321 149.139 280.629 149.139 280.629C149.139 280.629 152.665 281.731 160.176 281.775C163.891 281.771 167.567 281.031 170.994 279.598C170.994 279.598 175.402 230.902 175.781 212.056C176.16 193.21 175.604 141.369 169.001 118.717L111.997 118.708Z" fill="#455A64"/>
<path d="M128.007 225.061C128.007 225.061 125.036 220.849 117.56 219.871C110.084 218.893 106.099 222.673 106.099 222.673C106.099 222.673 120.046 221.519 128.007 225.061ZM105.226 225.448C114.853 227.404 119.261 227.114 123.687 226.33C123.687 226.347 109.828 224.47 105.226 225.466V225.448Z" fill="#B16668"/>
<path d="M156.624 217.255C162.941 216.546 169.311 216.44 175.648 216.937C175.648 216.224 175.701 215.536 175.719 214.876C169.257 214.1 159.356 215.836 156.624 217.255Z" fill="#B16668"/>
<path d="M175.463 221.519C175.463 220.867 175.516 220.233 175.542 219.607C174.026 219.545 167.608 219.334 161.164 219.704C165.051 220.752 173.797 221.404 175.463 221.519Z" fill="#B16668"/>
<path d="M100.554 230.805C102.679 221.995 103.904 204.18 104.142 189.58C104.221 185.175 104.292 180.602 104.433 175.756C104.962 156.743 106.91 135.483 117.357 121.924L118.168 122.479C111.115 131.598 108.03 144.32 106.584 157.474C116.722 156.382 119.112 146.99 122.373 134.065C122.814 132.302 123.255 130.47 123.775 128.593L124.745 128.822C124.251 130.69 123.793 132.514 123.343 134.276C120.09 147.184 117.516 157.404 106.478 158.461C105.879 164.25 105.597 170.118 105.429 175.783C105.297 180.62 105.218 185.184 105.147 189.589C104.9 204.25 103.675 222.136 101.532 230.999C101.294 231.986 101.03 233.025 100.766 234.118C97.9268 245.475 93.7127 262.506 95.0792 292.268C94.724 292.082 94.3796 291.876 94.0477 291.651C92.7341 262.127 96.9658 245.184 99.7869 233.862C100.06 232.832 100.316 231.792 100.554 230.805Z" fill="#37474F"/>
<path d="M138.198 189.202L145.251 153.078C145.251 153.078 158.624 152.4 166.18 145.201C164.655 151.448 153.943 156.549 149.112 157.536L147.772 163.898C147.939 167.29 148.133 170.858 148.327 174.541C149.421 194.805 150.346 215.792 149.359 220.541C147.446 229.757 148.213 238.559 149.703 250.497C151.043 261.281 153.229 274.638 154.596 281.466L153.59 281.361C152.233 274.603 150.399 262.691 148.574 250.576C146.749 238.462 146.132 229.977 148.38 220.303C149.447 215.704 148.38 193.871 147.331 174.576C147.208 172.227 147.084 169.939 146.961 167.713L142.244 190.109L142.306 219.704L138.198 189.202Z" fill="#37474F"/>
<path d="M223.81 86.3374C220.698 88.1612 220.213 89.8617 216.81 96.6811C213.09 104.179 208.523 108.725 206.328 109.818C204.133 110.91 198.209 109.818 188.308 104.531C176.274 98.1084 164.505 90.778 164.505 90.778L158.052 62.4695C160.573 62.9453 164.355 63.2536 168.992 66.8748C178.558 74.3286 200.474 89.7824 200.474 89.7824C200.474 89.7824 202.317 88.1965 204.38 86.3903C206.443 84.5841 208.382 83.4652 208.135 82.2053L223.81 86.3374Z" fill="#B16668"/>
<path d="M200.474 89.7823C197.486 92.2405 195.185 95.3506 194.867 98.963C194.074 95.7559 195.987 90.7074 199.028 88.7427L200.474 89.7823Z" fill="#9A4A4D"/>
<path d="M216.026 87.3594C210.886 86.17 208.973 83.2889 207.554 81.4475C206.134 79.606 204.741 78.1347 203.251 77.8175C201.761 77.5003 198.94 77.0245 197.08 75.9584C196.677 75.7788 196.341 75.4773 196.119 75.0964C195.896 74.7155 195.799 74.2745 195.841 73.8355C195.883 73.3966 196.062 72.9818 196.352 72.6498C196.642 72.3177 197.03 72.0852 197.459 71.9849C199.399 71.3681 201.091 72.3373 203.093 72.9716C205.094 73.606 211.494 73.9232 213.363 70.3989C215.232 66.8747 215.285 63.3504 215.497 60.2315C215.708 57.1125 215.426 54.4077 217.436 53.976C219.446 53.5442 219.429 55.5971 219.464 58.0112C219.499 60.4253 219.252 65.3328 219.376 66.4518C219.499 67.5707 220.381 68.3725 221.007 67.2271C221.779 65.3963 222.315 63.4749 222.602 61.509C223.158 58.8658 223.731 56.2227 225.635 56.5663C227.539 56.9099 227.152 59.1302 226.816 61.1037C226.481 63.0773 225.547 67.095 225.335 68.1522C225.124 69.2095 225.335 70.6721 226.57 68.9628C227.607 67.4618 228.521 65.8795 229.303 64.2315C230.105 62.7425 230.828 60.8747 232.441 61.5883C234.054 62.302 233.984 64.2315 233.111 66.0465C232.033 68.0315 230.822 69.9418 229.488 71.7646C228.553 73.139 227.548 75.6413 229.717 74.3549C231.886 73.0686 232.732 72.3373 233.728 71.8791C234.724 71.421 236.232 72.4871 235.165 74.0642C234.099 75.6413 231.771 76.9981 231.136 77.9232C230.449 79.0134 229.658 80.0343 228.774 80.9717C227.892 81.8527 227.01 84.1259 225.124 85.4475C223.237 86.7691 221.174 88.54 216.026 87.3594Z" fill="#B16668"/>
<path d="M216.767 59.6501C216.255 58.3109 216.634 57.5972 217.481 57.6237C218.327 57.6501 219.447 57.2448 219.403 56.073C219.447 56.6545 219.455 57.3065 219.464 57.9937C219.464 59.7558 219.376 62.725 219.35 64.6986C219.394 61.8792 217.313 60.9981 216.767 59.6501Z" fill="#9A4A4D"/>
<path d="M225.803 69.7381C225.53 69.9232 224.436 70.1963 224.375 68.5751C224.313 66.954 224.269 64.4342 223.687 63.0068C223.26 62.0523 223.194 60.9753 223.502 59.976C223.661 59.5971 223.987 60.0993 225.045 60.2491C225.518 60.2953 225.991 60.1639 226.372 59.8805C226.754 59.5971 227.016 59.182 227.108 58.7161C227.083 59.5181 226.991 60.3168 226.834 61.1037C226.499 63.0861 225.565 67.095 225.353 68.1522C225.186 68.9628 225.247 69.9584 225.803 69.7381Z" fill="#9A4A4D"/>
<path d="M229.276 69.3947C229.232 68.9806 228.174 68.0907 228.457 67.7119C228.739 67.333 229.276 67.7119 229.497 67.4035C229.717 67.0951 229.576 65.6942 229.735 64.8925C229.894 64.0907 230.281 64.0114 231.004 64.7603C231.727 65.5092 233.385 64.8925 233.649 64.2933C233.552 64.9213 233.359 65.5306 233.076 66.0995C231.998 68.0845 230.787 69.9948 229.453 71.8176C228.818 72.7604 228.148 74.2141 228.474 74.637C227.698 74.2141 227.187 72.3815 227.742 71.7207C228.298 71.0599 229.321 69.8088 229.276 69.3947Z" fill="#9A4A4D"/>
<path d="M198.888 76.7427C201.797 77.5004 203.613 76.5753 205.667 77.6238C207.721 78.6722 210.445 81.4652 213.796 83.5798C217.146 85.6943 220.848 86.0908 222.4 85.4476C223.952 84.8044 228.139 81.3947 226.235 79.8793C224.331 78.3639 221.827 75.8969 221.219 74.0819C222.982 76.5489 226.226 79.2714 227.39 79.6678C227.598 79.7563 227.824 79.7962 228.05 79.7844C228.276 79.7727 228.496 79.7097 228.694 79.6001C228.892 79.4906 229.063 79.3374 229.192 79.1522C229.322 78.967 229.408 78.7547 229.444 78.5313C229.444 77.8176 228.756 77.0687 228.994 76.8396C229.232 76.6106 229.876 76.9189 230.334 76.7163C230.793 76.5136 231.992 75.5797 231.965 74.7515C231.939 73.9233 232.327 73.1656 232.847 73.6061C233.367 74.0467 234.231 74.7427 234.98 74.4255C233.843 75.8705 231.78 77.0687 231.189 77.9498C230.484 79.0331 229.675 80.0452 228.774 80.9718C227.892 81.8529 227.011 84.126 225.124 85.4476C223.237 86.7692 221.157 88.5049 216.008 87.3243C210.86 86.1437 208.956 83.2538 207.536 81.4124C206.117 79.5709 204.724 78.0996 203.234 77.7824C201.766 77.521 200.315 77.1739 198.888 76.7427Z" fill="#9A4A4D"/>
<path d="M214.068 74.2317C214.423 74.4186 214.742 74.6661 215.012 74.963C215.329 75.2714 215.646 75.5709 215.937 75.8969C216.551 76.5944 217.092 77.3532 217.551 78.1612C218.468 79.7517 219.041 81.5165 219.235 83.3419C219.338 84.4064 219.29 85.4801 219.094 86.5313C219.014 86.9102 218.362 86.7428 218.432 86.3551C218.832 84.0451 218.525 81.6682 217.551 79.5357C217.123 78.5792 216.597 77.6697 215.981 76.822C215.682 76.4167 215.373 76.0026 215.1 75.6062C214.715 75.2181 214.37 74.7931 214.068 74.3374C214.068 74.3374 214.016 74.2141 214.068 74.2317Z" fill="#9A4A4D"/>
<path d="M101.824 136.311C105.288 125.562 112.756 118.117 112.209 112.884C111.38 104.84 105.385 94.082 105.244 88.5313C104.751 68.8043 110.331 65.2977 115.824 63.7558C121.316 62.214 132.9 60.1787 132.9 60.1787C136.215 60.1258 149.448 60.7514 149.448 60.7514L158.114 62.5135C162.721 66.0546 166.787 70.2486 170.183 74.9629C176.425 83.3947 178.637 96.8926 169.257 104.117C168.958 106.677 168.793 109.25 168.764 111.827C169.054 116.831 172.29 128.32 172.951 138.373C158.44 150.752 117.543 149.695 101.824 136.311Z" fill="#002266"/>
<g opacity="0.4">
<path d="M101.824 136.311C105.288 125.562 112.756 118.117 112.209 112.884C111.38 104.84 105.385 94.082 105.244 88.5313C104.751 68.8043 110.331 65.2977 115.824 63.7558C121.316 62.214 132.9 60.1787 132.9 60.1787C136.215 60.1258 149.448 60.7514 149.448 60.7514L158.114 62.5135C162.721 66.0546 166.787 70.2486 170.183 74.9629C176.425 83.3947 178.637 96.8926 169.257 104.117C168.958 106.677 168.793 109.25 168.764 111.827C169.054 116.831 172.29 128.32 172.951 138.373C158.44 150.752 117.543 149.695 101.824 136.311Z" fill="white"/>
</g>
<path d="M81.0265 120.338C79.2633 116.549 83.4862 106.945 87.1977 99.4035C91.5176 90.5929 97.4066 77.5267 100.325 73.0421C102.74 69.3152 106.231 66.161 115.779 63.9055C118.034 67.744 119.307 72.0783 119.487 76.5255C119.667 80.9727 118.748 85.3957 116.811 89.4035L100.325 117.28L81.0265 120.338Z" fill="#B16668"/>
<path d="M87.7179 111.21C91.3413 108.276 95.4407 105.924 105.985 107.686L100.325 117.254L86.3867 119.457L87.7179 111.21Z" fill="#9A4A4D"/>
<path d="M131.198 122.047C131.198 122.241 125.494 123.871 119.737 125.087C113.98 126.302 102.335 128.875 92.5752 127.307C88.0791 126.584 82.6925 123.783 81.0087 120.338C80.0477 118.364 82.7719 112.082 91.0677 110.047C99.3636 108.012 104.292 109.615 111.265 110.144C121.051 110.875 122.938 110.91 123.334 108.241L131.198 122.047Z" fill="#B16668"/>
<path d="M114.756 125.73C114.668 125.879 114.571 126.02 114.474 126.161C116.528 125.774 118.327 125.386 119.764 125.087C125.503 123.871 131.225 122.241 131.225 122.047L123.352 108.285C123.324 109.548 123.098 110.8 122.682 111.994C122.049 113.65 121.261 115.243 120.328 116.752C118.574 119.862 116.854 122.302 114.756 125.73Z" fill="#9A4A4D"/>
<path d="M134.443 114.558C134.36 114.391 134.287 114.221 134.222 114.047C133.64 112.549 133.605 110.884 133.014 109.395C132.085 107.452 130.608 105.823 128.765 104.707C127.594 103.995 126.522 103.133 125.574 102.144C124.88 101.173 124.045 100.312 123.096 99.5885C122.068 98.9026 120.888 98.4763 119.658 98.3462C119.059 98.2525 118.445 98.3383 117.895 98.5929C117.251 98.9453 117.428 99.2978 117.736 99.8264C118.045 100.355 118.389 100.893 118.741 101.421C119.584 102.709 120.499 103.947 121.483 105.13C122.395 106.159 123.096 107.356 123.546 108.655C123.842 109.95 123.787 111.3 123.387 112.567C123.03 113.972 122.528 115.336 121.889 116.637C121.386 117.659 120.795 118.637 120.214 119.615C118.336 122.743 116.458 125.862 114.51 128.946C114.419 129.055 114.352 129.182 114.313 129.318C114.273 129.455 114.262 129.598 114.28 129.738C114.43 130.311 115.418 130.408 115.902 130.408C116.658 130.367 117.377 130.076 117.948 129.58L118.089 129.465C120.046 127.8 124.833 120.655 124.833 120.655C124.833 120.655 123.14 126.329 121.774 130.144C120.407 133.959 119.244 136.831 118.988 137.659C118.732 138.487 121.633 139.078 123.308 136.487C124.983 133.897 128.174 125.43 128.174 125.43C128.174 125.43 128.642 130.153 128.941 133.219C129.241 136.285 129.453 140.373 129.655 141.448C129.858 142.523 132.159 141.827 132.767 139.439C133.376 137.051 132.997 130.355 132.997 130.355C132.997 130.355 134.76 135.492 135.236 136.109C135.712 136.725 137.625 137.272 138.101 134.558C138.427 132.734 137.854 131.227 136.532 126.84C136.285 126.003 136.073 125.157 135.906 124.293C135.791 123.446 135.791 122.586 135.906 121.738C136.106 119.84 135.874 117.922 135.227 116.126C134.963 115.633 134.663 115.104 134.443 114.558Z" fill="#B16668"/>
<path d="M126.385 113.042C128.562 115.492 131.807 115.474 132.485 114.963C131.445 116.769 127.196 116.161 126.385 113.042Z" fill="#9A4A4D"/>
<path d="M137.493 136.056C137.079 136.294 136.259 136.056 135.827 135.175C135.395 134.294 134.566 131.651 134.196 130.373C133.826 129.095 132.591 124.813 132.591 124.813L132.953 130.426C132.953 130.426 134.716 135.562 135.192 136.179C135.338 136.346 135.52 136.478 135.725 136.564C135.929 136.651 136.151 136.689 136.373 136.677C136.594 136.666 136.81 136.603 137.004 136.496C137.199 136.388 137.366 136.238 137.493 136.056Z" fill="#9A4A4D"/>
<path d="M120.214 4.76869L119.993 4.9449C117.974 6.61011 116.608 8.31056 113.981 8.93611C111.353 9.56167 108.885 10.3987 106.981 12.3018C106.164 13.094 105.52 14.0457 105.088 15.0977C104.655 16.1497 104.444 17.2793 104.468 18.4163C104.539 19.4296 105.059 19.7732 105.35 20.6278C105.49 21.1962 105.513 21.7873 105.416 22.3647C105.319 22.942 105.104 23.4934 104.786 23.9846C104.04 25.1083 103.447 26.3261 103.022 27.6058C102.52 29.8085 103.719 32.0728 105.27 33.7732C106.205 34.76 107.316 35.694 107.686 37.0067C108.18 38.7689 107.219 40.531 107.272 42.346C107.351 45.4826 110.551 47.7821 113.672 48.1169C115.435 48.3108 117.454 48.1169 118.829 49.2623C119.861 50.1434 120.24 51.5707 121.192 52.5311C122.179 53.3916 123.414 53.9162 124.718 54.0289C126.887 54.392 129.112 54.2042 131.189 53.4826C133.275 52.7425 135.006 51.2454 136.038 49.2887C136.92 47.5266 137.07 45.4297 138.013 43.6764C139.776 40.3724 143.964 38.9803 145.947 35.7997C146.554 34.8089 146.923 33.6917 147.027 32.5349C147.131 31.3781 146.967 30.213 146.547 29.13C145.859 27.3679 144.528 25.923 144.237 24.0904C143.867 21.7379 145.304 19.4912 145.568 17.13C145.692 15.9121 145.506 14.6828 145.028 13.5556C144.55 12.4284 143.796 11.4397 142.835 10.6806C141.072 9.31497 138.762 8.83919 136.929 7.56165C135.818 6.78632 134.919 5.73786 133.861 4.91847C131.908 3.42124 129.523 2.59727 127.062 2.57027C124.601 2.54326 122.198 3.31467 120.214 4.76869Z" fill="#263238"/>
<path d="M123.863 7.73802C122.794 8.57689 121.909 9.62722 121.265 10.8233C120.62 12.0195 120.229 13.3357 120.116 14.6896C120.007 15.5364 120.101 16.397 120.39 17.2006C120.808 18.0707 121.485 18.791 122.327 19.2638C123.169 19.7367 124.136 19.9391 125.097 19.8438C127.027 19.6198 128.825 18.7541 130.202 17.3857C131.727 16.0351 132.883 14.319 133.561 12.3988C133.958 11.227 134.557 9.05962 134.002 7.84375C132.459 4.38118 126.032 6.08163 123.863 7.73802Z" fill="#002266"/>
<path d="M128.271 6.31942C130.082 4.7404 132.348 3.77771 134.742 3.57051C137.034 3.37667 138.383 3.61456 140.622 3.09473C142.862 2.5749 144.695 1.47358 146.794 0.953751C151.475 -0.20044 156.579 1.79076 159.885 5.29739C161.349 6.84805 162.645 8.75996 164.672 9.40313C165.7 9.62858 166.744 9.77876 167.793 9.85247C171.073 10.3811 173.771 12.9891 175.067 16.0199C176.035 18.4588 176.43 21.0872 176.221 23.7028C176.098 26.0376 174.793 28.02 174.458 30.2491C174.123 32.4781 176.019 34.9627 176.31 37.2976C176.618 39.7733 175.781 42.5839 173.568 43.7734C173.776 41.4788 173.15 39.1862 171.805 37.3152C171.891 39.007 171.633 40.6988 171.045 42.2876C170.457 43.8765 169.551 45.3292 168.384 46.5575C167.196 47.7609 165.731 48.6557 164.118 49.164C162.504 49.6723 160.791 49.7787 159.127 49.4738C157.865 49.0909 156.578 48.7965 155.275 48.5928C152.674 48.4342 150.347 50.0465 148.16 51.4562C145.454 53.2183 142.871 54.0113 139.67 53.2183C136.47 52.4254 132.935 51.606 130.264 49.5619C127.566 47.5978 125.136 45.2905 123.035 42.6985C118.715 37.0773 118.018 30.2755 119.349 23.4913C119.736 21.0745 120.555 18.7468 121.765 16.619C122.374 15.6453 123.109 14.7564 123.951 13.9758C124.137 13.8173 125.838 12.6543 125.856 13.1476C125.786 11.9064 125.964 10.6636 126.378 9.49148C126.793 8.31935 127.436 7.24115 128.271 6.31942Z" fill="#263238"/>
<path d="M124.401 30.9276C127.257 30.2316 129.435 31.5355 130.572 34.5752C131.533 37.2184 134.319 36.6809 134.169 32.725C141.028 27.6677 134.372 23.0333 140.129 18.0465C143.726 14.9275 150.329 16.7073 152.753 19.2447C153.652 18.0397 154.934 17.1758 156.388 16.7948C157.843 16.4137 159.384 16.5382 160.758 17.1478C163.465 18.487 165.052 20.4077 165.916 24.4958C166.797 28.7514 165.263 29.3417 165.589 32.3109C165.984 34.4112 166.182 36.5438 166.18 38.6809C165.916 48.3726 162.319 53.5445 159.057 55.4211C155.948 57.0433 152.405 57.6416 148.936 57.1304L148.698 62.5401C148.698 62.5401 154.199 72.1789 153.3 78.9807C147.613 76.7252 142.193 73.8471 137.14 70.3992C129.029 64.8132 128.739 61.3154 128.739 61.3154L130.211 43.6942C129.391 45.1567 125.344 46.5136 122.514 43.5356C118.926 39.7999 119.358 32.1611 124.401 30.9276Z" fill="#B16668"/>
<path d="M164.276 30.1169L160.106 27.9143C160.236 27.6354 160.422 27.3861 160.652 27.1814C160.881 26.9767 161.151 26.8209 161.443 26.7236C161.735 26.6263 162.044 26.5895 162.35 26.6155C162.657 26.6415 162.955 26.7296 163.227 26.8746C163.784 27.178 164.203 27.6834 164.398 28.2867C164.594 28.8899 164.55 29.545 164.276 30.1169Z" fill="#263238"/>
<path d="M148.345 27.6058L144.14 29.6675C143.992 29.3979 143.901 29.1011 143.872 28.7951C143.843 28.4891 143.876 28.1804 143.97 27.8878C144.064 27.5952 144.217 27.3247 144.419 27.093C144.621 26.8612 144.868 26.673 145.145 26.5397C145.715 26.2827 146.361 26.2498 146.954 26.4473C147.547 26.6449 148.044 27.0585 148.345 27.6058Z" fill="#263238"/>
<path d="M147.667 43.1477L153.935 46.0464C153.731 46.481 153.438 46.8685 153.077 47.1842C152.715 47.4999 152.291 47.7369 151.833 47.8802C151.374 48.0236 150.891 48.0701 150.413 48.0168C149.936 47.9635 149.475 47.8115 149.059 47.5706C147.376 46.7072 146.944 44.9186 147.667 43.1477Z" fill="#9A4A4D"/>
<path d="M150.928 47.9938C150.938 47.0966 150.615 46.2277 150.02 45.5554C149.426 44.8831 148.602 44.4553 147.71 44.355H147.375C147.273 45.0028 147.383 45.6665 147.69 46.2464C147.996 46.8263 148.483 47.291 149.077 47.5709C149.65 47.8605 150.286 48.0057 150.928 47.9938Z" fill="#FFA8A7"/>
<path d="M154.332 30.6543L154.861 42.8041L161.049 41.1037L154.332 30.6543Z" fill="#9A4A4D"/>
<path d="M150.029 33.0333C150.002 33.4227 149.86 33.7953 149.621 34.104C149.382 34.4127 149.057 34.6437 148.687 34.7677C148.316 34.8917 147.918 34.9033 147.541 34.8008C147.164 34.6983 146.826 34.4865 146.57 34.1921C146.313 33.8976 146.15 33.5339 146.1 33.1467C146.051 32.7595 146.117 32.3664 146.291 32.017C146.465 31.6676 146.739 31.3776 147.078 31.1837C147.417 30.9897 147.806 30.9006 148.196 30.9276C148.455 30.9443 148.708 31.0122 148.941 31.1274C149.174 31.2425 149.381 31.4026 149.552 31.5984C149.722 31.7942 149.852 32.0218 149.934 32.2681C150.016 32.5144 150.048 32.7744 150.029 33.0333Z" fill="#263238"/>
<path d="M163.579 33.1918C163.553 33.5827 163.412 33.9571 163.172 34.2672C162.933 34.5774 162.606 34.8093 162.235 34.9335C161.863 35.0577 161.462 35.0685 161.084 34.9645C160.707 34.8606 160.368 34.6465 160.112 34.3497C159.856 34.0529 159.695 33.6867 159.648 33.2978C159.601 32.9088 159.671 32.5148 159.849 32.1657C160.027 31.8167 160.305 31.5284 160.647 31.3378C160.99 31.1471 161.381 31.0625 161.772 31.0949C162.288 31.1377 162.767 31.3815 163.105 31.7737C163.443 32.166 163.613 32.6752 163.579 33.1918Z" fill="#263238"/>
<path d="M148.971 57.0775C142.8 55.4123 135.933 54.0819 132.741 44.9629C133.234 49.1208 135.343 52.9183 138.613 55.5356C141.591 57.7703 145.026 59.3224 148.672 60.0819L148.971 57.0775Z" fill="#9A4A4D"/>
</g>
<defs>
<clipPath id="clip0_240_1754">
<rect width="423" height="406" fill="white"/>
</clipPath>
</defs>
</svg>
