<svg width="25" height="24" viewBox="0 0 25 24" fill="none" xmlns="http://www.w3.org/2000/svg">
<path d="M22.4151 5.23212C22.4148 5.21825 22.4141 5.20441 22.413 5.19058C22.4121 5.1793 22.411 5.16809 22.4097 5.15696C22.4081 5.144 22.406 5.13112 22.4037 5.11823C22.4017 5.10661 22.3994 5.09507 22.3969 5.08365C22.3941 5.07143 22.3909 5.05932 22.3875 5.04723C22.3842 5.03568 22.3809 5.02423 22.3771 5.01292C22.3732 5.00111 22.3688 4.98948 22.3643 4.97786C22.36 4.96674 22.3555 4.95573 22.3507 4.9449C22.3456 4.93346 22.3401 4.92222 22.3344 4.911C22.329 4.90036 22.3235 4.88983 22.3176 4.87949C22.3115 4.8688 22.305 4.85829 22.2984 4.84783C22.2916 4.83728 22.2847 4.82693 22.2775 4.81675C22.2707 4.80716 22.2636 4.79775 22.2563 4.78841C22.2481 4.77791 22.2396 4.76769 22.2308 4.75765C22.2267 4.75291 22.2232 4.74788 22.2189 4.74321C22.2153 4.73928 22.2113 4.73594 22.2076 4.73209C22.1986 4.72261 22.1892 4.71353 22.1797 4.70453C22.1708 4.6962 22.162 4.68794 22.1528 4.68009C22.1438 4.6724 22.1345 4.66512 22.1251 4.65784C22.1149 4.64987 22.1046 4.64198 22.0941 4.63463C22.0849 4.62825 22.0754 4.62232 22.066 4.61634C22.0548 4.60929 22.0437 4.60227 22.0323 4.59586C22.0223 4.59027 22.012 4.58522 22.0018 4.58009C21.9905 4.57444 21.9793 4.56874 21.9678 4.56368C21.9566 4.55874 21.9451 4.55444 21.9336 4.55004C21.9225 4.54583 21.9116 4.54155 21.9004 4.53789C21.8883 4.53388 21.8759 4.53054 21.8635 4.52715C21.8524 4.52413 21.8413 4.52109 21.8302 4.51859C21.8178 4.51582 21.8053 4.51365 21.7927 4.5115C21.7808 4.50948 21.769 4.50752 21.757 4.50607C21.7452 4.50463 21.7332 4.50367 21.7212 4.5028C21.7081 4.50184 21.695 4.50108 21.6819 4.50081C21.6765 4.50069 21.6714 4.5 21.666 4.5H3.66602C3.66098 4.5 3.65613 4.50066 3.65109 4.50076C3.63727 4.50103 3.62344 4.50181 3.60967 4.50284C3.59827 4.50371 3.58696 4.5046 3.57574 4.50595C3.56316 4.50746 3.55066 4.50952 3.53812 4.5117C3.52617 4.51376 3.51422 4.51579 3.5025 4.51842C3.49069 4.52106 3.47906 4.52426 3.46735 4.52747C3.45553 4.53072 3.44373 4.5339 3.43214 4.5377C3.42043 4.54154 3.40889 4.54601 3.39731 4.55045C3.38637 4.55466 3.37538 4.55878 3.36467 4.56347C3.35272 4.56871 3.34104 4.57462 3.32933 4.58052C3.31948 4.58547 3.30964 4.59029 3.30008 4.59565C3.28836 4.60222 3.27691 4.60943 3.26547 4.61669C3.25631 4.6225 3.24707 4.62827 3.23819 4.63447C3.22743 4.64193 3.21704 4.64994 3.20665 4.65804C3.1974 4.66521 3.18825 4.67239 3.17937 4.67999C3.17012 4.68789 3.16119 4.6962 3.15222 4.70464C3.14275 4.71357 3.13345 4.72263 3.12444 4.73204C3.12077 4.73591 3.11675 4.73927 3.11313 4.74321C3.10887 4.74788 3.1053 4.75291 3.10118 4.75765C3.09244 4.7677 3.08392 4.77791 3.07568 4.78841C3.0684 4.79775 3.06131 4.80716 3.05453 4.81675C3.0473 4.82693 3.04039 4.83728 3.03366 4.84783C3.02702 4.85829 3.02057 4.86879 3.01443 4.87948C3.00857 4.88983 3.00303 4.90036 2.99763 4.911C2.99196 4.92221 2.98642 4.93345 2.98129 4.9449C2.97648 4.95572 2.97204 4.96673 2.96774 4.97786C2.96321 4.98948 2.95881 5.00111 2.95488 5.01292C2.95113 5.02423 2.94778 5.03567 2.94453 5.04723C2.94115 5.05932 2.93794 5.07142 2.93515 5.08365C2.93259 5.09507 2.93034 5.1066 2.92828 5.11823C2.92599 5.13112 2.92398 5.144 2.92238 5.15696C2.921 5.1681 2.91989 5.17931 2.91903 5.19058C2.91794 5.20443 2.91723 5.21827 2.91693 5.23212C2.91679 5.23812 2.91602 5.24396 2.91602 5.25V18C2.91647 18.3977 3.07465 18.779 3.35586 19.0602C3.63706 19.3414 4.01833 19.4995 4.41602 19.5H20.916C21.3137 19.4995 21.695 19.3414 21.9762 19.0602C22.2574 18.779 22.4156 18.3977 22.416 18V5.25C22.416 5.24396 22.4152 5.23812 22.4151 5.23212ZM4.41602 6.95496L9.91971 12L4.41602 17.0451V6.95496ZM5.59421 18L11.0297 13.0175L12.1592 14.0529C12.2975 14.1797 12.4784 14.25 12.666 14.25C12.8537 14.25 13.0345 14.1797 13.1729 14.0529L14.3024 13.0175L19.7379 18H5.59421ZM15.4123 12L20.9162 6.95483L20.9169 17.0458L15.4123 12Z" fill="#001133"/>
</svg>
