<svg width="75" height="24" viewBox="0 0 75 24" fill="none" xmlns="http://www.w3.org/2000/svg">
<path d="M26.4889 5.80067C26.58 5.80067 26.6698 5.80289 26.7631 5.80733C27.3287 5.80733 27.8942 5.88939 28.4619 6.08345C28.999 6.2775 29.4803 6.55473 29.8478 6.93841C30.2165 7.35203 30.4133 7.87765 30.4133 8.51083V8.61396H30.4077V8.81689H30.4145V9.70623C29.3472 8.84462 27.8407 8.3068 26.1669 8.3068C22.9343 8.3068 20.3139 10.3161 20.3139 12.7945C20.3139 15.2264 22.8308 17.2046 25.9746 17.2823C26.0383 17.2845 26.1032 17.2845 26.1669 17.2845C27.8395 17.2845 29.3472 16.7467 30.4145 15.8828V17.2845H34.0101C34.0101 17.2845 34.0101 8.59622 34.0101 8.59511C34.0101 7.33762 33.7313 6.0402 32.961 5.01003C32.2669 4.08077 31.2656 3.36996 30.1391 3.0262C29.0548 2.69575 27.8964 2.69907 26.7597 2.70573C24.888 2.71682 23.0162 2.72125 21.1456 2.72125C20.6791 2.7645 20.2217 2.8399 19.7711 2.94968C19.663 2.97519 19.5549 3.00402 19.4468 3.03396C18.4569 3.31008 17.4932 3.8612 16.5874 4.71617V2.97852H12.9919C12.9338 6.12226 12.7859 9.53989 11.4125 12.4386C11.1759 12.9387 10.8891 13.4344 10.4488 13.7803C10.0608 14.0864 9.57378 14.2572 9.0811 14.3381C8.14807 14.4911 7.11263 14.3082 6.43562 13.6639C5.96455 13.2148 5.70741 12.5872 5.60273 11.9529C5.41726 10.8307 5.54697 9.61641 5.54697 8.47978C5.54697 7.77785 5.54697 7.07591 5.54697 6.37287H9.37011V3.28235H5.54697V0H1.95368V3.28235H0V6.37287H1.95368V12.4696C2.03788 14.4557 2.8025 15.8618 4.18952 16.7167C5.12255 17.2701 6.16938 17.5994 7.32997 17.6837C8.263 17.7535 9.25064 17.6859 10.17 17.5129C10.9642 17.3632 11.7459 17.0815 12.3786 16.5925C12.4924 16.5038 12.6016 16.4096 12.7051 16.3086C12.7939 16.2221 12.8815 16.0835 12.985 16.0248C12.9964 16.0392 12.9941 16.0514 12.9953 16.0691C12.9975 16.1224 12.9907 16.1756 12.9907 16.2288C12.9907 16.3619 12.9907 16.4949 12.9907 16.628C12.9907 16.8509 12.9907 17.0738 12.9907 17.2978C12.9907 17.3067 12.9907 17.3166 12.9907 17.3255H16.5863V10.9249C16.5863 9.32477 17.1802 8.05618 18.3408 7.11916C19.2841 6.35734 20.3935 5.92155 21.6417 5.83173M29.866 13.3512H29.8638C29.5099 13.8036 29.123 14.1352 28.7373 14.378C28.735 14.3803 28.7327 14.3803 28.7305 14.3825C27.9818 14.8515 27.2342 14.9957 26.7347 15.0345C26.704 15.0367 26.6755 15.0389 26.6437 15.0389C26.5902 15.0412 26.5356 15.0412 26.4821 15.0412C26.3626 15.0412 26.2454 15.0367 26.1305 15.0279C25.6572 14.9935 25.2157 14.8793 24.8288 14.7118C24.8174 14.7096 24.8049 14.7007 24.7935 14.6963C24.7867 14.6919 24.7822 14.6896 24.7753 14.6852C23.889 14.2915 23.3041 13.5907 23.3041 12.7923C23.3041 11.5514 24.7276 10.5446 26.4821 10.5446C27.4857 10.5446 28.3777 10.8739 28.9615 11.3884C28.966 11.3929 28.9706 11.3951 28.9751 11.3995C29.0639 11.4683 29.1435 11.5392 29.2186 11.6147C29.2186 11.6147 29.2209 11.6147 29.2232 11.6169C29.4814 11.8686 29.6624 12.1292 29.7887 12.3576C29.7887 12.3576 29.7887 12.3598 29.7909 12.3598C30.014 12.7646 30.0674 13.0751 30.0674 13.0751C30.0026 13.1693 29.9343 13.2625 29.866 13.3512Z" fill="#0055FF"/>
<path d="M74.3933 14.1342V8.62292C74.3933 6.74776 73.7994 5.28512 72.6388 4.2361C71.4497 3.18707 69.8659 2.66367 67.8553 2.6925C66.7527 2.6925 65.5637 2.80228 64.3178 3.04957C63.0422 3.29685 62.0523 3.82248 61.3457 4.622C61.0806 4.9835 60.8883 5.35165 60.7688 5.72868C60.6164 6.19996 60.5765 6.68455 60.6448 7.18689H64.4122C64.4657 6.61137 64.7456 6.22214 65.2781 6.05581C65.9016 5.86397 66.524 5.80852 67.1476 5.83624C67.7131 5.83624 68.2786 5.9183 68.8464 6.11236C69.3834 6.30642 69.8647 6.58143 70.2323 6.96733C70.6009 7.38095 70.7978 7.90657 70.7978 8.53975V9.73515C69.7305 8.87132 68.224 8.3335 66.5502 8.3335C66.0313 8.3335 65.525 8.38561 65.046 8.48431C62.5427 8.99218 60.6971 10.7431 60.6971 12.8234C60.6971 15.3041 63.3176 17.3134 66.5502 17.3134C68.1079 17.3134 69.5222 16.8465 70.5702 16.0836C69.8499 18.6208 67.4593 20.4871 64.6284 20.4871C61.4094 20.4871 58.7571 18.0686 58.4852 14.998V13.9556V8.023C58.4806 7.71029 58.459 7.41089 58.4215 7.12701C58.2474 5.77415 57.7035 4.71958 56.8171 3.96774C55.7123 3.05844 54.439 2.6171 52.9678 2.64371C52.0621 2.67144 51.211 2.83777 50.3917 3.16933C49.5702 3.5264 48.7783 3.94002 48.0432 4.43792C46.8815 3.19706 45.4376 2.61821 43.7126 2.64371C43.0037 2.64371 42.2675 2.78122 41.5314 3.03183C40.7952 3.30795 40.2297 3.74929 39.8633 4.32813V2.94755H36.2393V17.2923H39.8633V8.87908C39.8633 8.08066 40.1466 7.39093 40.7406 6.86531C41.3061 6.3419 42.0138 6.09462 42.8353 6.0669C43.3143 6.03917 43.7126 6.12123 44.079 6.28646C44.4476 6.48052 44.7879 6.70008 45.1554 6.97509C44.079 8.24589 43.3143 9.70743 42.8899 11.3342C42.4371 12.9621 42.5235 14.4247 43.1733 15.6667C43.8252 16.9075 45.2396 17.5962 47.4493 17.6804C48.5518 17.6804 49.544 17.3766 50.4213 16.7978C51.2986 16.2189 51.8641 15.3894 52.1178 14.3149C52.317 13.1838 52.2043 11.9696 51.7799 10.6178C51.3532 9.2938 50.7877 8.05294 50.0515 6.89414C50.6455 6.37074 51.3532 6.09573 52.1463 6.0669C53.0236 6.0669 53.6755 6.31418 54.0704 6.83758C54.439 7.3632 54.6939 8.02411 54.777 8.76929C54.8634 9.51448 54.8919 10.2319 54.8634 10.8928V14.112C54.8589 14.2351 54.8566 14.3548 54.8566 14.4779C54.8566 14.5921 54.8589 14.7064 54.8634 14.8206C54.8942 15.6778 55.0421 16.5072 55.2924 17.2923C56.5281 21.1746 60.2466 24.0001 64.6284 24.0001C69.0034 24.0001 72.7162 21.1835 73.9575 17.3134C74.2113 16.5205 74.3615 15.6855 74.3933 14.8195C74.3979 14.7053 74.4002 14.591 74.4002 14.4768C74.4002 14.3626 74.3979 14.2484 74.3933 14.1342ZM69.1217 14.4081C69.1194 14.4103 69.1172 14.4103 69.1149 14.4125C68.3662 14.8816 67.6186 15.0257 67.1191 15.0645C67.0884 15.0668 67.0599 15.069 67.0281 15.069C66.9746 15.0712 66.92 15.0712 66.8665 15.0712C66.747 15.0712 66.6298 15.0668 66.5149 15.0579C64.9265 14.9326 63.6885 13.9811 63.6885 12.8223C63.6885 11.5815 65.112 10.5746 66.8665 10.5746C67.8701 10.5746 68.7622 10.9039 69.3459 11.4185C69.3504 11.4229 69.355 11.4251 69.3595 11.4296C70.2925 12.1703 70.4507 13.1051 70.4507 13.1051C70.0468 13.6995 69.5825 14.1175 69.1217 14.4081ZM48.7498 13.7061C48.7214 14.4513 48.2685 14.8372 47.4481 14.8649C46.7119 14.8095 46.2864 14.4236 46.2022 13.7061C46.118 13.0175 46.2022 12.2435 46.4855 11.3885C46.7393 10.5336 47.051 9.89815 47.4197 9.43131C47.6734 9.8172 47.9852 10.4526 48.297 11.3065C48.6087 12.1625 48.7783 12.961 48.7498 13.7061Z" fill="#0055FF"/>
</svg>
