<svg width="25" height="24" viewBox="0 0 25 24" fill="none" xmlns="http://www.w3.org/2000/svg">
<path d="M23.3341 16.1183L17.7043 13.7055C17.4104 13.579 17.0895 13.528 16.7708 13.5573C16.4521 13.5866 16.1458 13.6952 15.8799 13.8732L12.8698 15.8796C11.0301 14.9849 9.54111 13.5025 8.63822 11.6668L8.63845 11.6665L10.6379 8.61135C10.812 8.34612 10.9175 8.04188 10.9452 7.72586C10.9729 7.40983 10.9219 7.09187 10.7966 6.80041L8.38163 1.16582C8.21724 0.783342 7.93338 0.464405 7.57255 0.256759C7.21172 0.0491131 6.79334 -0.0360683 6.38005 0.013969C4.75603 0.222777 3.26356 1.01568 2.18146 2.24455C1.09937 3.47343 0.50166 5.05421 0.5 6.6916C0.5 16.2355 8.26448 24 17.8084 24C19.4459 23.9983 21.0267 23.4006 22.2555 22.3185C23.4844 21.2364 24.2773 19.7439 24.4861 18.1198C24.536 17.7066 24.4507 17.2882 24.2431 16.9274C24.0354 16.5666 23.7166 16.2828 23.3341 16.1183Z" fill="#001133"/>
</svg>
