<svg width="120" height="120" viewBox="0 0 120 120" fill="none" xmlns="http://www.w3.org/2000/svg">
<path d="M56.8124 68.5546C58.078 67.2889 60.2577 67.2889 61.5233 68.5546L79.5702 86.6014C82.8983 89.9296 87.328 91.7577 92.0155 91.7577H95.5546L72.7968 114.516C65.6952 121.43 54.1639 121.43 47.0624 114.516L24.2108 91.6874H26.3905C31.078 91.6874 35.5077 89.8593 38.8358 86.5311L56.8124 68.5546ZM61.5233 51.3046C60.0233 52.5936 58.1014 52.6171 56.8124 51.3046L38.8358 33.328C35.5077 29.7889 31.078 28.1718 26.3905 28.1718H24.2108L47.0389 5.33426C54.1639 -1.77809 65.6952 -1.77809 72.7968 5.33426L95.578 28.1014H92.0155C87.328 28.1014 82.8983 29.9296 79.5702 33.2577L61.5233 51.3046ZM26.3905 33.4452C29.6249 33.4452 32.6014 34.7577 35.0858 37.0546L53.0624 55.0311C54.7499 56.5077 56.953 57.5624 59.1796 57.5624C61.3827 57.5624 63.5858 56.5077 65.2733 55.0311L83.3202 36.9843C85.6171 34.7108 88.7811 33.3983 92.0155 33.3983H100.851L114.516 47.0624C121.617 54.1639 121.617 65.6952 114.516 72.7968L100.851 86.4608H92.0155C88.7811 86.4608 85.6171 85.1483 83.3202 82.8514L65.2733 64.8046C62.0155 61.5468 56.3202 61.5468 53.0624 64.828L35.0858 82.7811C32.6014 85.078 29.6249 86.3905 26.3905 86.3905H18.9327L5.33426 72.7968C-1.77809 65.6952 -1.77809 54.1639 5.33426 47.0624L18.9327 33.4452H26.3905Z" fill="#0055FF"/>
</svg>
