<svg width="542" height="372" viewBox="0 0 542 372" fill="none" xmlns="http://www.w3.org/2000/svg">
<path d="M33.2692 364.029H182.295L182.295 21.1848H33.2692L33.2692 364.029Z" fill="#0055FF"/>
<path d="M123.827 364.128H133.57L133.57 0.933502H123.827L123.827 364.128Z" fill="#0055FF"/>
<path d="M123.836 0.941406C123.836 1.86304 123.903 363.983 123.903 363.983H33.7031V20.968L123.836 0.941406Z" fill="#6699FF"/>
<path d="M44.0273 51.0283L44.4708 146.906C44.8497 146.86 45.2262 146.837 45.5981 146.837C50.525 146.837 54.6574 150.828 54.6805 155.894L104.738 149.734C104.717 145.123 108.149 141.226 112.725 140.663L112.275 40.3105C111.63 40.4468 110.993 40.5138 110.364 40.5138C105.486 40.5138 101.307 36.5639 101.284 31.4521L51.2341 42.0891C51.2549 46.4016 48.2452 50.1344 44.0273 51.0306V51.0283ZM47.5383 53.5068C50.9847 51.8621 53.5255 48.7092 54.401 44.9926L98.5102 35.6191C100.076 40.0241 104.028 43.3133 108.791 43.9139L109.214 137.974C105.456 139.457 102.619 142.677 101.626 146.592L57.5562 152.016C56.1426 147.712 52.4699 144.423 47.9564 143.562L47.5383 53.5091V53.5068Z" fill="#6699FF"/>
<path d="M44.1836 225.746L44.3869 340.015C44.3869 340.015 44.3984 340.015 44.403 340.015C49.4201 340.015 53.4924 344.078 53.5016 349.098L66.5824 349.075C66.5824 344.055 70.6455 339.985 75.6648 339.976V224.584C75.3968 224.608 75.1335 224.619 74.8702 224.619C69.904 224.619 65.7855 220.586 65.7855 215.521L52.5037 216.666C52.513 221.394 48.898 225.34 44.1882 225.746H44.1836ZM47.6877 228.52C51.5336 227.111 54.5041 223.868 55.5712 219.912L62.8566 219.283C64.194 223.554 67.7489 226.853 72.163 227.823V336.973C68.033 338.177 64.7715 341.445 63.5749 345.578L56.4975 345.589C55.2917 341.457 52.0187 338.193 47.8794 337.001L47.6877 228.518V228.52Z" fill="#6699FF"/>
<path d="M81.4941 222.515V339.935H81.5103C86.5343 339.935 90.6089 344.007 90.6089 349.033L101.292 349.015C101.329 344.023 105.383 339.995 110.374 339.986L111.28 221.586C111.012 221.609 110.749 221.621 110.485 221.621C105.494 221.621 101.361 217.546 101.401 212.453L89.812 213.451C89.812 218.172 86.1993 222.111 81.4941 222.515ZM84.9936 225.31C88.8949 223.922 91.847 220.704 92.8956 216.696L98.4486 216.218C99.0376 218.149 100.091 219.919 101.555 221.392C103.283 223.134 105.424 224.307 107.757 224.822L106.9 336.98C102.793 338.175 99.5296 341.418 98.3123 345.518L93.614 345.527C92.4129 341.385 89.1398 338.117 84.9959 336.923V225.308L84.9936 225.31Z" fill="#6699FF"/>
<path d="M103.239 189.781C105.269 189.781 106.914 186.589 106.914 182.653C106.914 178.716 105.269 175.524 103.239 175.524C101.21 175.524 99.5645 178.716 99.5645 182.653C99.5645 186.589 101.21 189.781 103.239 189.781Z" fill="#FFD5CC"/>
<path d="M96.1254 180.145V185.764H103.826C104.053 184.836 104.18 183.799 104.18 182.704C104.18 181.803 104.092 180.939 103.933 180.145H96.123H96.1254Z" fill="#330900"/>
<path d="M90.8223 182.652C90.8223 188.584 93.3007 193.393 96.3613 193.393C99.4219 193.393 101.9 188.584 101.9 182.652C101.9 176.72 99.4219 171.911 96.3613 171.911C93.3007 171.911 90.8223 176.72 90.8223 182.652Z" fill="#330900"/>
<path d="M94.873 193.393C97.9322 193.393 100.412 188.584 100.412 182.652C100.412 176.72 97.9322 171.911 94.873 171.911C91.8139 171.911 89.334 176.72 89.334 182.652C89.334 188.584 91.8139 193.393 94.873 193.393Z" fill="#330900"/>
<path d="M2.46694 371.097H539.229C540.592 371.097 541.696 369.483 541.696 367.491C541.696 365.5 540.592 363.886 539.229 363.886H2.46694C1.10412 363.886 0 365.5 0 367.491C0 369.483 1.10412 371.097 2.46694 371.097Z" fill="#0044CC"/>
<path d="M476.138 347.024C476.138 347.024 476.175 347.37 476.175 347.946C476.175 349.676 475.837 353.487 473.135 356.3C469.529 360.052 469.508 364.718 473.317 365.514C477.126 366.311 486.209 365.26 486.209 365.26C486.209 365.26 488.262 361.692 486.86 352.161C485.458 342.631 484.645 332.178 484.645 332.178L474.297 330.562L476.14 347.024H476.138Z" fill="#FF8066"/>
<path d="M474.11 351.073C474.11 351.073 470.271 356.282 469.373 358.456C468.474 360.629 468.668 366.034 469.373 366.591C475.582 371.493 487.351 367.081 487.351 367.081C487.351 367.081 488.159 363.487 488.568 359.075C488.977 354.663 488.746 350.554 487.351 350.554C485.955 350.554 485.711 352.868 482.523 352.214C479.338 351.561 477.377 350.417 474.11 351.071V351.073Z" fill="#001653"/>
<path d="M488.328 361.277C485.935 362.213 482.687 363.305 479.666 363.737C476.441 364.197 472.101 362.763 468.823 361.321C468.654 363.631 468.897 366.22 469.373 366.597C475.582 371.498 487.35 367.087 487.35 367.087C487.35 367.087 487.905 364.627 488.328 361.277Z" fill="white"/>
<path d="M488.327 361.277C479.42 363.952 477.782 364.428 468.822 361.319C470.314 362.12 471.88 362.786 473.507 363.298C476.951 364.366 478.983 364.273 481.132 363.79C483.693 363.22 486.107 362.349 488.327 361.277Z" fill="#957447"/>
<path d="M372.598 184.894C375.146 185.853 378.523 187.274 378.523 187.274C378.959 186.223 370.549 184.426 369.371 181.864C368.741 180.494 379.022 185.539 379.736 184.936C380.031 184.687 368.105 180.804 368.655 179.866C369.117 179.078 381.195 183.335 381.262 182.746C381.355 181.929 370.806 179.81 371.75 178.632C372.233 178.029 385.037 181.492 386.42 181.693C388.111 181.693 381.995 177.537 384.078 176.983C386.908 176.228 394.013 184.375 394.567 184.49C396.175 184.823 409.87 186.5 416.576 182.116C421.992 178.572 427.247 173.126 428.534 168.437C429.795 163.838 431.544 157.268 430.049 152.203C436.15 151.274 442.067 151.062 448.258 151.801C448.634 159.41 439.524 189.56 435.715 192.041C427.335 197.499 412.383 196.164 401.843 195.296C393.348 194.596 385.028 192.924 377.377 189.041C375.668 188.172 373.377 187.2 372.053 185.689C371.711 185.299 372.115 184.71 372.603 184.892L372.598 184.894Z" fill="#F25C12"/>
<path d="M433.857 126.666C429.319 131.355 424.733 159.45 426.42 166.149C429.332 171.589 442.526 172.526 446.793 175.107C456.635 171.06 449.893 152.913 449.893 152.913L453.48 117.565C453.48 117.565 442.503 117.736 433.857 126.669V126.666Z" fill="#FFD633"/>
<path d="M446.266 340.741C447.611 344.966 446.282 349.615 442.838 352.406C441.649 353.369 440.27 354.272 438.708 354.953C432.68 357.589 424.872 356.995 423.782 362.41C422.694 367.824 462.01 360.89 462.01 360.89C462.01 360.89 459.282 347.724 459.107 345.518C458.931 343.312 459.347 335.213 459.347 335.213L444.164 334.123L446.268 340.741H446.266Z" fill="#FF8066"/>
<path d="M460.416 351.573C460.416 351.573 460.896 353.663 461.998 357.209C463.1 360.755 462.412 364.093 462.412 364.093C462.412 364.093 425.585 365.836 424.095 364.67C422.606 363.504 423.37 359.258 423.747 358.881C424.123 358.505 428.796 357.244 431.194 355.765C433.591 354.287 441.775 348.693 444.542 348.917C447.307 349.143 448.585 351.185 453.837 351.418C459.09 351.652 459.111 350.552 460.416 351.571V351.573Z" fill="#001653"/>
<path d="M424.094 364.67C425.584 365.837 462.411 364.093 462.411 364.093C462.411 364.093 462.861 361.903 462.447 359.184C443.225 362.746 423.746 358.882 423.746 358.882C423.369 359.258 422.602 363.504 424.094 364.67Z" fill="white"/>
<path d="M462.446 359.184C449.319 361.806 434.765 361.252 423.744 358.882C443.789 361.908 459.951 359.563 458.833 359.676C458.882 359.67 462.686 359.152 462.446 359.184Z" fill="#957447"/>
<path d="M490.884 213.139C497.202 236.243 489.358 339.879 489.358 339.879L470.442 338.586C470.442 338.586 466.139 235.487 463.018 232.367C462.104 231.452 461.124 231.743 460.371 232.26C459.611 232.785 459.075 233.575 458.805 234.457C456.858 240.818 445.731 277.848 447.976 285.958C450.432 294.837 461.392 342.404 461.392 342.404L445.521 343.039C445.521 343.039 423.76 306.701 423.76 281.331C423.76 255.962 427.298 222.335 437.582 208.651C442.262 202.424 465.307 197.605 465.307 197.605C465.307 197.605 488.914 205.923 490.887 213.142L490.884 213.139Z" fill="#021F6E"/>
<path d="M456.701 342.361C456.701 342.361 445.741 291.643 443.285 282.175C441.502 275.301 448.171 248.927 451.957 235C453.093 230.819 458.115 229.136 461.545 231.785C461.545 231.785 445.521 277.077 447.977 285.956C450.432 294.835 461.392 342.402 461.392 342.402L445.521 343.037C445.521 343.037 445.482 342.97 445.406 342.843L456.701 342.363V342.361Z" fill="#003399"/>
<path d="M486.964 208.345C488.992 209.929 490.459 211.56 490.891 213.14C497.208 236.243 489.364 339.88 489.364 339.88L484.68 339.559C484.943 335.81 491.736 238.262 486.964 208.345Z" fill="#003399"/>
<path d="M433.951 214.847C435.055 212.493 436.266 210.407 437.585 208.652C438.127 207.929 438.92 207.224 439.894 206.545C442.523 207.889 446.159 209.354 451.187 210.899C466.352 215.563 482.701 213.075 489.494 210.712C490.185 211.527 490.67 212.343 490.889 213.142C491.437 215.147 491.878 217.757 492.229 220.852C488.838 223.375 469.124 229.468 451.187 223.76C439.804 220.138 435.561 217.944 433.951 214.849V214.847Z" fill="#003399"/>
<path d="M489.351 347.724C484.505 349.297 472.838 348.907 470.054 347.724C467.486 346.634 467.313 337.078 470.054 336.561C473.907 335.833 484.828 335.914 489.351 336.561C492.114 336.956 492.005 346.863 489.351 347.724Z" fill="#5D70A2"/>
<path d="M460.59 343.461C455.744 345.034 444.076 344.643 441.291 343.461C438.722 342.37 438.549 332.814 441.291 332.297C445.144 331.569 456.065 331.65 460.59 332.297C463.352 332.692 463.244 342.599 460.59 343.461Z" fill="#5D70A2"/>
<path d="M467.816 116.769C467.816 116.769 483.59 115.958 490.037 123.597C496.484 131.235 495.958 211.499 493.347 213.737C490.737 215.977 468.32 222.741 450.513 217.472C432.706 212.203 431.572 204.971 431.572 204.971C431.572 204.971 436.31 150.994 436.31 136.243C436.31 121.492 450.714 112.8 467.814 116.769H467.816Z" fill="#FFD633"/>
<path d="M481.731 198.068C483.126 194.192 481.634 181.867 480.047 172.948C478.804 173.186 477.61 173.468 476.483 173.794C474.577 167.894 472.898 152.587 472.843 142.962C472.736 124.908 481.877 119.657 481.877 119.657C483.688 119.244 486.584 120.949 491.118 125.665C496.353 139.977 495.258 206.585 492.802 208.689C491.756 209.587 489.712 215.217 484.436 216.335C483.066 210.95 480.442 201.651 481.731 198.068Z" fill="#FFD633"/>
<path d="M469.177 116.936C472.598 120.079 472.864 120.139 469.309 124.265C465.756 128.39 453.987 133.079 452.31 132.287C448.146 130.321 452.022 123.757 454.793 119.035C455.66 117.562 465.756 113.79 469.177 116.936Z" fill="#FFD633"/>
<path d="M453.888 105.047C453.888 105.047 452.966 126.769 453.888 127.72C454.81 128.672 468.011 124.073 469.161 121.377C470.311 118.682 464.35 79.4141 464.35 79.4141L453.886 105.047H453.888Z" fill="#F25C12"/>
<path opacity="0.6" d="M453.489 119.373C455.822 118.952 457.831 118.359 458.42 117.693C463.805 111.612 459.769 101.739 460.192 99.173C461.035 94.0635 462.751 89.8434 461.89 85.4385L453.884 105.049C453.884 105.049 453.551 112.903 453.486 119.373H453.489Z" fill="#B5450E"/>
<path d="M383.099 129.723C382.201 131.984 384.067 134.178 386.021 133.206C386.481 132.977 386.832 132.566 387.021 132.088C387.922 129.824 386.054 127.628 384.097 128.605C383.637 128.833 383.286 129.244 383.097 129.723H383.099Z" fill="black"/>
<path d="M384.312 130.812L384.98 131.75L385.384 130.627C385.913 129.165 390.396 116.251 385.444 113.312C383.982 112.442 382.603 112.723 381.663 114.075C379.498 117.186 380.17 125.005 384.31 130.812H384.312ZM382.651 114.994C383.109 114.338 383.672 114.135 384.37 114.38C384.529 114.435 384.696 114.514 384.869 114.618C387.876 116.403 385.98 124.635 384.622 128.874C381.314 123.508 381.178 117.115 382.654 114.996L382.651 114.994Z" fill="black"/>
<path d="M384.938 130.095L385.97 130.319C386.911 130.522 387.848 130.617 388.761 130.617C393.357 130.617 397.37 128.242 398.34 125.5C398.855 124.043 398.444 122.657 397.21 121.696C393.087 118.492 386.345 128.041 385.589 129.143L384.936 130.095H384.938ZM387.299 129.062C389.225 126.501 392.798 122.505 395.295 122.505C395.737 122.505 396.145 122.629 396.506 122.909C397.236 123.477 397.453 124.142 397.171 124.941C396.402 127.115 392.191 129.649 387.299 129.06V129.062Z" fill="black"/>
<path d="M414.099 187.21H352.044C348.649 187.21 345.893 184.454 345.893 181.059V137.252C345.893 133.857 348.649 131.101 352.044 131.101H414.099C417.494 131.101 420.25 133.857 420.25 137.252V181.059C420.25 184.454 417.494 187.21 414.099 187.21Z" fill="#FFD633"/>
<path d="M350.761 131.104H374.001V187.213H350.761C348.075 187.213 345.896 183.733 345.896 179.438V138.882C345.896 134.588 348.075 131.107 350.761 131.107V131.104Z" fill="#F29913"/>
<path d="M394.903 131.104H396.737C406.655 149.011 400.578 180.374 399.084 187.213H397.651C398.677 182.605 405.764 148.493 394.986 131.271C394.954 131.22 394.926 131.165 394.9 131.104H394.903Z" fill="black"/>
<path d="M360.607 187.001C360.617 187.073 360.621 187.144 360.621 187.213H359.263C355.26 155.247 359.677 138.337 362.659 131.104H364.34C361.628 137.149 356.424 153.808 360.61 187.001H360.607Z" fill="black"/>
<path d="M517.284 247.876H470.962C470.087 247.876 469.375 247.165 469.375 246.289V216.217C469.375 215.341 470.087 214.63 470.962 214.63H517.284C518.16 214.63 518.871 215.341 518.871 216.217V246.289C518.871 247.165 518.16 247.876 517.284 247.876Z" fill="#50BFA5"/>
<path d="M471.267 244.048H513.191V218.459H471.267V244.048Z" fill="white"/>
<path d="M469.215 238.566H471.844C472.339 238.566 472.74 238.165 472.74 237.67V224.832C472.74 224.337 472.339 223.936 471.844 223.936H469.215C468.72 223.936 468.319 224.337 468.319 224.832V237.67C468.319 238.165 468.72 238.566 469.215 238.566Z" fill="#F29913"/>
<path d="M485.532 198.067C482.412 207.563 493.4 228.103 488.937 234.674C484.475 241.248 486.72 248.148 492.127 251.571C497.535 254.992 504.259 250.196 503.716 247.593C503.173 244.988 501.715 237.975 501.048 234.769C500.38 231.563 512.96 205.877 504.106 190.299C498.851 181.055 506.622 165.147 502.517 154.868C498.844 161.715 481.456 157.437 482.453 164.948C484.04 171.365 487.286 192.729 485.532 198.067Z" fill="#F25C12"/>
<path d="M446.139 82.5272C446.139 82.5272 443.875 90.323 443.875 96.7167C443.875 103.11 444.025 114.179 448.555 114.179C453.084 114.179 459.575 112.932 461.084 103.889C462.594 94.8457 461.083 84.8671 456.556 82.5272C452.027 80.1896 446.141 82.5272 446.141 82.5272H446.139Z" fill="#F25C12"/>
<path d="M447.905 88.2853C449.123 87.7817 450.384 88.8697 450.15 90.2048C449.776 92.3414 449.869 94.6836 451.869 95.171C455.717 96.1111 457.537 95.171 458.166 95.8224C458.796 96.4738 456.346 99.9409 458.166 100.592C459.986 101.244 460.965 95.0278 462.573 95.0278C464.181 95.0278 464.532 103.99 462.573 106.014C460.614 108.037 462.852 110.783 465.442 110.783C468.031 110.783 465.114 114.036 468.602 115.119C472.09 116.202 474.887 116.202 476.007 111.795C477.127 107.388 476.007 104.93 476.007 104.93C476.007 104.93 479.571 100.763 478.666 96.6424C478.162 94.3533 475.845 90.2325 475.845 90.2325C475.845 90.2325 474.048 85.3425 473.559 82.5245C473.069 79.7064 466.13 76.8861 461.379 76.3802C456.627 75.8744 459.007 72.9824 455.017 72.9824C451.028 72.9824 450.481 78.2489 450.481 78.2489C450.481 78.2489 444.787 74.8442 444.521 75.0059C441.207 77.0247 443.962 80.5703 443.962 80.5703C443.962 80.5703 441.234 80.8591 440.673 84.4001C440.114 87.9411 442.422 90.1101 446.062 88.9528C446.75 88.7334 447.365 88.507 447.908 88.283L447.905 88.2853Z" fill="#100062"/>
<path d="M443.968 75.4072C444.67 75.5089 445.594 75.7306 446.701 76.0609C448.405 77.0103 450.484 78.253 450.484 78.253C450.484 78.253 457.917 80.3342 462.179 82.3645C467.64 84.9655 472.423 87.5779 475.634 89.6337C475.768 90.0125 475.849 90.2343 475.849 90.2343C475.849 90.2343 476.701 91.7495 477.484 93.4519C474.103 92.7128 467.499 90.1673 460.133 86.6563C451.815 82.6926 443.499 75.8068 443.968 75.4095V75.4072Z" fill="#0C004A"/>
<path d="M460.048 94.5381C460.048 94.5381 461.972 90.9948 463.686 92.972C465.4 94.9493 464.499 103.309 461.868 103.309C459.237 103.309 459.117 96.7787 460.05 94.5381H460.048Z" fill="#F25C12"/>
<path d="M481.393 119.825C481.393 119.825 476.03 123.908 476.124 141.962C476.175 151.588 479 167.895 480.742 173.792C487.967 171.508 498.156 171.36 505.536 173.792C506.531 165.916 504.522 149.107 503.27 143.676C500.191 130.321 489.06 116.769 481.393 119.825Z" fill="#FFD633"/>
<path d="M448.924 76.3462C452.492 68.8599 461.51 65.7116 469.066 69.3127C476.621 72.9137 479.855 81.9014 476.289 89.3877C476.152 89.6764 476.002 89.9559 475.85 90.2308L448.545 77.217C448.663 76.9237 448.785 76.6326 448.924 76.3462Z" fill="#FFD633"/>
<path d="M454.599 79.7641C454.717 79.4707 454.839 79.1797 454.978 78.8933C457.958 72.6405 464.742 69.4136 471.297 70.6193C470.602 70.1319 469.858 69.6931 469.066 69.3166C461.51 65.7155 452.492 68.8638 448.924 76.3501C448.787 76.6388 448.663 76.9299 448.545 77.2209L475.85 90.2347C475.901 90.1446 454.599 79.7664 454.599 79.7664V79.7641Z" fill="#FFD633"/>
<path d="M436.353 71.7759C436.645 71.1661 450.859 76.9638 459.949 81.2971C469.038 85.6281 476.169 89.6358 475.88 90.2433C475.589 90.8531 460.515 87.312 451.425 82.981C442.336 78.65 436.062 72.3857 436.353 71.7759Z" fill="#FC9700"/>
<path d="M167.569 340.339C167.569 340.339 164.356 343.517 164.284 344.681C164.21 345.848 164 358.339 165.312 359.506C166.624 360.672 170.475 361.499 169.239 362.811C168.303 363.802 161.101 363.59 156.329 363.324C154.936 363.246 153.19 351.978 152.638 350.322C151.836 347.917 149.305 341.865 150.032 340.189C150.388 339.373 152.67 338.327 155.063 336.761C157.581 335.114 159.988 331.443 159.988 331.443L167.573 340.336L167.569 340.339Z" fill="#F7A491"/>
<path d="M210.545 348.143C210.545 348.143 207.669 356.376 207.667 356.396C207.452 357.702 206.611 360.924 206.611 362.109C206.611 366.562 226.43 358.328 221.988 356.355C221.586 356.175 220.325 354.75 220.193 353.232C219.99 350.897 221.863 347.968 221.863 347.968L210.547 348.143H210.545Z" fill="#F7A491"/>
<path d="M208.897 201.368L198.637 213.338L188.577 275.959L156.916 334.377C156.916 334.377 161.677 341.686 166.788 342.836L211.727 283.794L236.082 209.88L235.227 193.457L208.897 201.368Z" fill="#184655"/>
<path d="M234.581 189.812L241.673 211.682C241.673 211.682 247.914 276.832 247.027 281.32C244.86 292.269 222.972 351.887 222.972 351.887L208.949 350.101L224.339 279.613L198.695 213.394L234.581 189.815V189.812Z" fill="#355389"/>
<path d="M302.661 115.363C299.346 119.022 300.067 119.46 299.628 119.918C299.11 120.458 289.488 122.509 289.488 122.509C289.488 122.509 261.169 128.748 259.628 129.028L230.251 122.345L223.1 136.581C223.1 136.581 255.237 142.963 256.969 142.993C258.702 143.021 295.99 129.924 299.309 128.882C299.309 128.882 303.726 129.169 306.502 129.254C309.281 129.34 311.937 128.132 312.72 128.03C312.836 128.016 315.427 127.517 318.451 126.018C321.056 124.725 318.003 124.699 318.003 124.699C318.003 124.699 312.752 126.184 312.706 125.732C312.672 125.383 315.587 124.748 318.483 123.348C319.229 122.988 319.964 122.63 320.634 122.297C322.396 121.419 322.373 120.033 320.382 120.643C319.68 120.858 318.523 121.246 317.735 121.646C316.885 122.077 315.968 122.184 315.199 122.431C313.672 122.923 312.565 123.302 312.579 123.223C312.598 123.124 312.226 122.997 313.007 122.588C313.944 122.098 316.16 121.518 317.483 120.687C318.234 120.216 319.86 119.329 319.86 119.329C319.86 119.329 322.574 117.555 322.308 117.187C321.731 116.388 319.835 117.197 318.897 117.98C318.051 118.155 316.367 119.139 316.367 119.139C316.367 119.139 312.524 120.324 312.348 119.756C312.277 119.53 314.261 118.379 316.24 117.007C318.335 115.557 319.774 114.404 319.574 113.937C319.255 113.194 317.49 114.226 317.49 114.226C317.49 114.226 315.933 115.136 315.395 115.4C314.762 115.705 312.801 116.471 312.801 116.471C312.801 116.471 305.848 118.8 305.726 118.248C305.603 117.696 305.83 116.16 306.211 115.857C306.592 115.557 307.571 115.39 307.953 115.09C308.334 114.79 309.091 114.065 308.768 113.542C308.445 113.02 305.55 113.718 305.55 113.718C305.55 113.718 303.617 114.309 302.658 115.365L302.661 115.363Z" fill="#F8A492"/>
<path d="M240.321 123.856C240.321 123.856 239.31 130.098 238.661 132.405C238.12 134.322 234.32 142.213 234.32 142.213C234.32 142.213 220.699 137.748 214.261 135.193C206.452 132.093 197.425 125.42 198.012 124.575C199.656 122.205 202.31 119.437 206.059 118.5C219.024 115.259 240.324 123.856 240.324 123.856H240.321Z" fill="#9DD926"/>
<path d="M241.894 211.223C228.899 216.353 198.351 213.392 198.351 213.392C198.351 213.392 200.287 200.055 200.97 191.046C201.654 182.045 195.921 167.79 193.5 143.056C192.987 137.811 195.039 123.647 202.391 119.2C204.976 117.641 206.556 117.435 206.556 117.435C206.625 117.435 216.673 115.384 221.801 116.964C223.258 118.262 227.799 122.011 230.412 126.395C233.844 132.202 236.665 138.899 237.328 141.1C240.289 150.908 241.548 179.307 241.548 184.662C241.548 190.016 241.89 211.221 241.89 211.221L241.894 211.223Z" fill="#7EAD1F"/>
<path d="M230.418 126.395C230.418 126.395 230.397 126.402 230.384 126.409C225.39 127.961 206.553 117.491 206.553 117.491L206.56 117.435L208.844 102.497C208.844 102.497 220.601 99.728 219.918 103.976C219.234 108.217 221.511 116.696 221.511 116.696C221.588 116.772 221.682 116.86 221.805 116.964C223.262 118.262 227.804 122.011 230.416 126.395H230.418Z" fill="#F7A491"/>
<path d="M219.914 103.972C220.597 99.7288 208.838 102.498 208.838 102.498L208.648 103.741C208.993 104.573 209.413 105.284 209.923 105.829C212.55 108.638 216.657 110.324 220.207 110.451C219.851 108.164 219.634 105.711 219.914 103.97V103.972Z" fill="#FE875E"/>
<path d="M206.571 79.531C206.211 79.4017 203.686 98.0215 208.479 103.145C213.272 108.268 222.611 109.945 225.96 105.91C229.665 101.447 229.48 81.4321 222.026 76.1633C214.575 70.8921 206.571 79.531 206.571 79.531Z" fill="#F7A491"/>
<path d="M219.19 66.203C213.432 67.3694 209.699 70.8666 208.329 72.3565C205.714 72.6614 202.159 74.0981 198.489 80.1361C193.976 87.56 197.309 95.7854 202.561 99.8208C207.816 103.856 207.756 108.541 207.756 108.541C207.756 108.541 216.658 103.972 215.795 96.9335C215.432 93.9791 214.15 93.3093 215.111 90.9971C216.106 88.5948 215.363 84.8644 215.547 81.6213L216.081 79.5771C216.081 79.5771 219.809 76.6944 223.456 77.5075C227.104 78.3205 226.579 64.7062 219.188 66.203H219.19Z" fill="#13375B"/>
<path d="M216.57 92.9379C216.607 95.2109 216.147 97.0287 214.826 97.0518C213.505 97.0749 213.133 96.1856 212.04 92.9795C211.015 89.9744 212.26 88.8472 213.581 88.8264C214.902 88.8033 216.533 90.6697 216.57 92.9403V92.9379Z" fill="#F7A491"/>
<path d="M155.212 336.685C155.212 336.685 161.922 357.301 164.821 358.319C165.59 358.589 169.979 359.795 170.674 361.449C170.692 361.491 170.706 361.541 170.718 361.597C170.942 362.646 170.062 363.613 168.988 363.613H155.239C155.239 363.613 153.288 354.302 152.516 350.212C152.516 350.212 148.43 340.217 148.885 339.307C149.34 338.399 155.212 336.683 155.212 336.683V336.685Z" fill="#3C8F7C"/>
<path d="M205.484 363.58L207.755 356.313C207.755 356.313 212.523 358.358 214.904 358.018C217.285 357.676 221.94 356.313 221.94 356.313C231.452 359.487 239.245 361.028 237.827 363.58H205.484Z" fill="#3C8F7C"/>
<path d="M303.478 146.833C299.101 149.487 299.36 149.804 298.789 150.132C298.115 150.517 287.713 150.06 287.713 150.06C287.713 150.06 257.047 148.914 255.394 148.796L227.114 135.078L215.969 146.849C215.969 146.849 247.152 160.974 248.919 161.434C250.686 161.893 292.375 158.747 296.052 158.586C296.052 158.586 300.496 159.965 303.316 160.741C306.137 161.517 309.181 161.029 310.01 161.129C310.133 161.143 312.919 161.318 316.418 160.646C319.432 160.066 316.314 159.279 316.314 159.279C316.314 159.279 310.539 159.38 310.616 158.937C310.673 158.595 313.829 158.72 317.171 158.112C318.03 157.955 318.878 157.798 319.656 157.648C321.696 157.251 322.043 155.925 319.844 156.01C319.065 156.038 317.776 156.119 316.864 156.301C315.877 156.498 314.91 156.37 314.057 156.414C312.364 156.5 311.223 156.581 311.26 156.511C311.306 156.421 310.865 156.211 311.771 156.017C312.861 155.786 315.286 155.788 316.864 155.326C317.758 155.065 319.661 154.627 319.661 154.627C319.661 154.627 321.918 153.278 321.904 153.1C321.821 152.13 320.208 152.592 319.037 153.1C318.125 153.054 316.136 153.569 316.136 153.569C316.136 153.569 311.881 153.735 311.856 153.153C311.844 152.929 314.3 152.765 316.831 151.959C319.73 151.037 320.449 149.737 320.366 149.221C320.239 148.434 318.608 149.173 318.608 149.173C318.608 149.173 316.372 150.192 315.75 150.305C315.021 150.439 305.462 150.612 305.485 150.058C305.508 149.501 306.43 148.773 306.901 148.582C307.373 148.39 308.269 148.131 308.74 147.942C309.211 147.75 309.535 146.778 309.343 146.2C309.151 145.623 307.072 145.935 307.072 145.935C307.072 145.935 304.744 146.066 303.483 146.833H303.478Z" fill="#F8A492"/>
<path d="M224.342 159.474C224.342 159.474 229.907 152.454 231.847 149.613C235.612 144.097 238.765 137.881 238.765 137.881C238.765 137.881 223.261 128.951 217.482 125.907C196.28 114.732 196.772 131.397 197.758 135.096C199.962 143.367 224.342 159.474 224.342 159.474Z" fill="#9DD926"/>
<path d="M303.016 123.101C304.85 122.054 306.268 120.417 305.801 118.352C307.372 119.985 305.392 123.001 303.016 123.101Z" fill="#FE875E"/>
</svg>
