<svg width="535" height="338" viewBox="0 0 535 338" fill="none" xmlns="http://www.w3.org/2000/svg">
<path d="M488.359 176.365C488.03 176.736 487.945 176.793 487.759 176.993L487.288 177.508C486.988 177.879 486.673 178.222 486.402 178.622C485.831 179.379 485.302 180.179 484.831 181.008C483.859 182.65 483.102 184.436 482.431 186.236C481.145 189.878 480.374 193.692 479.931 197.549C479.559 201.421 479.431 205.32 479.617 209.206C479.788 213.12 479.974 217.091 480.045 221.034C480.202 228.919 480.145 236.818 479.931 244.703C479.831 248.646 479.688 252.589 479.502 256.531L479.188 262.445L478.988 265.416L478.86 266.916L478.774 267.688L478.717 268.102L478.674 268.331C478.645 268.488 478.588 268.631 478.545 268.773C478.26 269.402 477.517 269.688 476.888 269.388C476.26 269.088 475.974 268.359 476.274 267.731C476.245 267.759 476.231 267.788 476.231 267.816L476.26 267.688L476.303 267.374L476.388 266.674L476.531 265.231L476.76 262.302L477.145 256.431C477.374 252.517 477.56 248.589 477.702 244.661C477.988 236.804 478.145 228.947 478.074 221.091C478.06 217.162 477.902 213.263 477.788 209.306C477.631 205.335 477.817 201.349 478.231 197.378C478.717 193.421 479.56 189.478 480.945 185.707C481.674 183.836 482.474 181.979 483.516 180.25C484.031 179.379 484.588 178.536 485.216 177.722C485.516 177.308 485.859 176.936 486.188 176.536L486.716 175.979C486.873 175.822 487.145 175.536 487.159 175.565C487.388 175.236 487.845 175.151 488.188 175.379C488.53 175.608 488.602 176.065 488.373 176.408L488.359 176.365Z" fill="#5E8217"/>
<path d="M502.045 290.089C502.016 290.503 501.974 290.917 501.931 291.332C500.388 307.274 497.845 323.244 495.231 338H459.633C454.848 310.959 450.262 279.775 451.691 252.263H503.159C503.802 264.391 503.259 277.218 502.045 290.089Z" fill="#330900"/>
<path d="M503.53 264.431H451.305V265.688H503.53V264.431Z" fill="white"/>
<path d="M503.47 275.673H451.373V276.93H503.47V275.673Z" fill="white"/>
<path d="M502.05 290.089C491.322 284.532 481.222 262.348 479.18 252.263H503.164C503.807 264.391 503.264 277.218 502.05 290.089Z" fill="#001133"/>
<path d="M442.59 187.337C436.133 191.065 430.862 200.021 433.847 205.193C436.833 210.364 446.961 209.807 453.403 206.078C459.86 202.35 471.031 189.665 467.188 185.094C463.746 181.008 449.032 183.608 442.59 187.337Z" fill="#5E8217"/>
<path d="M528.354 260.274C537.71 281.959 532.525 298.972 526.44 298.958C516.426 298.943 501.741 278.588 490.728 264.603C479.985 250.475 480.571 234.59 488.385 232.148C501.227 228.134 518.326 236.147 528.354 260.274Z" fill="#5E8217"/>
<path d="M522.229 204.478C534.928 214.306 538.028 227.591 532.099 231.962C526.171 236.333 515.243 231.976 503.644 218.22C495.887 209.021 487.188 203.378 489.174 200.807C493.245 195.55 512.729 197.107 522.243 204.478H522.229Z" fill="#5E8217"/>
<path d="M486.002 166.923C480.774 172.922 479.431 182.608 483.445 184.793C485.645 185.993 492.873 184.95 497.716 178.651C505.001 169.18 516.5 161.009 513.501 157.552C508.644 151.981 491.945 160.095 486.002 166.923Z" fill="#5E8217"/>
<path d="M527.099 297.829C527.099 297.829 527.07 297.829 527.056 297.829C526.799 297.815 526.599 297.586 526.627 297.329C527.384 287.644 510.657 240.318 493.358 232.776C488.401 230.605 483.744 231.848 479.502 236.462C479.33 236.647 479.03 236.662 478.83 236.49C478.645 236.319 478.63 236.019 478.802 235.819C483.344 230.89 488.373 229.576 493.729 231.919C511.785 239.79 528.342 287.316 527.556 297.401C527.542 297.643 527.327 297.829 527.084 297.829H527.099Z" fill="#5E8217"/>
<path d="M532.103 232.431C531.874 232.431 531.674 232.26 531.631 232.031C529.888 219.975 512.561 200.062 496.091 200.062H496.076C485.534 200.062 481.306 207.79 479.62 214.261C479.549 214.518 479.292 214.661 479.049 214.604C478.792 214.532 478.649 214.275 478.706 214.032C480.477 207.233 484.934 199.133 496.076 199.119H496.091C513.004 199.119 530.788 219.546 532.56 231.903C532.602 232.16 532.417 232.403 532.16 232.431C532.131 232.431 532.117 232.431 532.088 232.431H532.103Z" fill="#5E8217"/>
<path d="M434.576 206.663C434.304 206.663 434.076 206.478 434.019 206.192C433.719 204.792 440.961 193.307 456.632 186.251C465.46 182.265 471.302 184.765 473.988 186.608C477.702 189.15 479.859 193.407 479.63 197.735C479.63 197.993 479.387 198.164 479.13 198.178C478.873 198.178 478.673 197.95 478.687 197.678C478.902 193.679 476.887 189.736 473.445 187.379C470.916 185.651 465.417 183.322 457.017 187.108C442.29 193.75 435.361 204.321 434.962 205.921C435.019 205.992 435.047 206.092 435.047 206.192C435.047 206.449 434.833 206.663 434.576 206.663Z" fill="#5E8217"/>
<path d="M482.126 185.249C482.126 185.249 482.069 185.249 482.041 185.249C481.784 185.206 481.612 184.963 481.655 184.706C481.941 183.077 487.869 170.078 505.396 160.664C505.625 160.536 505.911 160.622 506.039 160.85C506.168 161.079 506.082 161.364 505.853 161.493C487.298 171.464 482.626 184.749 482.598 184.877C482.555 185.106 482.355 185.263 482.141 185.263L482.126 185.249Z" fill="#5E8217"/>
<path d="M439.678 218.463C418.322 235.619 416.508 269.459 425.25 272.473C433.107 276.03 445.178 257.303 453.948 242.332C465.248 223.062 474.39 224.019 475.076 215.92C476.49 208.777 456.891 204.963 439.692 218.448L439.678 218.463Z" fill="#5E8217"/>
<path d="M426.136 265.529C426.136 265.529 426.122 265.529 426.108 265.529C425.85 265.515 425.65 265.287 425.665 265.029C425.679 264.715 427.836 233.26 451.063 218.79C463.048 211.319 474.047 210.261 479.09 216.118C479.261 216.318 479.233 216.618 479.033 216.775C478.833 216.947 478.533 216.918 478.376 216.718C473.733 211.319 462.948 212.461 451.563 219.561C428.765 233.789 426.622 264.758 426.608 265.058C426.593 265.315 426.379 265.501 426.136 265.501V265.529Z" fill="#5E8217"/>
<path d="M66.9375 65.6393L148.125 67.2878L149.097 65.5404C156.004 59.3257 154.207 47.4072 147.894 40.599C147.828 40.5331 147.762 40.4672 147.713 40.4012C134.343 26.1585 109.996 16.6962 95.3406 17.0259C66.8551 17.6523 66.954 38.2418 66.954 54.677V65.6558L66.9375 65.6393Z" fill="#FFE066"/>
<path d="M132.047 14.1096C131.354 13.9117 130.778 13.7963 130.135 13.7139C129.508 13.615 128.882 13.5985 128.239 13.582C126.986 13.582 125.717 13.681 124.464 13.9282C121.975 14.4228 119.502 15.4118 117.326 16.9449C115.134 18.445 113.254 20.5221 112.001 22.8794C110.749 25.2532 110.172 27.8907 110.353 30.4294C110.419 31.2207 111.111 31.8141 111.903 31.7647C112.364 31.7317 112.76 31.4844 112.991 31.1217L113.04 31.0558C114.293 29.1601 115.43 27.4951 116.766 26.0939C118.068 24.6762 119.485 23.4729 121.068 22.4178C122.651 21.3463 124.381 20.4397 126.228 19.5495C127.151 19.1044 128.107 18.6758 129.096 18.2307L130.596 17.5713L131.354 17.2416C131.602 17.1098 131.882 17.0108 132.096 16.879L132.36 16.7141C133.036 16.302 133.25 15.4283 132.855 14.7525C132.657 14.4392 132.36 14.2085 132.03 14.1096H132.047Z" fill="#330900"/>
<path d="M116.178 12.0168C115.485 11.819 114.908 11.7036 114.265 11.6211C113.639 11.5222 113.013 11.5057 112.37 11.4893C111.117 11.4893 109.848 11.5882 108.595 11.8354C106.106 12.33 103.633 13.3191 101.457 14.8522C99.2644 16.3523 97.3851 18.4293 96.1323 20.7866C94.8795 23.1604 94.3025 25.798 94.4838 28.3366C94.5498 29.1279 95.2421 29.7214 96.0334 29.6719C96.495 29.6389 96.8906 29.3916 97.1214 29.029L97.1708 28.9631C98.4237 27.0673 99.5611 25.4024 100.896 24.0012C102.199 22.5835 103.616 21.3801 105.199 20.3251C106.781 19.2536 108.512 18.3469 110.359 17.4567C111.282 17.0116 112.238 16.583 113.227 16.138L114.727 15.4786L115.485 15.1489C115.733 15.017 116.013 14.9181 116.227 14.7862L116.491 14.6214C117.167 14.2092 117.381 13.3356 116.985 12.6597C116.788 12.3465 116.491 12.1157 116.161 12.0168H116.178Z" fill="#330900"/>
<path d="M100.335 8.53833C99.6265 8.50536 99.0165 8.53832 98.3736 8.60425C97.7472 8.67019 97.1208 8.78559 96.5109 8.91747C95.2745 9.19771 94.0876 9.60983 92.9337 10.1538C90.6258 11.2088 88.4663 12.7584 86.7025 14.7695C84.9386 16.7477 83.5869 19.1874 82.9275 21.792C82.2681 24.3801 82.3175 27.1001 83.1088 29.5233C83.3561 30.2816 84.1638 30.6937 84.9221 30.4465C85.3672 30.2981 85.6804 29.9684 85.8288 29.5728L85.8618 29.4904C86.6365 27.3474 87.3454 25.4681 88.318 23.8031C89.2576 22.1217 90.3456 20.6216 91.6479 19.2204C92.9337 17.8192 94.4008 16.5169 95.9834 15.2146C96.7746 14.5717 97.5989 13.9288 98.4561 13.2694L99.7419 12.2639L100.401 11.7528C100.616 11.5715 100.863 11.4067 101.028 11.2418L101.258 11.0275C101.819 10.467 101.835 9.56038 101.275 8.9999C101.011 8.73614 100.665 8.58779 100.335 8.5713V8.53833Z" fill="#330900"/>
<path d="M133.567 46.9304C135.002 49.4691 137.606 51.3648 139.387 51.3813C141.167 51.3648 143.771 49.4691 145.206 46.9304C146.656 44.4083 144.052 41.9355 139.387 41.9355C134.721 41.9355 132.117 44.4083 133.567 46.9304Z" fill="#FFEAE6"/>
<path d="M137.572 41.9348C137.572 42.5942 138.545 43.1382 139.748 43.1382C140.952 43.1382 141.924 42.6107 141.924 41.9348C141.924 41.2589 140.952 40.7314 139.748 40.7314C138.545 40.7314 137.572 41.2589 137.572 41.9348Z" fill="black"/>
<path d="M136.933 45.7251C136.669 45.7251 136.422 45.5602 136.339 45.28C136.241 44.9503 136.422 44.6041 136.752 44.5052C138.961 43.8294 139.092 42.3457 139.109 42.1479C139.109 42.1149 139.109 42.0985 139.109 42.0985C139.125 41.7688 139.406 41.5215 139.719 41.5215C140.049 41.5215 140.312 41.8017 140.329 42.1314C140.329 42.1314 140.329 42.1644 140.329 42.1974C140.329 42.3787 140.428 43.8129 142.703 44.4063C143.032 44.4887 143.23 44.8349 143.148 45.1646C143.065 45.4943 142.719 45.6921 142.389 45.6097C140.988 45.2306 140.18 44.6041 139.719 43.9612C139.257 44.6206 138.466 45.2965 137.098 45.7086C137.032 45.7251 136.982 45.7416 136.916 45.7416L136.933 45.7251Z" fill="black"/>
<path d="M146.312 37.9615C146.312 39.2802 147.203 40.3682 148.324 40.3682C149.445 40.3682 150.335 39.2967 150.335 37.9615C150.335 36.6262 149.445 35.5547 148.324 35.5547C147.203 35.5547 146.312 36.6262 146.312 37.9615Z" fill="black"/>
<path d="M129.316 37.9615C129.316 39.2802 130.207 40.3682 131.328 40.3682C132.449 40.3682 133.339 39.2967 133.339 37.9615C133.339 36.6262 132.449 35.5547 131.328 35.5547C130.207 35.5547 129.316 36.6262 129.316 37.9615Z" fill="black"/>
<path d="M119.092 42.6591C119.092 50.6706 126.461 57.9074 136.434 59.3086C147.149 60.8087 156.908 55.3028 158.457 46.6484C160.139 37.2521 151.55 29.29 140.819 27.8064C139.253 27.5921 137.703 27.5261 136.203 27.6086C134.736 27.691 133.318 27.9053 131.95 28.235C129.922 28.746 128.027 29.5373 126.362 30.5428C122.488 32.9001 119.801 36.5268 119.191 40.8458C119.108 41.4557 119.059 42.0491 119.075 42.6591H119.092Z" fill="#FFE066"/>
<path d="M125.805 31.9455L133.684 32.5225L137.245 32.7862C137.245 32.7862 136.882 30.2805 136.223 27.61C135.415 24.3625 134.179 20.8183 132.613 21.2139C131.442 21.5107 130.074 23.3734 128.887 25.467C127.865 27.2803 126.942 29.2585 126.398 30.5443C126.035 31.4015 125.821 31.9455 125.821 31.9455H125.805Z" fill="#FFE066"/>
<path d="M119.092 42.6603C120.163 42.9735 121.317 43.1219 122.521 43.1219C128.719 43.1219 133.73 38.7864 133.73 33.4454C133.73 33.1322 133.714 32.8355 133.681 32.5222C133.516 30.9562 132.906 29.4891 131.966 28.2362C131.159 27.1482 130.12 26.2086 128.884 25.4668C127.862 27.2801 126.939 29.2583 126.395 30.5441C122.521 32.9014 119.834 36.528 119.224 40.847C119.141 41.457 119.092 42.0504 119.108 42.6603H119.092Z" fill="#330900"/>
<path d="M145.222 34.5669C145.222 34.5669 151.107 25.5498 154.041 25.4344C156.975 25.319 156.25 37.7155 156.25 37.7155L145.205 34.5669H145.222Z" fill="#FFE066"/>
<path d="M119.587 39.7426C119.587 39.7426 119.521 39.7426 119.488 39.7426C119.159 39.6932 118.928 39.3635 118.977 39.0338C120.181 31.6981 126.198 29.3408 126.445 29.2419C126.758 29.1265 127.121 29.2749 127.236 29.6046C127.352 29.9178 127.203 30.2804 126.874 30.3958C126.643 30.4782 121.269 32.6213 120.181 39.2316C120.131 39.5283 119.868 39.7426 119.571 39.7426H119.587Z" fill="#330900"/>
<path d="M126.658 31.501L126.048 31.3691L125.471 31.1383L126.048 31.3691L125.471 31.1383C126.592 28.2041 129.46 21.4618 132.526 20.5387C132.856 20.4398 133.202 20.6211 133.301 20.9508C133.4 21.2805 133.219 21.6267 132.889 21.7256C130.812 22.3355 128.24 27.3798 126.658 31.501Z" fill="#330900"/>
<path d="M146.82 32.9006C146.688 32.9006 146.573 32.8676 146.458 32.7852C146.194 32.5874 146.128 32.2082 146.309 31.928C147.958 29.2904 151.04 25.0209 154.008 24.8231C154.337 24.7901 154.651 25.0539 154.667 25.4C154.684 25.7462 154.436 26.043 154.09 26.0595C152.359 26.1748 149.87 28.5816 147.43 32.4885C147.43 32.4885 147.331 32.6368 147.331 32.6533C147.216 32.8182 147.018 32.9006 146.837 32.9006H146.82Z" fill="#330900"/>
<path d="M85.6289 37.946C87.7719 40.1715 89.5523 43.2047 90.4754 47.2764C90.7557 48.5292 90.97 49.8974 91.0689 51.3646C91.0689 51.3646 98.4046 53.0295 102.196 56.6232C102.839 55.1561 103.202 53.5571 103.202 51.9086C103.202 44.1937 95.5362 37.9131 86.0905 37.9131C85.9421 37.9131 85.7773 37.9131 85.6454 37.9131L85.6289 37.946Z" fill="#330900"/>
<path d="M91.1697 58.3206C91.1697 58.3206 91.1203 58.3206 91.0873 58.3206C90.7411 58.2712 90.5103 57.958 90.5598 57.6283C91.0214 54.2324 90.7411 49.9629 89.9004 47.4902C88.5651 43.5833 87.2628 40.5337 85.1858 38.3742C79.8777 32.8188 72.1299 32.2254 69.888 32.1924L69.7891 31.566L69.9209 30.9561C72.2947 31.0055 80.4382 31.6319 86.0759 37.5334C88.3014 39.8578 89.6696 43.0393 91.0543 47.0946C91.9445 49.7321 92.2577 54.2324 91.7796 57.7931C91.7302 58.1063 91.4664 58.3206 91.1697 58.3206ZM69.7891 31.566L69.822 30.9561L69.7891 31.566Z" fill="#330900"/>
<path d="M103.069 66.8762C103.069 66.8762 102.987 66.8762 102.937 66.8762C102.608 66.8102 102.393 66.4805 102.459 66.1509C102.476 66.0519 102.888 63.8265 100.168 61.3703C98.2886 59.4416 95.6181 59.0624 93.2773 58.7327C91.0189 58.403 88.8759 58.1063 88.4638 56.2271C88.3978 55.8974 88.5956 55.5677 88.9418 55.4853C89.2715 55.4193 89.6012 55.6171 89.6836 55.9633C89.8979 56.9359 91.2662 57.1832 93.4586 57.5129C95.8819 57.8591 98.8821 58.2877 101.025 60.4966C104.273 63.4474 103.679 66.3157 103.663 66.4311C103.597 66.7113 103.349 66.9092 103.053 66.9092L103.069 66.8762Z" fill="#330900"/>
<path d="M149.093 43.6653C150.35 43.6653 151.368 42.7502 151.368 41.6213C151.368 40.4923 150.35 39.5771 149.093 39.5771C147.837 39.5771 146.818 40.4923 146.818 41.6213C146.818 42.7502 147.837 43.6653 149.093 43.6653Z" fill="black"/>
<path d="M132.958 42.7757C134.215 42.7757 135.233 41.8605 135.233 40.7316C135.233 39.6027 134.215 38.6875 132.958 38.6875C131.702 38.6875 130.684 39.6027 130.684 40.7316C130.684 41.8605 131.702 42.7757 132.958 42.7757Z" fill="black"/>
<path d="M319.812 244.005C318.461 244.45 339.429 261.577 352.897 287.689C353.787 289.42 355.666 290.442 357.595 290.211C363.843 289.47 378.366 287.854 394.801 286.618C404 285.925 425.726 283.815 425.726 283.815C425.726 283.815 432.716 278.359 413.231 275.985C381.399 272.095 373.355 263.143 373.355 263.143C360.2 246.988 348.248 225.525 348.248 225.525C348.248 225.525 320.867 243.642 319.829 243.988L319.812 244.005Z" fill="#FFAA99"/>
<path d="M280.792 233.948C288.506 255.79 289.495 262.417 292.133 281.424C292.331 282.875 293.353 284.078 294.738 284.523C299.254 285.958 309.59 289.485 323.833 295.799C328.811 297.991 341.801 302.492 349.862 305.228C352.549 306.135 354.758 303.019 353.027 300.761C351.28 298.469 348.692 295.733 344.884 292.749C319.761 273.099 319.761 267.247 319.761 267.247C317.223 256.846 311.371 230.454 309.722 224.585C309.722 224.585 280.478 233.058 280.792 233.965V233.948Z" fill="#FFAA99"/>
<path d="M200.266 124.063L219.438 107.595C226.098 102.864 234.983 103.77 240.242 109.655L336.892 218.026C337.188 218.223 337.452 218.471 337.666 218.751C337.765 218.883 337.848 219.031 337.914 219.18L338.276 219.592L338.112 219.707C339.612 224.768 330.281 236.373 316.187 246.676C302.636 256.583 289.284 261.924 284.404 259.699L284.273 259.798L284.124 259.567C283.696 259.336 283.349 259.04 283.069 258.677C282.706 258.182 282.525 257.589 282.476 256.913L200.25 124.079L200.266 124.063Z" fill="black"/>
<path d="M250.412 109.027C256.742 104.312 265.644 105.219 270.886 111.104C270.886 111.104 369.398 221.452 369.58 221.699C372.794 226.101 363.184 238.596 348.117 249.625C333.049 260.653 318.23 266.01 315.015 261.625C314.817 261.362 297.03 247.366 294.904 228.063L292.431 218.633C289.332 210.523 283.546 210.193 277.809 203.665L262.907 186.686C258.192 179.911 251.862 171.537 251.862 159.42C251.862 147.304 237.999 143.315 233.367 131.512L230.383 123.929L250.395 109.027H250.412Z" fill="#5E8217"/>
<path d="M269.563 337.619H277.476L281.581 307.106L264.156 306.793L269.563 337.619Z" fill="black"/>
<path d="M134.901 337.619H126.988L122.867 307.106L140.308 306.793L134.901 337.619Z" fill="black"/>
<path d="M189.448 337.619H197.361L201.482 307.106L184.041 306.793L189.448 337.619Z" fill="black"/>
<path d="M49.707 337.619H42.4207L37.1621 307.106L55.1139 306.793L49.707 337.619Z" fill="black"/>
<path d="M25.2626 66.3485L36.5546 138.947C40.8571 163.377 62.0894 181.181 86.8989 181.164H105.939C115.912 181.131 124.22 188.813 124.995 198.754L128.259 240.493L263.434 240.377L278.451 180.752L233.382 180.917C208.506 181.033 187.159 163.196 182.84 138.683L175.125 96.2847C172.042 78.7944 156.843 66.0353 139.073 66.0518L28.4441 66.1507C27.3561 66.1507 26.3011 66.2166 25.2461 66.332L25.2626 66.3485Z" fill="#003399"/>
<path d="M244.561 179.172C244.561 179.172 228.95 196.662 220.592 249.759L172.292 256.501L159.5 233.769L234.077 176.237L244.545 179.155L244.561 179.172Z" fill="black"/>
<path d="M87.1449 31.7472C87.8043 31.4999 94.7773 30.7416 96.8049 34.6815C98.8655 38.7037 95.6345 45.6932 84.6722 50.0452C73.7099 54.3972 79.0509 35.0277 79.0509 35.0277L87.1449 31.7472Z" fill="#330900"/>
<path d="M93.9727 214.298C93.9727 214.298 108.71 216.227 135.201 236.008C148.586 245.998 162.928 239.915 174.583 226.381L240.802 149.464L207.816 117.5L93.9727 214.298Z" fill="black"/>
<path d="M114.742 210.423L128.177 225.803C145.486 245.601 175.983 246.491 194.396 227.715L265.478 155.265L235.163 120.564L114.759 210.423H114.742Z" fill="#5E8217"/>
<path d="M153.184 144.058L153.712 145.574L177.763 123.534L192.517 71.9043L262.346 72.2505C263.978 72.2505 265.857 73.8495 265.396 76.9981L254.417 126.089C254.186 127.112 253.708 128.051 252.999 128.809L229.97 153.932C228.371 155.35 226.179 155.515 225.025 155.399L155.509 148.212C154.322 148.097 153.201 147.338 153.168 146.3V144.041L153.184 144.058Z" fill="black"/>
<path d="M177.531 121.291L251.877 125.89L263.861 75.2489C264.274 73.518 263.251 72.1662 261.537 72.1497L192.499 71.9189C190.702 71.9189 188.84 73.4191 188.411 75.2324L177.498 121.291H177.531Z" fill="#002266"/>
<path d="M182.674 119.363L186.845 119.61L227.381 122L246.932 123.171C248.201 123.253 249.553 122.363 250.13 121.193C250.163 121.143 250.179 121.094 250.212 121.028C250.278 120.879 250.327 120.715 250.36 120.55L250.393 120.467L253.146 108.829L254.597 102.664L254.63 102.516L260.663 77.0137C261.01 75.563 260.119 74.4256 258.652 74.4256L236.299 74.3596L193.521 74.2607C192.071 74.2607 190.57 75.4477 190.224 76.8818L180.812 116.643L180.779 116.758C180.449 118.143 181.257 119.264 182.641 119.346L182.674 119.363Z" fill="#CCDDFF"/>
<path d="M154.566 145.854L224.461 152.448C226.522 152.646 228.566 151.92 229.885 150.519L251.875 125.875L177.529 121.275L153.61 143.563C152.736 144.387 153.297 145.706 154.566 145.838V145.854Z" fill="#002266"/>
<path d="M233.679 141.949L248.136 126.701L178.703 122.497L164.295 135.602L233.679 141.949Z" fill="#6699FF"/>
<path d="M221.283 148.806C221.135 148.806 220.986 148.757 220.854 148.641C220.607 148.411 220.591 148.015 220.821 147.768L244.972 121.755C245.202 121.508 245.598 121.491 245.845 121.722C246.092 121.953 246.109 122.348 245.878 122.596L221.728 148.608C221.613 148.74 221.448 148.806 221.283 148.806Z" fill="black"/>
<path d="M214.408 147.272C214.26 147.272 214.111 147.223 213.979 147.107C213.732 146.876 213.716 146.481 213.946 146.234L238.097 120.221C238.327 119.973 238.723 119.957 238.97 120.188C239.217 120.418 239.234 120.814 239.003 121.061L214.853 147.074C214.738 147.206 214.573 147.272 214.408 147.272Z" fill="black"/>
<path d="M207.568 146.054C207.42 146.054 207.271 146.005 207.14 145.889C206.892 145.659 206.876 145.263 207.107 145.016L231.257 119.003C231.488 118.756 231.883 118.739 232.13 118.97C232.378 119.201 232.394 119.596 232.163 119.844L208.013 145.856C207.898 145.988 207.733 146.054 207.568 146.054Z" fill="black"/>
<path d="M200.726 146.005C200.578 146.005 200.43 145.956 200.298 145.841C200.051 145.61 200.034 145.214 200.265 144.967L224.415 118.954C224.646 118.707 225.041 118.69 225.289 118.921C225.536 119.152 225.552 119.548 225.322 119.795L201.171 145.808C201.056 145.94 200.891 146.005 200.726 146.005Z" fill="black"/>
<path d="M193.853 144.487C193.705 144.487 193.557 144.437 193.425 144.322C193.177 144.091 193.161 143.696 193.392 143.448L217.542 117.435C217.773 117.188 218.168 117.172 218.416 117.403C218.663 117.633 218.679 118.029 218.449 118.276L194.298 144.289C194.183 144.421 194.018 144.487 193.853 144.487Z" fill="black"/>
<path d="M187.01 143.267C186.861 143.267 186.713 143.218 186.581 143.102C186.334 142.872 186.317 142.476 186.548 142.229L210.698 116.216C210.929 115.968 211.325 115.952 211.572 116.183C211.819 116.414 211.836 116.809 211.605 117.056L187.455 143.069C187.339 143.201 187.174 143.267 187.01 143.267Z" fill="black"/>
<path d="M180.154 143.004C180.006 143.004 179.857 142.955 179.726 142.84C179.478 142.609 179.462 142.213 179.693 141.966L203.843 115.953C204.073 115.706 204.469 115.689 204.716 115.92C204.964 116.151 204.98 116.547 204.749 116.794L180.599 142.807C180.484 142.939 180.319 143.004 180.154 143.004Z" fill="black"/>
<path d="M173.295 141.472C173.146 141.472 172.998 141.423 172.866 141.307C172.619 141.077 172.602 140.681 172.833 140.434L196.983 114.421C197.214 114.174 197.61 114.157 197.857 114.388C198.104 114.619 198.121 115.014 197.89 115.262L173.74 141.274C173.624 141.406 173.46 141.472 173.295 141.472Z" fill="black"/>
<path d="M166.437 140.267C166.289 140.267 166.141 140.218 166.009 140.102C165.761 139.872 165.745 139.476 165.976 139.229L190.126 113.216C190.357 112.968 190.752 112.952 191 113.183C191.247 113.414 191.263 113.809 191.032 114.056L166.882 140.069C166.767 140.201 166.602 140.267 166.437 140.267Z" fill="black"/>
<path d="M253.526 133.195C253.526 133.195 253.493 133.195 253.477 133.195L158.755 126.14C158.409 126.107 158.162 125.81 158.179 125.48C158.211 125.134 158.508 124.87 158.838 124.903L253.559 131.959C253.905 131.992 254.152 132.288 254.136 132.618C254.119 132.948 253.839 133.195 253.526 133.195Z" fill="black"/>
<path d="M252.373 138.964C252.373 138.964 252.341 138.964 252.324 138.964L157.669 131.299C157.323 131.266 157.075 130.969 157.108 130.64C157.141 130.293 157.438 130.046 157.768 130.079L252.423 137.745C252.769 137.777 253.016 138.074 252.983 138.404C252.95 138.734 252.687 138.964 252.373 138.964Z" fill="black"/>
<path d="M182.675 119.364L186.846 119.611L227.382 122.001L246.932 123.172C248.202 123.254 249.554 122.364 250.131 121.193C250.163 121.144 250.18 121.095 250.213 121.029C250.295 120.847 250.361 120.666 250.411 120.468H250.378L227.596 119.215L180.796 116.66L180.763 116.776C180.433 118.16 181.241 119.281 182.626 119.364H182.675Z" fill="#001133"/>
<path d="M201.898 113.197L242.879 115.274C243.901 115.34 244.825 114.631 245.039 113.609L252.556 81.876L253.133 79.2549C253.281 78.4966 252.721 77.7878 251.979 77.7713L210.998 77.4746C210.025 77.4746 209.185 78.134 208.954 79.0736L208.393 81.332L200.827 111.68C200.646 112.422 201.173 113.147 201.915 113.18L201.898 113.197Z" fill="#6699FF"/>
<path d="M242.995 115.735C242.995 115.735 242.896 115.735 242.846 115.735L201.865 113.658C201.387 113.625 200.942 113.378 200.646 112.982C200.349 112.587 200.25 112.076 200.365 111.581L208.492 78.9579C208.772 77.804 209.778 77.0127 210.965 77.0127L251.946 77.3094C252.44 77.3094 252.902 77.5402 253.199 77.9359C253.512 78.3315 253.644 78.8425 253.545 79.337L252.968 81.9581L245.451 113.708C245.204 114.895 244.182 115.719 242.978 115.719L242.995 115.735ZM201.915 112.752L242.896 114.829C243.737 114.862 244.429 114.334 244.594 113.526L252.671 79.1722C252.721 78.9414 252.671 78.7106 252.506 78.5128C252.358 78.3315 252.16 78.2326 251.946 78.2326L210.965 77.9359C210.207 77.9359 209.547 78.4469 209.366 79.1887L201.239 111.812C201.19 112.026 201.239 112.273 201.371 112.455C201.503 112.636 201.701 112.735 201.915 112.752Z" fill="#002266"/>
<path d="M208.377 81.3319L252.539 81.8594L253.116 79.2384C253.265 78.4801 252.704 77.7712 251.962 77.7547L210.982 77.458C210.009 77.458 209.168 78.1174 208.937 79.057L208.377 81.3154V81.3319Z" fill="#002266"/>
<path d="M244.573 103.819C244.573 103.819 244.573 103.819 244.557 103.819L205.224 102.286C204.977 102.286 204.779 102.071 204.796 101.824C204.796 101.577 205.01 101.396 205.241 101.396C205.241 101.396 205.241 101.396 205.257 101.396L244.59 102.929C244.837 102.929 245.035 103.143 245.019 103.39C245.019 103.637 244.804 103.819 244.573 103.819Z" fill="#002266"/>
<path d="M245.614 100.094L206.281 98.7748C206.034 98.7748 205.836 98.5605 205.853 98.3133C205.853 98.066 206.067 97.8682 206.298 97.8682L245.63 99.1869C245.877 99.1869 246.075 99.4012 246.059 99.6485C246.059 99.8958 245.844 100.094 245.614 100.094Z" fill="#002266"/>
<path d="M246.62 96.3509L207.271 95.2299C207.024 95.2299 206.826 95.0156 206.826 94.7683C206.826 94.5211 207.04 94.3232 207.271 94.3232L246.62 95.4442C246.868 95.4442 247.065 95.6585 247.065 95.9058C247.065 96.1531 246.851 96.3509 246.62 96.3509Z" fill="#002266"/>
<path d="M247.62 92.6073L208.271 91.7006C208.024 91.7006 207.826 91.4863 207.826 91.239C207.826 90.9918 208.04 90.7939 208.271 90.7939L247.62 91.7006C247.868 91.7006 248.065 91.9149 248.065 92.1622C248.065 92.4094 247.851 92.6073 247.62 92.6073Z" fill="#002266"/>
<path d="M248.593 88.8666L209.244 88.1742C208.997 88.1742 208.799 87.9599 208.799 87.7127C208.799 87.4654 208.997 87.2676 209.244 87.2676L248.593 87.9599C248.84 87.9599 249.038 88.1743 249.038 88.4215C249.038 88.6688 248.84 88.8666 248.593 88.8666Z" fill="#002266"/>
<path d="M249.55 85.1083L210.201 84.6303C209.954 84.6303 209.756 84.416 209.756 84.1687C209.756 83.9215 209.954 83.7236 210.201 83.7236L249.55 84.2017C249.797 84.2017 249.995 84.416 249.995 84.6632C249.995 84.9105 249.797 85.1083 249.55 85.1083Z" fill="#002266"/>
<path d="M185.678 115.338L210.454 116.558C211.839 116.624 212.614 115.503 213.092 114.135L214.081 110.656C214.542 108.744 213.537 107.92 211.707 107.969L189.7 107.195C188.315 107.129 187.326 108.068 187.062 109.618L185.678 115.338Z" fill="#002266"/>
<path d="M249.75 79.7508C249.75 80.1465 250.063 80.4597 250.442 80.4597C250.822 80.4597 251.135 80.1465 251.135 79.7508C251.135 79.3552 250.822 79.042 250.442 79.042C250.063 79.042 249.75 79.3552 249.75 79.7508Z" fill="#F5FBE9"/>
<path d="M247.479 79.7508C247.479 80.1465 247.792 80.4597 248.171 80.4597C248.55 80.4597 248.863 80.1465 248.863 79.7508C248.863 79.3552 248.55 79.042 248.171 79.042C247.792 79.042 247.479 79.3552 247.479 79.7508Z" fill="#F5FBE9"/>
<path d="M245.188 79.7508C245.188 80.1465 245.501 80.4597 245.88 80.4597C246.259 80.4597 246.572 80.1465 246.572 79.7508C246.572 79.3552 246.259 79.042 245.88 79.042C245.501 79.042 245.188 79.3552 245.188 79.7508Z" fill="#F5FBE9"/>
<g opacity="0.44">
<path d="M211.792 110.529L189.34 109.721C189.175 109.721 189.043 109.573 189.043 109.408C189.043 109.243 189.175 109.128 189.356 109.111L211.808 109.919C211.973 109.919 212.105 110.067 212.105 110.232C212.105 110.397 211.973 110.529 211.808 110.529H211.792Z" fill="#F5FBE9"/>
<path d="M211.277 112.67L188.775 111.862C188.61 111.862 188.479 111.714 188.479 111.549C188.479 111.384 188.627 111.252 188.792 111.252L211.293 112.06C211.458 112.06 211.59 112.208 211.59 112.373C211.59 112.538 211.458 112.67 211.293 112.67H211.277Z" fill="#F5FBE9"/>
<path d="M210.604 114.862L188.086 113.84C187.921 113.84 187.79 113.692 187.806 113.527C187.806 113.362 187.921 113.23 188.119 113.247L210.637 114.269C210.802 114.269 210.934 114.417 210.918 114.582C210.918 114.747 210.769 114.862 210.621 114.862H210.604Z" fill="#F5FBE9"/>
</g>
<path opacity="0.22" d="M190.504 76.9824L181.058 116.859C180.728 118.244 181.536 119.365 182.921 119.447L187.091 119.694C194.921 117.304 202.274 110.15 208.422 99.2038C214.275 88.769 225.979 80.3453 236.578 74.4603L193.801 74.3613C192.333 74.3613 190.85 75.5482 190.504 76.9989V76.9824Z" fill="#F5FBE9"/>
<path opacity="0.22" d="M227.446 121.902L246.981 123.056C248.201 123.138 249.503 122.33 250.129 121.209C250.162 121.16 250.179 121.111 250.212 121.045C250.294 120.863 250.36 120.682 250.41 120.484C250.41 120.451 250.41 120.451 250.41 120.418L253.179 108.714L254.63 102.549L254.597 102.516C254.102 102.071 253.509 101.692 252.882 101.362C246.734 98.2133 237.123 102.153 231.436 110.165C229.309 113.148 228.04 116.297 227.578 119.215C227.446 120.121 227.381 121.028 227.397 121.869L227.446 121.902Z" fill="#F5FBE9"/>
<path d="M258.505 181.412C258.307 181.412 258.11 181.313 257.994 181.132C246.241 163.015 251.598 144.948 251.648 144.783C251.746 144.453 252.093 144.272 252.422 144.371C252.752 144.47 252.933 144.816 252.834 145.145C252.785 145.327 247.609 162.85 259.033 180.472C259.214 180.752 259.132 181.148 258.851 181.329C258.752 181.395 258.637 181.428 258.522 181.428L258.505 181.412Z" fill="black"/>
<path d="M173.852 152.33L178.484 158.957C180.198 161.331 183.643 162.452 186.462 161.71C189.908 160.803 197.507 151.061 197.507 151.061L191.737 141.994L173.852 152.314V152.33Z" fill="#FFAA99"/>
<path d="M206.11 148.063C200.176 145.326 194.587 146.233 189.18 149.662C188.241 150.255 187.334 150.898 186.444 151.541C185.999 151.871 185.57 152.201 185.141 152.547C184.696 152.893 184.301 153.223 183.823 153.635L183.773 153.668C182.323 154.953 182.191 157.162 183.46 158.613C185.29 160.69 187.598 159.602 189.362 158.069C191.538 156.157 193.285 154.047 195.906 152.646C199.121 150.931 202.698 151.475 205.962 152.81C207.363 153.387 211.105 153.668 211.781 151.591C212.077 150.667 208.055 148.953 206.11 148.046V148.063Z" fill="#FFAA99"/>
<path d="M215.183 145.11C212.15 143.692 209.562 142.752 206.66 141.978C203.627 141.17 200.726 140.593 197.61 141.384C194.066 142.291 190.637 143.989 187.357 145.588C184.637 146.923 181.983 148.275 179.312 149.742C177.614 150.665 176.988 152.792 177.927 154.49C178.851 156.187 180.977 156.814 182.675 155.874C182.757 155.825 182.823 155.792 182.906 155.742H182.939C185.346 154.16 187.851 152.61 190.34 151.143C193.555 149.28 197.429 146.494 201.237 146.181C204.418 145.934 207.616 146.643 210.6 147.714C212.216 148.291 216.452 149.956 217.903 147.929C218.645 146.907 217.029 145.934 215.199 145.077L215.183 145.11Z" fill="#FFAA99"/>
<path d="M209.425 138.37C206.458 137.892 203.474 137.859 200.425 138.452C198.43 138.848 196.518 139.688 194.688 140.546C193.237 141.221 191.836 141.963 190.451 142.722C187.698 144.255 185.077 145.837 182.423 147.601C180.808 148.673 180.379 150.849 181.434 152.464C182.506 154.08 184.682 154.508 186.297 153.453C186.38 153.404 186.446 153.354 186.511 153.305L186.544 153.272C188.819 151.491 191.259 149.728 193.699 148.129C196.996 145.953 200.721 143.612 204.793 143.249C207.579 143.002 210.398 143.117 213.167 143.546C214.832 143.793 220.041 145.705 220.981 142.623C221.41 141.221 214.156 139.491 213.283 139.243C211.997 138.897 210.711 138.6 209.425 138.403V138.37Z" fill="#FFAA99"/>
<path d="M214.307 133.539C211.191 134.182 208.109 135.089 205.125 136.144C202.141 137.215 199.224 138.435 196.372 139.82C193.52 141.204 190.75 142.705 188.03 144.287C186.662 145.078 185.327 145.903 183.992 146.727C182.64 147.568 181.354 148.408 179.986 149.348C178.403 150.452 177.991 152.628 179.096 154.227C180.2 155.826 182.376 156.222 183.975 155.118C184.041 155.068 184.107 155.035 184.157 154.986H184.189C185.294 154.079 186.53 153.156 187.734 152.282C188.954 151.392 190.173 150.535 191.426 149.694C193.915 148.013 196.454 146.397 199.059 144.913C201.663 143.446 204.301 142.029 207.021 140.776C209.741 139.523 214.521 137.875 214.521 137.875C216.532 137.149 218.263 135.501 217.934 134.396C217.62 133.358 215.379 133.341 214.324 133.556L214.307 133.539Z" fill="#FFAA99"/>
<path d="M183.066 160.147C182.72 160.477 172.318 167.944 169.071 171.522L160.977 161.087C160.977 161.087 172.021 152.811 182.588 147.289L183.066 160.131V160.147Z" fill="#FFAA99"/>
<path d="M77.7336 171.751L155.92 159.239L153.085 132.682C153.085 132.682 149.871 134.001 148.667 134.215C146.195 134.66 144.744 130.803 141.233 130.44C137.59 130.061 135.578 131.891 134.194 132.204C130.287 133.078 127.089 131.199 124.83 130.44C119.291 128.577 106.137 129.303 91.8609 129.089C79.0358 128.891 66.2108 128.693 53.3857 128.495C52.7592 128.495 43.7091 125.61 43.5938 125.182L50.7646 156.338C55.0176 167.185 66.2437 173.614 77.7336 171.767V171.751Z" fill="#F5FBE9"/>
<path d="M151.174 144.915C151.355 146.811 151.619 148.591 151.982 150.174C152.064 150.586 152.163 150.998 152.278 151.394C153.119 154.625 154.257 156.702 155.328 156.603C156.581 156.488 157.389 153.356 157.455 149.004C157.455 148.657 157.455 148.295 157.455 147.932C157.455 146.795 157.372 145.608 157.257 144.371C156.944 140.926 156.284 137.86 155.493 135.733C155.443 135.585 155.378 135.453 155.328 135.321C154.636 133.623 153.861 132.618 153.119 132.684C152.147 132.766 151.454 134.645 151.157 137.481C151.124 137.777 151.108 138.074 151.075 138.404C150.943 140.3 150.96 142.542 151.19 144.932L151.174 144.915Z" fill="black"/>
<path d="M43.7741 109.193C46.0819 94.6703 55.3298 85.0927 71.831 86.0817C83.0076 86.7576 89.8818 92.2635 98.6681 103.49C103.498 109.671 109.779 109.688 113.438 119.529C116.323 127.277 110.537 135.569 110.554 135.981C110.702 143.399 110.306 144.405 114.164 157.395C115.796 162.9 125.687 178.808 125.687 178.808C131.176 202.513 146.342 219.179 128.06 232.746C120.164 238.598 98.1241 244.236 89.9807 234.296C78.3425 216.509 60.539 186.902 51.423 157.18C46.4281 142.113 41.9937 120.32 43.7741 109.193Z" fill="#FFFAE6"/>
<path d="M111.496 214.891C111.496 214.891 143.822 196.643 153.631 191.153C158.658 188.351 161.543 189.719 166.241 187.296C171.747 184.46 171.747 183.01 173.627 178.856C174.945 175.938 179.198 175.74 181.111 174.734L171.978 151.738C168.78 153.387 167.873 154.442 165.879 155.414C162.038 157.294 159.697 155.266 155.922 155.596C107.935 159.898 64.6133 174.636 64.6133 174.636L78.6912 203.698C85.6313 214.677 99.2971 219.326 111.496 214.875V214.891Z" fill="#F5FBE9"/>
<path d="M50.7633 156.321C60.5387 188.482 79.7434 214.479 90.7716 212.121C101.8 209.764 98.6843 179.218 84.5239 146.199C72.045 117.12 63.6048 92.0799 52.5766 94.4372C41.5483 96.7945 38.9602 117.499 50.7633 156.321Z" fill="#F5FBE9"/>
<path d="M55.579 87.0195C53.6009 91.3715 47.5345 95.9212 56.9143 100.207C66.2941 104.493 86.9659 110.642 90.098 106.241C92.8674 102.35 86.5867 94.9816 77.8004 89.5911C70.2504 84.9589 57.5572 82.6675 55.579 87.0195Z" fill="#FFAA99"/>
<path d="M83.7987 67.5032C83.7987 67.5032 79.4467 72.9926 86.5351 75.7291C93.6235 78.4655 101.404 85.7847 97.7447 93.1039C94.0851 100.423 76.6608 94.7194 71.9956 86.4771C67.3305 78.2347 69.1603 65.8877 69.1603 65.8877L83.7987 67.4867V67.5032Z" fill="#330900"/>
<path d="M90.4121 100.028C90.0659 100.028 89.7857 99.7478 89.7857 99.4016C89.7857 99.0555 90.0659 98.7752 90.4121 98.7752C93.0332 98.7752 95.0114 97.0114 95.7367 94.0441C96.5774 90.5659 95.374 85.9996 91.4671 83.972C84.115 80.1805 81.8236 77.2792 81.7247 77.1473C81.5104 76.8836 81.5598 76.4879 81.8401 76.2901C82.1038 76.0758 82.4995 76.1253 82.7138 76.4055C82.7303 76.4385 84.9722 79.2409 92.0441 82.884C96.5279 85.1919 97.9127 90.401 96.9565 94.3409C96.1158 97.8356 93.6102 100.012 90.4286 100.012L90.4121 100.028Z" fill="black"/>
<path d="M86.4213 99.5833C86.2729 99.5833 86.1411 99.5339 86.0257 99.435C85.7619 99.2207 85.7289 98.825 85.9432 98.5613C87.3279 96.9128 87.9544 95.0995 87.773 93.1543C87.3609 88.5386 82.7452 84.6317 82.6957 84.5987C82.432 84.3844 82.399 83.9888 82.6133 83.725C82.8276 83.4613 83.2233 83.4283 83.487 83.6426C83.7013 83.8075 88.5643 87.9286 89.0094 93.0389C89.2072 95.3303 88.4984 97.4568 86.8829 99.3525C86.7675 99.5009 86.5861 99.5668 86.4048 99.5668L86.4213 99.5833Z" fill="black"/>
<path d="M57.6056 98.74L79.8764 93.4649C77.8982 90.7284 76.4641 87.8271 75.4255 84.9093C74.9145 83.4752 74.4859 82.0245 74.1562 80.6068C73.9584 79.7166 73.7771 78.8429 73.6452 77.9693C73.2331 75.4801 73.0353 73.0568 73.0023 70.8149C72.8539 63.2484 74.3705 57.5777 74.387 57.4623L51.9019 50.0771C51.7535 51.2311 48.4236 78.4638 57.6056 98.773V98.74Z" fill="#FFAA99"/>
<path d="M63.293 74.7559C63.4413 75.0196 67.5955 82.2234 75.4257 84.894C74.9147 83.4598 74.4861 82.0091 74.1564 80.5915C73.9586 79.7013 73.7772 78.8276 73.6454 77.9539C66.8207 76.3878 63.4578 74.8383 63.293 74.7723V74.7559Z" fill="black"/>
<path d="M58.7439 76.4884L67.8599 79.4392C77.3221 82.5053 87.6416 77.0324 89.9494 67.3394C90.2297 66.1525 90.3945 64.9492 90.3945 63.7128L88.9109 49.3217C87.4108 40.4199 81.1796 36.2328 75.344 36.7438L55.6777 38.4418L58.7274 76.472L58.7439 76.4884Z" fill="#FFAA99"/>
<path d="M36.5312 36.3146C43.5207 39.3313 55.2743 37.2212 57.2195 33.9737C58.1262 32.4571 52.1257 19.4177 45.1527 16.401C38.1632 13.3843 30.5802 15.379 28.19 20.8849C25.8162 26.3908 29.5417 33.2979 36.5312 36.3146Z" fill="#330900"/>
<path d="M49.4416 32.9194C45.8645 32.9194 34.8527 32.26 27.1049 24.677C21.5495 19.2371 18.9285 11.3904 19.3241 1.38418C19.3241 1.038 19.6043 0.757757 19.967 0.790726C20.3132 0.790726 20.5769 1.08745 20.5604 1.43363C20.1813 11.0772 22.6705 18.5942 27.9621 23.7869C36.7319 32.3919 50.3648 31.6666 50.5131 31.6501C50.8428 31.6171 51.1396 31.8809 51.1725 32.227C51.189 32.5732 50.9253 32.8535 50.5956 32.8864C50.5131 32.8864 50.101 32.9194 49.4416 32.9194Z" fill="black"/>
<path d="M46.0801 22.8801C45.8658 22.8801 45.668 22.7812 45.5526 22.5833C42.4535 17.5225 36.4201 15.0498 28.0294 15.4125C27.7821 15.4125 27.6172 15.429 27.5348 15.4125C27.1886 15.396 26.9249 15.0993 26.9579 14.7531C26.9743 14.4069 27.2876 14.1432 27.6008 14.1761C27.6008 14.1761 27.7821 14.1761 27.9634 14.1761C36.6673 13.797 43.2942 16.5499 46.5911 21.9404C46.7725 22.2372 46.6736 22.6163 46.3933 22.7976C46.2944 22.8636 46.179 22.8966 46.0636 22.8966L46.0801 22.8801Z" fill="black"/>
<path d="M96.9863 160.527C96.7225 160.527 96.4588 160.345 96.3928 160.065C96.3104 159.735 96.4917 159.389 96.8214 159.307C107.289 156.439 114.575 131.2 113.586 122.777C113.553 122.431 113.784 122.134 114.13 122.084C114.46 122.035 114.773 122.282 114.823 122.628C115.729 130.475 108.921 157.279 97.1511 160.494C97.1017 160.494 97.0357 160.51 96.9863 160.51V160.527Z" fill="black"/>
<path d="M115.467 161.581C115.12 161.581 114.857 161.301 114.857 160.955C114.84 160.905 114.741 160.641 114.593 160.262C113.653 157.773 110.818 150.207 111.082 138.618C111.082 138.272 111.362 138.024 111.708 138.008C112.054 138.008 112.318 138.305 112.318 138.634C112.054 149.976 114.84 157.377 115.747 159.801C116.011 160.493 116.093 160.724 116.093 160.938C116.093 161.284 115.813 161.564 115.483 161.564L115.467 161.581Z" fill="black"/>
<path d="M142.487 160.558C142.158 160.558 141.96 160.542 141.91 160.525C141.564 160.493 141.333 160.179 141.366 159.85C141.399 159.503 141.729 159.289 142.042 159.306C142.075 159.306 145.554 159.652 149.889 156.75C154.67 153.536 161.428 155.267 161.709 155.349C162.038 155.432 162.236 155.778 162.154 156.108C162.071 156.437 161.725 156.635 161.395 156.553C161.329 156.553 154.884 154.888 150.581 157.789C146.856 160.295 143.707 160.575 142.471 160.575L142.487 160.558Z" fill="black"/>
<path d="M87.9713 171.932C87.7734 171.932 87.5756 171.833 87.4602 171.652C87.2624 171.372 87.3448 170.993 87.6251 170.795C88.0372 170.515 89.3889 169.905 91.1528 169.196C92.3727 168.701 93.9222 168.124 95.7191 167.481C100.038 165.948 104.934 164.432 109.846 163.113H109.879L112.336 162.47C126.43 158.843 139.75 155.431 147.893 158.019C148.223 158.118 148.404 158.464 148.289 158.794C148.19 159.124 147.844 159.305 147.514 159.19C139.7 156.7 126.562 160.08 112.649 163.657L110.242 164.283C110.242 164.283 110.11 164.316 110.044 164.316C105.28 165.619 100.434 167.102 96.1477 168.635C94.3673 169.262 92.8507 169.855 91.6309 170.333C89.4549 171.207 88.5152 171.685 88.3339 171.817C88.235 171.883 88.1031 171.916 87.9877 171.916L87.9713 171.932Z" fill="black"/>
<path d="M164.723 188.597C164.475 188.597 164.244 188.449 164.146 188.218C164.014 187.905 164.162 187.542 164.492 187.41C172.009 184.344 173.789 176.514 173.789 176.431C173.822 176.102 174.102 175.854 174.432 175.854C174.762 175.854 175.025 176.118 175.025 176.448C175.025 177.223 172.701 185.383 164.953 188.548C164.871 188.581 164.805 188.597 164.723 188.597Z" fill="black"/>
<path d="M123.381 206.502C123.133 206.502 122.902 206.353 122.804 206.106C122.672 205.793 122.837 205.43 123.15 205.298L124.98 204.573C133.041 201.359 143.08 197.336 149.723 191.286C155.196 186.308 158.922 185.978 159.07 185.978C159.416 185.945 159.713 186.209 159.729 186.555C159.746 186.902 159.498 187.182 159.152 187.215C159.152 187.215 155.658 187.561 150.547 192.21C143.739 198.408 133.585 202.463 125.425 205.727L123.595 206.452C123.595 206.452 123.446 206.502 123.364 206.502H123.381Z" fill="black"/>
<path d="M95.933 168.669C95.8176 168.669 95.7022 168.636 95.6033 168.57C95.2241 168.34 86.2894 162.718 84.2453 152.481C84.0805 151.69 83.8827 150.866 83.6189 150.058C83.6189 150.058 83.6189 150.025 83.6189 150.009C82.5969 146.728 80.9484 143.596 79.3659 140.579C76.6459 135.387 74.0908 130.491 75.6073 126.188C75.7227 125.859 76.0689 125.694 76.3986 125.809C76.7283 125.925 76.8932 126.271 76.7778 126.6C75.4425 130.392 77.7668 134.843 80.4703 140.002C82.0693 143.069 83.7343 146.234 84.7893 149.597C84.7893 149.613 84.7893 149.63 84.8058 149.646C85.0696 150.52 85.3003 151.377 85.4652 152.234C87.4104 161.944 96.1638 167.466 96.2627 167.515C96.5594 167.697 96.6418 168.076 96.4605 168.373C96.3451 168.554 96.1473 168.669 95.933 168.669Z" fill="black"/>
<path d="M59.7333 179.848C59.4696 179.848 59.2223 179.667 59.1399 179.403C55.6286 166.907 60.2773 157.791 60.4751 157.412C60.64 157.116 61.0026 157 61.3159 157.149C61.6126 157.313 61.728 157.676 61.5796 157.989C61.5302 158.072 56.9639 167.072 60.3268 179.073C60.4257 179.403 60.2279 179.749 59.8982 179.831C59.8487 179.831 59.7828 179.848 59.7333 179.848Z" fill="black"/>
<path d="M190.259 148.986C190.127 148.986 189.995 148.937 189.88 148.854C189.616 148.64 189.566 148.261 189.781 147.997C189.863 147.882 192.023 145.178 200.248 145.673C200.595 145.689 200.842 145.986 200.825 146.332C200.809 146.678 200.529 146.942 200.166 146.909C192.731 146.48 190.753 148.739 190.737 148.755C190.621 148.904 190.44 148.986 190.259 148.986Z" fill="#330900"/>
<path d="M188.035 144.915C187.853 144.915 187.672 144.833 187.557 144.684C187.342 144.421 187.375 144.041 187.639 143.811C187.738 143.728 190.194 141.75 197.118 140.794C204.008 139.871 210.981 142.228 211.278 142.327C211.608 142.442 211.773 142.789 211.657 143.118C211.542 143.448 211.196 143.613 210.866 143.497C210.8 143.481 203.877 141.124 197.283 142.03C190.771 142.921 188.447 144.75 188.43 144.767C188.315 144.866 188.183 144.899 188.035 144.899V144.915Z" fill="#330900"/>
<path d="M197.641 139.739C197.41 139.739 197.179 139.608 197.08 139.377C196.948 139.064 197.08 138.701 197.393 138.553C204.564 135.371 212.131 138.075 212.444 138.19C212.757 138.305 212.922 138.668 212.807 138.981C212.691 139.294 212.328 139.459 212.015 139.344C211.933 139.311 204.597 136.69 197.888 139.674C197.805 139.707 197.723 139.723 197.641 139.723V139.739Z" fill="#330900"/>
<path d="M76.3335 56.6225C76.6138 57.7599 77.405 58.5347 78.1139 58.3698C78.8227 58.1885 79.1689 57.1335 78.8887 55.996C78.6084 54.8586 77.8172 54.0838 77.1083 54.2487C76.3995 54.4135 76.0533 55.485 76.3335 56.6225Z" fill="black"/>
<path d="M86.7496 54.5277C87.0298 55.6652 87.8211 56.44 88.5299 56.2751C89.2387 56.1103 89.5849 55.0388 89.3047 53.9013C89.0244 52.7639 88.2332 51.9891 87.5243 52.1539C86.8155 52.3188 86.4693 53.3903 86.7496 54.5277Z" fill="black"/>
<path d="M83.4002 67.2563C82.3617 67.2563 78.257 66.9596 77.0206 62.3274C76.9382 61.9977 77.136 61.6515 77.4657 61.5526C77.7954 61.4537 78.1416 61.668 78.2405 61.9977C79.378 66.2837 83.3673 66.0035 83.5486 65.987C83.8948 65.954 84.1915 66.2177 84.2245 66.5639C84.2574 66.9101 83.9937 67.2068 83.6475 67.2398C83.6475 67.2398 83.5486 67.2398 83.4002 67.2398V67.2563Z" fill="#990000"/>
<path d="M317.568 263.932C317.436 263.932 317.304 263.882 317.188 263.8C316.661 263.388 304.083 253.58 299.055 245.106C296.467 240.738 295.412 234.672 294.39 228.786C293.417 223.198 292.511 217.907 290.368 215.005C290.17 214.725 290.219 214.346 290.5 214.148C290.78 213.95 291.159 214 291.357 214.28C293.665 217.412 294.621 222.836 295.61 228.589C296.616 234.358 297.638 240.326 300.127 244.496C305.039 252.755 317.831 262.745 317.963 262.844C318.227 263.058 318.276 263.437 318.079 263.718C317.963 263.882 317.782 263.965 317.584 263.965L317.568 263.932Z" fill="black"/>
<path d="M149.396 157.873C149.231 157.873 149.066 157.807 148.934 157.675C148.819 157.56 146.247 154.642 145.572 146.284C144.78 136.558 148.143 133.838 148.292 133.723C148.555 133.508 148.951 133.558 149.165 133.838C149.38 134.102 149.33 134.498 149.066 134.695C149 134.745 146.099 137.283 146.808 146.185C147.451 154.048 149.825 156.818 149.841 156.834C150.072 157.082 150.039 157.477 149.792 157.708C149.676 157.823 149.528 157.873 149.38 157.873H149.396Z" fill="black"/>
<path d="M174.944 178.446C174.697 178.446 174.466 178.297 174.367 178.05C170.246 167.78 165.301 155.664 165.301 155.664L166.438 155.202C166.438 155.202 171.384 167.335 175.505 177.605C175.637 177.918 175.472 178.281 175.159 178.413C175.076 178.446 175.01 178.462 174.928 178.462L174.944 178.446Z" fill="black"/>
<path d="M81.5895 49.7981C80.9631 50.0618 80.3037 50.2432 79.7103 50.4245C79.1004 50.5893 78.5069 50.7707 77.897 50.919C77.287 51.0839 76.6771 51.2652 76.0177 51.4136C75.3583 51.5784 74.6989 51.7433 73.9406 51.8257H73.9077C73.5945 51.8587 73.3142 51.6444 73.2812 51.3312C73.2812 51.1993 73.2977 51.0674 73.3802 50.952C73.8252 50.2926 74.4022 49.7486 75.0286 49.3035C75.6715 48.8584 76.3804 48.5123 77.1222 48.2815C77.8805 48.0342 78.6717 47.9188 79.496 47.9683C80.3202 48.0342 81.1115 48.2155 81.8698 48.7925C82.1006 48.9738 82.15 49.32 81.9687 49.5508C81.9027 49.6332 81.8368 49.6827 81.7544 49.7156L81.5895 49.7816V49.7981Z" fill="black"/>
<path d="M85.8603 47.6043C86.3878 47.39 86.8329 47.3571 87.3439 47.423C87.8384 47.4889 88.333 47.6868 88.7616 48.0164C89.1902 48.3297 89.5199 48.7748 89.6683 49.2693C89.8331 49.7474 89.7672 50.2748 89.5858 50.7199C88.7286 50.1595 88.2176 49.9287 87.7395 49.7968L86.9977 49.6155C86.7505 49.566 86.4208 49.4836 86.1735 49.3682L85.8273 49.2033C85.3987 48.989 85.2009 48.478 85.4152 48.0329C85.5141 47.8186 85.6954 47.6703 85.8933 47.5879L85.8603 47.6043Z" fill="black"/>
<path d="M25.2621 66.3496L36.5541 138.948C40.8566 163.379 62.0889 181.182 86.8984 181.166L123.676 181.133C133.649 181.133 141.957 188.798 142.732 198.738L145.996 240.477L263.433 240.379L267.093 192.408C267.587 185.831 273.06 180.753 279.654 180.72H280.412C290.023 180.671 297.474 189.474 296.155 199.282L279.852 320.181L257.334 320.214L152.211 320.346L39.5213 320.494L0.436117 99.5663C-2.43222 83.2134 9.18949 68.1464 25.2621 66.3496Z" fill="#003399"/>
<path d="M60.3276 40.6154C50.1896 43.5003 39.9031 46.9785 31.2651 53.1768C28.7759 54.9571 26.3362 57.0012 24.0943 59.408C17.8136 66.1173 14.2859 74.6728 13.0001 83.6899L12.8682 84.9593L12.5715 87.5309L12.3902 89.1464C11.5824 96.3007 16.7256 102.746 23.8635 103.554C31.0179 104.362 37.4634 99.2185 38.2711 92.0807C38.5514 89.6574 38.1063 87.2836 37.1831 85.2065C35.716 82.0085 35.3368 78.7445 36.0951 75.6125C36.5073 74.0629 37.1502 72.4968 38.1228 70.9967C39.0954 69.4966 40.3812 68.0954 41.8483 66.7931C48.8873 60.496 45.2771 58.7486 53.8162 56.1275C51.5908 54.578 58.2671 52.6493 55.7614 51.5118C58.1517 52.7152 57.7231 48.5281 60.3771 48.6765C59.2891 46.2367 62.4212 52.336 60.2782 51.0008C62.3388 49.7315 74.3232 49.0556 72.1307 44.6707C70.1196 40.6319 65.8335 39.3296 61.6794 40.2198C61.2178 40.3517 60.7727 40.4836 60.3112 40.5989L60.3276 40.6154Z" fill="#FFE066"/>
<path d="M90.4924 36.7754C85.7448 42.8912 76.6123 52.1721 57.6055 56.046C57.6055 56.046 50.5665 55.2053 51.9182 60.4969C53.27 65.7885 69.8371 85.9492 67.5128 105.401C65.1719 124.853 40.1152 111.583 45.0276 130.244C48.8356 144.717 56.3197 163.048 56.3197 163.048C24.6031 175.313 4.95334 126.172 11.9923 103.39C14.7947 94.3235 18.1906 85.6195 24.4877 78.6465C32.1201 70.1734 34.6752 61.5189 36.9172 50.6885C38.6975 42.034 42.0604 32.8026 49.6434 27.6264C56.9296 22.648 68.9305 23.4063 77.0574 24.6591C85.9756 26.0274 96.2621 29.3573 90.5089 36.7589L90.4924 36.7754Z" fill="#330900"/>
<path d="M141.594 56.0286C141.792 56.4078 142.055 56.7869 142.303 57.1002C142.863 57.809 143.506 58.7321 144.083 59.6553C144.677 60.5784 145.237 61.551 145.797 62.5401C146.885 64.5182 147.875 66.5789 148.732 68.6889C149.226 69.9252 149.704 71.1616 150.116 72.4309C150.43 73.3376 150.71 74.2607 150.974 75.1838C151.584 77.3928 152.045 79.6347 152.424 81.9096L152.457 82.1074C152.902 84.8769 155.49 86.7561 158.276 86.311C160.766 85.8989 162.546 83.7559 162.546 81.3162C162.546 78.5797 162.431 75.8268 162.117 73.0903C162.018 72.299 161.92 71.4913 161.788 70.7165C161.507 68.7878 161.128 66.8756 160.7 64.9798C160.09 62.2928 159.298 59.6553 158.359 57.0342C157.881 55.7319 157.386 54.4131 156.826 53.1108C156.265 51.8085 155.688 50.5227 154.897 49.1051L154.782 48.8743C152.804 45.2476 148.254 43.8959 144.611 45.8741C140.984 47.8522 139.632 52.402 141.61 56.0451L141.594 56.0286Z" fill="#FFE066"/>
<path d="M37.3611 49.8641C37.3611 49.8641 37.2622 49.8641 37.2293 49.8641C36.8996 49.7817 36.6853 49.452 36.7677 49.1223C41.3175 28.8626 51.7028 25.8129 52.1479 25.6975C52.4776 25.6151 52.8073 25.7964 52.9062 26.1261C53.0051 26.4558 52.8073 26.802 52.4776 26.8844C52.3787 26.9174 42.3395 29.9341 37.9711 49.386C37.9051 49.6663 37.6579 49.8641 37.3611 49.8641Z" fill="black"/>
<path d="M51.87 63.2313C54.5405 65.9183 58.1177 66.6931 59.8815 64.9622C61.6454 63.2313 60.8871 59.6376 58.2166 56.9506C55.546 54.2636 51.9689 53.4888 50.205 55.2197C48.4411 56.9506 49.1994 60.5443 51.87 63.2313Z" fill="#FFAA99"/>
<path d="M152.096 320.986C151.783 320.986 151.503 320.739 151.486 320.409L141.694 197.45C141.002 188.713 133.584 181.872 124.831 181.872C124.484 181.872 124.221 181.592 124.221 181.246C124.221 180.899 124.501 180.619 124.831 180.619C134.227 180.619 142.189 187.955 142.931 197.335L152.723 320.294C152.756 320.64 152.492 320.937 152.162 320.953C152.146 320.953 152.129 320.953 152.113 320.953L152.096 320.986Z" fill="black"/>
<path d="M151.174 144.914C151.355 146.81 151.619 148.591 151.982 150.173C152.048 150.173 152.114 150.173 152.18 150.157C153.762 150.041 155.74 149.646 157.455 149.003C158.757 148.508 159.894 147.882 160.57 147.107C163.109 144.173 162.862 138.799 168.219 133.903C172.505 129.979 176.956 122.627 174.038 123.418C174.038 123.418 168.648 126.633 161.246 131.216C159.07 132.567 157.125 133.969 155.328 135.287C153.828 136.408 152.427 137.463 151.075 138.37C150.943 140.266 150.96 142.508 151.19 144.898L151.174 144.914Z" fill="#FFAA99"/>
<path d="M85.6457 63.0495C84.4258 63.0495 82.8268 62.5055 82.2004 61.7801C81.9861 61.5164 82.0025 61.1372 82.2663 60.9065C82.5301 60.6922 82.9092 60.7086 83.14 60.9724C83.717 61.6647 85.8435 62.0274 86.2061 61.7307C86.1402 61.2526 84.7885 56.7523 83.5191 52.796C83.4202 52.4663 83.6016 52.1201 83.9148 52.0212C84.2445 51.9223 84.5906 52.1036 84.6896 52.4168C85.1346 53.818 87.3601 60.857 87.393 61.7801C87.393 62.2912 87.0963 62.7033 86.5853 62.9011C86.3215 63 85.9918 63.0495 85.6457 63.0495Z" fill="#330900"/>
<path d="M33.6523 120.402C33.3555 120.402 33.0918 120.187 33.0423 119.891C32.4159 116.462 32.8115 113.808 34.2127 111.78C36.669 108.253 41.7298 107.346 47.0708 106.406C51.3898 105.648 55.8572 104.84 58.8739 102.582C71.1055 93.4163 52.9229 64.0406 52.7415 63.7438C52.5602 63.4471 52.6426 63.068 52.9394 62.8866C53.2361 62.7053 53.6152 62.7877 53.7966 63.0844C54.5714 64.3373 72.754 93.7295 59.6157 103.554C56.3682 105.994 51.7525 106.818 47.2851 107.61C42.1913 108.516 37.3943 109.373 35.2183 112.473C34.0149 114.203 33.6852 116.561 34.2457 119.643C34.3117 119.973 34.0809 120.303 33.7512 120.369C33.7182 120.369 33.6852 120.369 33.6358 120.369L33.6523 120.402Z" fill="black"/>
<path d="M47.8448 154.791C41.4817 154.791 29.827 152.763 23.1012 139.213C22.9529 138.899 23.0683 138.537 23.3815 138.388C23.6947 138.24 24.0574 138.355 24.2057 138.669C33.3218 157.016 51.2901 153.373 52.0484 153.225C52.3781 153.142 52.7078 153.356 52.7902 153.703C52.8561 154.032 52.6583 154.362 52.3121 154.444C52.2462 154.444 50.5153 154.807 47.8448 154.807V154.791Z" fill="black"/>
<path d="M41.6474 164.364C39.6858 164.364 37.5263 163.952 35.2019 162.914C34.8887 162.765 34.7568 162.403 34.8887 162.09C35.0206 161.776 35.3997 161.644 35.7129 161.776C46.3785 166.54 53.1208 157.095 53.1867 156.996C53.3845 156.716 53.7637 156.65 54.0439 156.847C54.3242 157.045 54.3901 157.424 54.1923 157.705C54.1264 157.787 49.4447 164.364 41.6639 164.364H41.6474Z" fill="black"/>
<path d="M48.918 54.8251C48.6377 54.8251 48.3905 54.6273 48.3245 54.3471C47.5827 51.2479 47.863 49.039 49.2312 47.3906C51.6874 44.4398 57.6878 43.4672 69.2601 44.1101C88.2505 45.1816 91.3331 32.3895 91.4485 31.8455C91.5144 31.5158 91.8606 31.3015 92.1903 31.3839C92.52 31.4498 92.7343 31.7795 92.6684 32.1257C92.6354 32.2741 89.2725 46.4839 69.1942 45.3629C58.1989 44.753 52.3303 45.6267 50.1873 48.1983C49.0993 49.5171 48.885 51.3798 49.5279 54.0668C49.6103 54.3965 49.396 54.7262 49.0664 54.8087C49.0169 54.8087 48.9674 54.8251 48.918 54.8251Z" fill="black"/>
<path d="M259.855 321.036C259.855 321.036 259.838 321.036 259.822 321.036C259.476 321.02 259.212 320.723 259.245 320.393L266.086 193.758C266.432 189.357 268.658 185.466 272.218 183.043C276.208 180.323 281.351 179.713 286.708 181.329C287.038 181.427 287.22 181.774 287.121 182.103C287.022 182.433 286.676 182.614 286.346 182.515C281.351 180.999 276.587 181.559 272.911 184.065C269.68 186.274 267.636 189.835 267.322 193.84L260.498 320.459C260.481 320.789 260.201 321.036 259.888 321.036H259.855Z" fill="black"/>
<path d="M147.791 135.946C147.692 135.946 147.593 135.93 147.495 135.88C146.769 135.501 145.731 134.727 144.89 133.259C144.132 131.957 142.78 131.413 141.791 131.182C139.846 130.737 137.554 131.133 136.087 132.138C133.994 133.589 129.609 135.271 127.532 134.578C127.202 134.463 127.037 134.117 127.136 133.803C127.251 133.474 127.598 133.292 127.911 133.408C129.279 133.869 133.103 132.699 135.362 131.133C137.126 129.913 139.747 129.468 142.038 129.979C143.818 130.391 145.17 131.298 145.945 132.649C146.637 133.869 147.478 134.496 148.055 134.792C148.352 134.957 148.467 135.336 148.302 135.633C148.187 135.848 147.973 135.963 147.758 135.963L147.791 135.946Z" fill="black"/>
<path d="M131.787 133.935C130.402 133.935 129.248 133.275 127.946 132.534C125.423 131.083 121.962 129.121 113.934 129.731C113.604 129.781 113.291 129.5 113.274 129.154C113.241 128.808 113.505 128.511 113.851 128.495C122.258 127.852 126.05 130.028 128.572 131.462C129.957 132.253 130.962 132.814 132.182 132.682C132.512 132.632 132.825 132.88 132.875 133.226C132.908 133.572 132.677 133.869 132.331 133.918C132.149 133.935 131.984 133.951 131.803 133.951L131.787 133.935Z" fill="black"/>
<path d="M111.658 61.1084C113.471 64.1251 119.109 64.4548 121.796 70.1255C122.324 71.23 122.752 72.3839 123.164 73.5214C123.527 74.5269 123.857 75.516 124.17 76.5381C124.879 78.7305 125.307 80.9559 125.72 83.1979L125.769 83.4946C126.264 86.1981 128.852 87.9784 131.539 87.4839C133.912 87.0553 135.594 84.9947 135.61 82.6539C135.643 79.9009 135.61 77.115 135.281 74.395C135.215 73.7686 135.132 73.1422 135.066 72.5158C134.786 70.4057 134.407 68.3122 133.929 66.2351C133.319 63.5481 132.561 60.8941 131.654 58.273C131.192 56.9707 130.714 55.6684 130.187 54.3826C129.923 53.7397 129.643 53.0968 129.379 52.4539L128.967 51.5143L128.786 51.1022C128.687 50.9209 128.753 51.0033 128.835 51.1516C127.088 47.3766 122.901 46.5689 118.763 47.2612C109.614 48.8273 109.762 57.9928 111.642 61.1249L111.658 61.1084Z" fill="#FFE066"/>
<path d="M134.52 70.9478C134.207 70.9478 133.943 70.717 133.91 70.3873C132.772 59.1447 126.607 53.3092 122.535 49.4517C120.063 47.1109 118.266 45.413 118.53 43.4678C118.579 43.1216 118.892 42.8908 119.222 42.9403C119.568 42.9897 119.799 43.3029 119.749 43.6326C119.568 44.9514 121.167 46.468 123.376 48.5615C127.58 52.5344 133.943 58.5678 135.13 70.2719C135.163 70.6181 134.915 70.9148 134.586 70.9478C134.569 70.9478 134.536 70.9478 134.52 70.9478Z" fill="#330900"/>
<path d="M134.08 48.9245C134.064 51.1005 137.41 54.1832 140.41 54.2161C143.394 54.2491 147.301 51.9083 147.317 49.7323C147.334 47.5563 144.828 45.4133 141.086 45.1331C137.179 44.8363 134.113 46.7486 134.08 48.9245Z" fill="#330900"/>
<path d="M143.261 59.0288C142.948 59.0288 142.668 58.7815 142.651 58.4518C142.618 58.1057 142.882 57.809 143.212 57.7925C147.283 57.4628 154.52 55.8143 157.356 48.4621C159.466 42.9398 156.169 37.8295 154.932 35.9008C154.57 35.3403 154.421 35.126 154.388 34.8952C154.322 34.5655 154.537 34.2358 154.866 34.1699C155.18 34.104 155.493 34.3018 155.575 34.615C155.625 34.7304 155.773 34.9447 155.954 35.2414C157.29 37.3185 160.85 42.8244 158.51 48.9237C155.443 56.9188 147.679 58.6991 143.311 59.0453C143.311 59.0453 143.278 59.0453 143.261 59.0453V59.0288Z" fill="#330900"/>
<path d="M123.165 73.5048C123.528 74.5104 123.857 75.4995 124.17 76.5215C124.879 78.714 125.308 80.9394 125.72 83.1813L125.769 83.4781C126.264 86.1815 128.852 87.9619 131.539 87.4673C133.913 87.0387 135.594 84.9781 135.611 82.6373C135.644 79.8844 135.611 77.0985 135.281 74.3785C135.215 73.7521 135.133 73.1257 135.067 72.4992C133.863 72.3344 132.594 72.252 131.308 72.252C128.374 72.252 125.605 72.6971 123.148 73.5048H123.165Z" fill="#330900"/>
<path d="M21.5414 103.819C29.3057 107.099 38.2899 103.522 43.8452 97.7688C44.7189 96.8456 45.5267 95.906 46.252 94.9334C47.2411 93.6311 48.0983 92.3123 48.8566 90.9606C49.1533 90.4331 49.4171 89.8561 49.6479 89.2462C49.8786 88.6363 50.0765 87.9933 50.2413 87.3175C50.2413 87.301 50.2413 87.268 50.2413 87.2515C50.2413 87.2021 50.2413 87.1691 50.2743 87.1197C50.3237 86.9054 50.3567 86.6911 50.4062 86.4768L50.4556 86.5592C51.626 82.7018 51.0161 78.7949 50.1919 75.9595C49.45 73.4374 48.5269 71.7724 48.5269 71.7724L47.8675 73.8825C47.0268 71.5746 45.6586 69.7778 45.6586 69.7778C45.6586 69.7778 43.532 70.9811 41.8011 72.7945C41.4385 72.0527 41.0428 71.5252 40.9604 71.5746C39.4603 72.7945 36.8887 73.4209 33.5258 78.0366C32.6521 79.0751 31.8609 80.1961 31.185 81.3665C30.8223 81.9764 30.2948 83.5095 29.586 84.614C29.0255 85.4877 28.3331 86.1306 27.5419 85.7844C23.091 83.8392 31.3334 73.9484 32.9818 64.0576C33.3939 61.6178 22.6294 61.1728 21.0964 62.9696C18.0137 66.5633 15.6564 70.8163 13.7772 76.1903C12.9035 78.696 11.9638 81.3171 11.6177 84.3338C10.6945 92.1145 14.0079 100.571 21.5579 103.769L21.5414 103.819Z" fill="#FFE066"/>
<path d="M49.5988 89.4922C49.566 89.6069 49.566 89.5905 49.5988 89.4922V89.4922Z" fill="#FFE066"/>
<path d="M50.4082 86.8044C50.4082 86.8044 50.4575 86.673 50.4739 86.5908C50.4739 86.6237 50.4411 86.6894 50.4082 86.8044Z" fill="#FFE066"/>
<path d="M34.8745 75.9423C36.8856 73.7828 38.9297 72.7773 41.0233 71.409C41.1057 71.3596 41.5178 72.019 41.864 72.7608C43.6114 70.931 45.573 69.5957 45.573 69.5957C45.573 69.5957 47.0896 71.1618 47.9304 73.4696L48.5403 71.7882C48.5403 71.7882 49.991 72.9586 51.1284 76.6677C52.3977 80.7723 51.6724 84.9759 50.3042 88.6685C49.6283 90.5148 48.3425 92.6908 47.1556 94.2568C45.8203 96.0372 42.3585 97.2735 40.2979 96.202C37.9242 94.9492 36.2922 90.9104 35.6822 87.7289C32.4677 88.2893 30.0774 87.1189 29.5664 84.6462C29.5664 84.6462 31.2643 79.8162 34.858 75.9423H34.8745Z" fill="#330900"/>
<path d="M144.348 48.7749C144.348 48.7749 144.282 48.7749 144.249 48.7749C142.732 48.5441 141.628 47.9836 140.952 47.0934C140.804 47.3242 140.639 47.555 140.408 47.7528C139.699 48.4122 138.694 48.643 137.457 48.4452C137.127 48.3957 136.897 48.066 136.946 47.7363C136.996 47.3902 137.325 47.1594 137.655 47.2253C138.512 47.3572 139.155 47.2253 139.584 46.8462C140.078 46.4011 140.227 45.6758 140.26 45.2142C140.243 44.8845 140.26 44.6537 140.276 44.6372C140.325 44.324 140.589 44.0932 140.919 44.1262C141.232 44.1262 141.479 44.3899 141.512 44.7032C141.512 44.7361 141.512 44.9504 141.512 45.2801C141.578 45.956 142.056 47.1923 144.463 47.5715C144.793 47.6209 145.04 47.9342 144.974 48.2803C144.925 48.5771 144.661 48.8078 144.364 48.8078L144.348 48.7749Z" fill="black"/>
<path d="M150.115 72.4493C150.428 73.356 150.709 74.2791 150.972 75.2022C151.582 77.4112 152.044 79.6531 152.423 81.928L152.456 82.1258C152.901 84.8952 155.489 86.7745 158.275 86.3294C160.764 85.9173 162.545 83.7743 162.545 81.3345C162.545 78.5981 162.429 75.8451 162.116 73.1087C162.017 72.3174 161.918 71.5097 161.786 70.7349C161.127 70.6854 160.468 70.6689 159.792 70.6689C156.231 70.6689 152.918 71.3283 150.132 72.4822L150.115 72.4493Z" fill="#330900"/>
<path d="M139.237 44.6531C139.204 45.296 139.93 45.8565 140.836 45.8894C141.743 45.9224 142.518 45.4443 142.551 44.8014C142.584 44.1585 141.858 43.5981 140.952 43.5651C140.045 43.5321 139.27 44.0102 139.237 44.6531Z" fill="black"/>
<path d="M159.547 86.6402C159.547 86.6402 159.382 86.6402 159.3 86.5907C158.987 86.4589 158.838 86.0962 158.97 85.783C159.448 84.6455 159.695 83.2773 159.679 81.6948C159.679 81.3486 159.959 81.0684 160.289 81.0684C160.635 81.0684 160.899 81.3486 160.899 81.6783C160.899 83.4257 160.635 84.9587 160.091 86.261C159.992 86.4918 159.761 86.6402 159.514 86.6402H159.547Z" fill="#330900"/>
<path d="M153.33 51.6123C153.248 51.6123 153.149 51.5958 153.066 51.5628L148.352 49.3703C148.039 49.222 147.907 48.8593 148.055 48.5461C148.203 48.2329 148.566 48.101 148.879 48.2494L153.594 50.4418C153.907 50.5902 154.039 50.9529 153.891 51.2661C153.792 51.4968 153.561 51.6287 153.33 51.6287V51.6123Z" fill="#330900"/>
<path d="M148.665 47.112C148.352 47.112 148.072 46.8647 148.056 46.535C148.023 46.1889 148.286 45.8921 148.616 45.8756L154.485 45.4141C154.831 45.4141 155.127 45.6449 155.144 45.9746C155.16 46.3043 154.913 46.6175 154.583 46.6339L148.715 47.0955C148.715 47.0955 148.682 47.0955 148.665 47.0955V47.112Z" fill="#330900"/>
<path d="M132.217 45.973C132.217 45.973 132.134 45.973 132.101 45.973L126.48 44.852C126.151 44.7861 125.936 44.4564 126.002 44.1267C126.068 43.797 126.398 43.5827 126.727 43.6486L132.349 44.7696C132.678 44.8355 132.893 45.1652 132.827 45.4949C132.761 45.7916 132.514 45.9895 132.217 45.9895V45.973Z" fill="#330900"/>
<path d="M127.831 49.5197C127.567 49.5197 127.336 49.3549 127.254 49.1076C127.138 48.7779 127.32 48.4317 127.633 48.3163L131.952 46.8162C132.282 46.7008 132.628 46.8822 132.743 47.1954C132.859 47.5251 132.677 47.8712 132.364 47.9866L128.045 49.4867C128.045 49.4867 127.913 49.5197 127.847 49.5197H127.831Z" fill="#330900"/>
<path d="M155.869 86.6413C155.869 86.6413 155.704 86.6413 155.622 86.5919C155.309 86.46 155.16 86.0973 155.292 85.7841C155.82 84.5477 156.051 83.0476 156.001 81.3167C156.001 80.9706 156.265 80.6903 156.595 80.6738C156.924 80.6738 157.221 80.9376 157.238 81.2673C157.303 83.1795 157.023 84.8609 156.446 86.2457C156.347 86.4764 156.117 86.6248 155.869 86.6248V86.6413Z" fill="#330900"/>
<path d="M132.709 87.6632C132.709 87.6632 132.578 87.6632 132.512 87.6303C132.182 87.5149 132.017 87.1687 132.132 86.839C132.528 85.6686 132.676 84.2839 132.545 82.7178C132.512 82.3717 132.775 82.0749 133.105 82.0585C133.451 82.0255 133.748 82.2892 133.764 82.6189C133.896 84.3663 133.731 85.9159 133.286 87.2346C133.204 87.4984 132.957 87.6468 132.709 87.6468V87.6632Z" fill="#330900"/>
<path d="M129.034 87.9262C129.034 87.9262 128.902 87.9262 128.836 87.8932C128.506 87.7778 128.341 87.4317 128.457 87.102C128.885 85.8327 129.017 84.3325 128.836 82.6016C128.803 82.2555 129.05 81.9588 129.38 81.9258C129.709 81.9258 130.023 82.1401 130.056 82.4698C130.253 84.382 130.105 86.0634 129.611 87.4976C129.528 87.7613 129.281 87.9097 129.034 87.9097V87.9262Z" fill="#330900"/>
<path d="M41.6981 79.2734C41.6981 79.2734 41.5498 79.2734 41.4838 79.2405C41.1706 79.1251 41.0058 78.7624 41.1212 78.4492C42.7532 74.0643 40.6926 71.9707 40.5937 71.8718C40.3464 71.641 40.3464 71.2454 40.5937 70.9981C40.8244 70.7508 41.2201 70.7508 41.4673 70.9816C41.5827 71.097 44.2203 73.7016 42.2916 78.8778C42.1927 79.1251 41.9619 79.2734 41.7146 79.2734H41.6981Z" fill="black"/>
<path d="M46.9744 77.2941C46.6447 77.2941 46.381 77.0468 46.3645 76.7171C46.2161 74.2609 47.947 71.5903 48.013 71.4749C48.1943 71.1947 48.5899 71.1123 48.8702 71.2936C49.1504 71.475 49.2328 71.8541 49.0515 72.1508C49.0515 72.1673 47.469 74.6071 47.6008 76.6512C47.6173 76.9973 47.3536 77.2776 47.0239 77.3105C47.0239 77.3105 47.0074 77.3105 46.9909 77.3105L46.9744 77.2941Z" fill="black"/>
<path d="M83.8965 147.932C84.1602 148.773 84.6053 151.542 84.8691 152.366C88.4792 163.691 95.9468 168.06 95.9468 168.06C99.5899 166.757 99.3097 166.395 104.98 164.878C104.535 164.977 109.398 149.415 110.734 142.03C110.734 142.03 104.667 157.872 97.0018 159.488C92.007 160.543 86.3857 155.795 83.913 147.948L83.8965 147.932Z" fill="black"/>
<path d="M134.524 30.2794C134.524 30.2794 134.475 30.2794 134.442 30.2794C134.096 30.23 133.865 29.9332 133.898 29.5871C134.046 28.3507 133.008 25.5978 132.595 24.6252C132.464 24.3119 132.595 23.9493 132.925 23.8174C133.238 23.6855 133.601 23.8174 133.733 24.1306C133.898 24.5098 135.365 27.9551 135.134 29.7354C135.101 30.0486 134.821 30.2794 134.524 30.2794Z" fill="#330900"/>
<path d="M153.929 36.3639C153.929 36.3639 153.813 36.3639 153.764 36.3474C153.434 36.265 153.236 35.9188 153.335 35.5891C153.978 33.2318 153.5 30.281 153.368 29.9184C153.187 29.6217 153.286 29.292 153.583 29.1106C153.879 28.9293 154.275 29.0612 154.456 29.3414C154.72 29.7535 155.281 33.1494 154.522 35.9188C154.44 36.199 154.193 36.3804 153.929 36.3804V36.3639Z" fill="#330900"/>
<path d="M351.297 305.657C351.082 305.657 350.868 305.541 350.753 305.327C350.588 305.03 350.703 304.651 351 304.486C352.55 303.646 353.275 302.739 353.11 301.816C352.681 299.162 346.121 296.359 345.197 296.211C344.868 296.145 344.637 295.832 344.686 295.502C344.736 295.172 345.066 294.942 345.395 294.991C345.923 295.073 353.704 297.876 354.33 301.618C354.577 303.135 353.654 304.47 351.577 305.591C351.478 305.64 351.379 305.673 351.28 305.673L351.297 305.657Z" fill="#330900"/>
<path d="M411.551 285.529H411.534C411.188 285.529 410.924 285.232 410.941 284.886C411.023 282.677 404.841 280.913 400.934 280.319C400.588 280.27 400.357 279.957 400.423 279.611C400.473 279.281 400.786 279.034 401.132 279.1C402.286 279.281 412.342 280.929 412.193 284.935C412.193 285.265 411.913 285.529 411.583 285.529H411.551Z" fill="#330900"/>
<path d="M417.714 284.97C417.714 284.97 417.648 284.97 417.615 284.97C417.285 284.921 417.038 284.607 417.104 284.261C417.483 281.739 411.071 279.646 408.961 278.953C408.186 278.706 407.972 278.623 407.807 278.525C407.526 278.327 407.444 277.948 407.642 277.667C407.823 277.387 408.186 277.305 408.466 277.486C408.598 277.552 408.911 277.634 409.34 277.783C412.192 278.706 418.868 280.898 418.324 284.443C418.275 284.756 418.011 284.97 417.714 284.97Z" fill="#330900"/>
<path d="M424.652 284.311C424.652 284.311 424.57 284.311 424.52 284.311C424.191 284.245 423.976 283.915 424.042 283.585C424.487 281.409 418.355 279.299 415.305 278.623C414.976 278.557 414.761 278.211 414.844 277.882C414.926 277.552 415.256 277.338 415.586 277.404C416.657 277.651 426.086 279.86 425.262 283.816C425.196 284.113 424.949 284.311 424.652 284.311Z" fill="#330900"/>
<path d="M312.363 290.886C312.231 290.886 312.099 290.853 312 290.77C311.571 290.474 311.308 289.781 310.714 288.116C309.593 284.951 307.697 279.643 303.626 277.665C303.312 277.517 303.197 277.154 303.345 276.841C303.494 276.528 303.856 276.396 304.17 276.561C308.703 278.77 310.698 284.358 311.884 287.704C312.198 288.594 312.56 289.584 312.725 289.765C313.005 289.963 313.055 290.342 312.874 290.622C312.758 290.787 312.56 290.886 312.363 290.886Z" fill="#330900"/>
</svg>
